<?xml version="1.0" encoding="iso-8859-1"?>
<!-- Generator: Adobe Illustrator 19.0.0, SVG Export Plug-In . SVG Version: 6.00 Build 0)  -->
<svg version="1.1" id="Capa_1" xmlns="http://www.w3.org/2000/svg" xmlns:xlink="http://www.w3.org/1999/xlink" x="0px" y="0px"
	 viewBox="0 0 57.442 57.442" style="enable-background:new 0 0 57.442 57.442;" xml:space="preserve">
<path style="fill:#AFB6BB;" d="M45.485,28.927L28.515,11.956L38.846,1.625c2.167-2.167,5.681-2.167,7.848,0l9.123,9.123
	c2.167,2.167,2.167,5.681,0,7.848L45.485,28.927z"/>
<path style="fill:#E7ECED;" d="M24.596,50.239L7.203,32.845c-0.664-0.664-0.664-1.741,0-2.405l18.695-18.695
	c0.664-0.664,1.741-0.664,2.405,0l17.394,17.394c0.664,0.664,0.664,1.741,0,2.405L27.002,50.239
	C26.337,50.903,25.261,50.903,24.596,50.239z"/>
<rect x="9.425" y="40.517" transform="matrix(0.7071 0.7071 -0.7071 0.7071 35.0568 3.3997)" style="fill:#CBD4D8;" width="8" height="7"/>
<path style="fill:#FFFFFF;" d="M47.35,19.253l-9.161-9.161c-0.985-0.985-0.985-2.582,0-3.567l1.383-1.383
	c0.985-0.985,2.582-0.985,3.567,0l9.161,9.161c0.985,0.985,0.985,2.582,0,3.567l-1.383,1.383
	C49.932,20.238,48.335,20.238,47.35,19.253z"/>
<g>
	<path style="fill:#D3AA6E;" d="M42.062,6.894c-0.391-0.391-1.023-0.391-1.414,0l-0.707,0.707c-0.391,0.391-0.391,1.023,0,1.414
		c0.195,0.195,0.451,0.293,0.707,0.293s0.512-0.098,0.707-0.293l0.707-0.707C42.453,7.917,42.453,7.284,42.062,6.894z"/>
	<path style="fill:#D3AA6E;" d="M44.184,9.016c-0.391-0.391-1.023-0.391-1.414,0l-0.707,0.707c-0.391,0.391-0.391,1.023,0,1.414
		c0.195,0.195,0.451,0.293,0.707,0.293s0.512-0.098,0.707-0.293l0.707-0.707C44.574,10.039,44.574,9.406,44.184,9.016z"/>
	<path style="fill:#D3AA6E;" d="M46.305,11.137c-0.391-0.391-1.023-0.391-1.414,0l-0.707,0.707c-0.391,0.391-0.391,1.023,0,1.414
		c0.195,0.195,0.451,0.293,0.707,0.293s0.512-0.098,0.707-0.293l0.707-0.707C46.696,12.16,46.696,11.527,46.305,11.137z"/>
	<path style="fill:#D3AA6E;" d="M48.426,13.258c-0.391-0.391-1.023-0.391-1.414,0l-0.707,0.707c-0.391,0.391-0.391,1.023,0,1.414
		c0.195,0.195,0.451,0.293,0.707,0.293s0.512-0.098,0.707-0.293l0.707-0.707C48.817,14.281,48.817,13.649,48.426,13.258z"/>
	<path style="fill:#D3AA6E;" d="M50.548,15.379c-0.391-0.391-1.024-0.391-1.415,0l-0.708,0.707c-0.391,0.39-0.391,1.023,0,1.414
		c0.195,0.195,0.452,0.293,0.708,0.293s0.512-0.098,0.707-0.293l0.708-0.707C50.938,16.403,50.938,15.77,50.548,15.379z"/>
</g>
<path style="fill:#E7ECED;" d="M9.586,45.028l-9,9c-0.781,0.781-0.781,2.047,0,2.828s2.047,0.781,2.828,0l9-9L9.586,45.028z"/>
<g>
</g>
<g>
</g>
<g>
</g>
<g>
</g>
<g>
</g>
<g>
</g>
<g>
</g>
<g>
</g>
<g>
</g>
<g>
</g>
<g>
</g>
<g>
</g>
<g>
</g>
<g>
</g>
<g>
</g>
</svg>
