<?xml version="1.0" encoding="iso-8859-1"?>
<!-- Generator: Adobe Illustrator 19.0.0, SVG Export Plug-In . SVG Version: 6.00 Build 0)  -->
<svg version="1.1" id="Capa_1" xmlns="http://www.w3.org/2000/svg" xmlns:xlink="http://www.w3.org/1999/xlink" x="0px" y="0px"
	 viewBox="0 0 56.293 56.293" style="enable-background:new 0 0 56.293 56.293;" xml:space="preserve">
<rect x="26.358" y="9.935" transform="matrix(0.7071 0.7071 -0.7071 0.7071 22.4672 -25.37)" style="fill:#CBD4D8;" width="31" height="9"/>
<path style="fill:#E7ECED;" d="M38.273,41.256L15.037,18.02c-1.199-1.199-1.199-3.142,0-4.341l7.68-7.68
	c1.199-1.199,3.142-1.199,4.341,0l23.236,23.236c1.199,1.199,1.199,3.142,0,4.341l-7.68,7.68
	C41.415,42.455,39.472,42.455,38.273,41.256z"/>
<rect x="17.145" y="27.148" transform="matrix(0.7071 0.7071 -0.7071 0.7071 31.254 -4.1568)" style="fill:#CBD4D8;" width="7" height="17"/>
<path style="fill:#839594;" d="M36.908,13.021l-4.242-4.242l3.535-3.535l4.243,4.242L36.908,13.021z M35.494,8.778l1.414,1.414
	l0.707-0.707l-1.414-1.414L35.494,8.778z"/>
<path style="fill:#839594;" d="M47.515,23.628l-4.243-4.243l3.536-3.535l4.242,4.242L47.515,23.628z M46.1,19.385l1.415,1.415
	l0.707-0.708l-1.414-1.414L46.1,19.385z"/>
<rect x="32.726" y="1.389" transform="matrix(0.7071 0.7071 -0.7071 0.7071 13.3353 -22.4159)" style="fill:#AFB6BB;" width="2" height="7"/>
<rect x="50.404" y="19.067" transform="matrix(0.7071 0.7071 -0.7071 0.7071 31.013 -29.7383)" style="fill:#AFB6BB;" width="2" height="7"/>
<path style="fill:#E7ECED;" d="M13.22,40.245L0.586,52.879c-0.781,0.781-0.781,2.047,0,2.828s2.047,0.781,2.828,0l12.634-12.634
	L13.22,40.245z"/>
<path style="fill:#AFB6BB;" d="M31.251,3.121L31.251,3.121l1.414-1.414l0,0l-1.414-1.414c-0.391-0.391-1.023-0.391-1.414,0
	s-0.391,1.023,0,1.414L31.251,3.121z"/>
<path style="fill:#AFB6BB;" d="M56,25.042l-1.414-1.414l0,0l-1.414,1.414l0,0l1.414,1.414c0.195,0.195,0.451,0.293,0.707,0.293
	s0.512-0.098,0.707-0.293C56.39,26.065,56.39,25.433,56,25.042z"/>
<g>
</g>
<g>
</g>
<g>
</g>
<g>
</g>
<g>
</g>
<g>
</g>
<g>
</g>
<g>
</g>
<g>
</g>
<g>
</g>
<g>
</g>
<g>
</g>
<g>
</g>
<g>
</g>
<g>
</g>
</svg>
