<?xml version="1.0" encoding="iso-8859-1"?>
<!-- Generator: Adobe Illustrator 19.0.0, SVG Export Plug-In . SVG Version: 6.00 Build 0)  -->
<svg version="1.1" id="Capa_1" xmlns="http://www.w3.org/2000/svg" xmlns:xlink="http://www.w3.org/1999/xlink" x="0px" y="0px"
	 viewBox="0 0 58 58" style="enable-background:new 0 0 58 58;" xml:space="preserve">
<circle style="fill:#283238;" cx="29" cy="29" r="6"/>
<path style="fill:#283238;" d="M55.151,0H2.849C1.276,0,0,1.276,0,2.849v52.301C0,56.724,1.276,58,2.849,58h52.301
	C56.724,58,58,56.724,58,55.151V2.849C58,1.276,56.724,0,55.151,0z M6,3c1.657,0,3,1.343,3,3S7.657,9,6,9S3,7.657,3,6S4.343,3,6,3z
	 M6,55c-1.657,0-3-1.343-3-3s1.343-3,3-3s3,1.343,3,3S7.657,55,6,55z M52,55c-1.657,0-3-1.343-3-3s1.343-3,3-3s3,1.343,3,3
	S53.657,55,52,55z M29,55C14.641,55,3,43.359,3,29S14.641,3,29,3s26,11.641,26,26S43.359,55,29,55z M52,9c-1.657,0-3-1.343-3-3
	s1.343-3,3-3s3,1.343,3,3S53.657,9,52,9z"/>
<path style="fill:#546A79;" d="M31.109,23.389c1.414,0.532,2.572,1.579,3.246,2.917c6.019-3.618,8.741-9.887,8.123-19.543
	c-3.893-2.365-8.457-3.733-13.339-3.759C30.771,6.304,37.5,13.25,31.109,23.389z"/>
<path style="fill:#546A79;" d="M26.891,34.615c-1.414-0.532-2.572-1.579-3.246-2.917c-6.019,3.618-8.741,9.887-8.123,19.543
	c3.893,2.365,8.457,3.733,13.339,3.759C27.229,51.7,20.5,44.754,26.891,34.615z"/>
<path style="fill:#546A79;" d="M31.478,34.462c-1.376,0.624-2.935,0.702-4.358,0.233c-1.698,6.815,0.811,13.172,8.076,19.563
	c4.425-1.081,8.62-3.341,12.09-6.774C43.798,46.304,34.128,46.15,31.478,34.462z"/>
<path style="fill:#546A79;" d="M26.522,23.541c1.376-0.624,2.935-0.702,4.358-0.233c1.698-6.815-0.811-13.172-8.076-19.563
	c-4.425,1.081-8.62,3.341-12.09,6.774C14.202,11.7,23.872,11.853,26.522,23.541z"/>
<path style="fill:#546A79;" d="M34.613,31.111c-0.532,1.414-1.579,2.572-2.917,3.246c3.618,6.019,9.887,8.741,19.543,8.123
	c2.365-3.893,3.733-8.457,3.759-13.339C51.698,30.772,44.752,37.502,34.613,31.111z"/>
<path style="fill:#546A79;" d="M23.387,26.893c0.532-1.414,1.579-2.572,2.917-3.246c-3.618-6.019-9.887-8.741-19.543-8.123
	c-2.365,3.893-3.733,8.457-3.759,13.339C6.302,27.231,13.248,20.502,23.387,26.893z"/>
<path style="fill:#546A79;" d="M34.461,26.524c0.624,1.376,0.702,2.935,0.233,4.358c6.815,1.698,13.172-0.811,19.563-8.076
	c-1.081-4.425-3.341-8.62-6.774-12.09C46.302,14.204,46.149,23.874,34.461,26.524z"/>
<path style="fill:#546A79;" d="M23.539,31.479c-0.624-1.376-0.702-2.935-0.233-4.358c-6.815-1.698-13.172,0.811-19.563,8.076
	c1.081,4.425,3.341,8.62,6.774,12.09C11.698,43.8,11.851,34.13,23.539,31.479z"/>
<g>
</g>
<g>
</g>
<g>
</g>
<g>
</g>
<g>
</g>
<g>
</g>
<g>
</g>
<g>
</g>
<g>
</g>
<g>
</g>
<g>
</g>
<g>
</g>
<g>
</g>
<g>
</g>
<g>
</g>
</svg>
