<?xml version="1.0" encoding="iso-8859-1"?>
<!-- Generator: Adobe Illustrator 19.0.0, SVG Export Plug-In . SVG Version: 6.00 Build 0)  -->
<svg version="1.1" id="Capa_1" xmlns="http://www.w3.org/2000/svg" xmlns:xlink="http://www.w3.org/1999/xlink" x="0px" y="0px"
	 viewBox="0 0 59.002 59.002" style="enable-background:new 0 0 59.002 59.002;" xml:space="preserve">
<path style="fill:#38454F;" d="M58.501,59.002h-58V15.929c0-2.721,2.206-4.927,4.927-4.927h48.146c2.721,0,4.927,2.206,4.927,4.927
	V59.002z"/>
<g>
	<path style="fill:#546A79;" d="M47.501,40.601c0-1.435-1.164-2.599-2.599-2.599H14.1c-1.435,0-2.599,1.164-2.599,2.599v7.401h36
		V40.601z"/>
	<rect x="11.501" y="50.002" style="fill:#546A79;" width="36" height="9"/>
</g>
<path style="fill:#283238;" d="M5.5,12.002c-0.467,0-0.885-0.328-0.979-0.804c-0.108-0.542,0.243-1.068,0.784-1.177l50-10
	c0.548-0.114,1.069,0.243,1.177,0.784c0.108,0.542-0.243,1.068-0.784,1.177l-50,10C5.631,11.996,5.564,12.002,5.5,12.002z"/>
<line style="fill:none;stroke:#283238;stroke-width:2;stroke-linecap:round;stroke-miterlimit:10;" x1="21.501" y1="32.002" x2="36.501" y2="32.002"/>
<path style="fill:#546A79;" d="M53.574,11.002H5.428c-2.721,0-4.927,2.206-4.927,4.927v11.073h58V15.929
	C58.501,13.208,56.295,11.002,53.574,11.002z"/>
<rect x="5.501" y="15.002" style="fill:#21C6F7;" width="20" height="8"/>
<circle style="fill:#61B872;" cx="50.501" cy="19.002" r="3"/>
<path style="fill:#CBD4D8;" d="M31.501,18.002h-1c-0.553,0-1-0.447-1-1s0.447-1,1-1h1c0.553,0,1,0.447,1,1
	S32.054,18.002,31.501,18.002z"/>
<path style="fill:#CBD4D8;" d="M31.501,22.002h-1c-0.553,0-1-0.447-1-1s0.447-1,1-1h1c0.553,0,1,0.447,1,1
	S32.054,22.002,31.501,22.002z"/>
<path style="fill:#CBD4D8;" d="M36.501,18.002h-1c-0.553,0-1-0.447-1-1s0.447-1,1-1h1c0.553,0,1,0.447,1,1
	S37.054,18.002,36.501,18.002z"/>
<path style="fill:#CBD4D8;" d="M36.501,22.002h-1c-0.553,0-1-0.447-1-1s0.447-1,1-1h1c0.553,0,1,0.447,1,1
	S37.054,22.002,36.501,22.002z"/>
<path style="fill:#283238;" d="M33.43,42.002h-7.858c-0.592,0-1.071-0.48-1.071-1.071v-2.929h10v2.929
	C34.501,41.522,34.021,42.002,33.43,42.002z"/>
<path style="fill:#283238;" d="M33.43,54.002h-7.858c-0.592,0-1.071-0.48-1.071-1.071v-2.929h10v2.929
	C34.501,53.522,34.021,54.002,33.43,54.002z"/>
<g>
</g>
<g>
</g>
<g>
</g>
<g>
</g>
<g>
</g>
<g>
</g>
<g>
</g>
<g>
</g>
<g>
</g>
<g>
</g>
<g>
</g>
<g>
</g>
<g>
</g>
<g>
</g>
<g>
</g>
</svg>
