<?xml version="1.0" encoding="iso-8859-1"?>
<!-- Generator: Adobe Illustrator 19.0.0, SVG Export Plug-In . SVG Version: 6.00 Build 0)  -->
<svg version="1.1" id="Capa_1" xmlns="http://www.w3.org/2000/svg" xmlns:xlink="http://www.w3.org/1999/xlink" x="0px" y="0px"
	 viewBox="0 0 58 58" style="enable-background:new 0 0 58 58;" xml:space="preserve">
<circle style="fill:none;stroke:#B02721;stroke-width:2;stroke-miterlimit:10;" cx="26" cy="45" r="12"/>
<circle style="fill:none;stroke:#B02721;stroke-width:2;stroke-miterlimit:10;" cx="26" cy="42" r="15"/>
<path style="fill:none;stroke:#B02721;stroke-width:2;stroke-miterlimit:10;" d="M6,24c0-8.291,6.709-15,15-15"/>
<rect x="5" style="fill:#AFB6BB;" width="4" height="7"/>
<path style="fill:#38454F;" d="M11.5,6H9V1h2.5C12.881,1,14,2.119,14,3.5v0C14,4.881,12.881,6,11.5,6z"/>
<rect x="20" y="7" style="fill:#AFB6BB;" width="7" height="4"/>
<path style="fill:#38454F;" d="M21,13.5V11h5v2.5c0,1.381-1.119,2.5-2.5,2.5h0C22.119,16,21,14.881,21,13.5z"/>
<path style="fill:none;stroke:#B02721;stroke-width:2;stroke-miterlimit:10;" d="M6,7v31v-1c0,11.055,8.945,20,20,20
	c13.266,0,24-10.734,24-24v-7v1v-7"/>
<rect x="47" y="8" style="fill:#38454F;" width="6" height="7"/>
<rect x="48" y="15" style="fill:#283238;" width="4" height="5"/>
<path style="fill:#EEAF4B;" d="M52,8h-4V3c0-1.105,0.895-2,2-2h0c1.105,0,2,0.895,2,2V8z"/>
<g>
</g>
<g>
</g>
<g>
</g>
<g>
</g>
<g>
</g>
<g>
</g>
<g>
</g>
<g>
</g>
<g>
</g>
<g>
</g>
<g>
</g>
<g>
</g>
<g>
</g>
<g>
</g>
<g>
</g>
</svg>
