<?xml version="1.0" encoding="iso-8859-1"?>
<!-- Generator: Adobe Illustrator 19.0.0, SVG Export Plug-In . SVG Version: 6.00 Build 0)  -->
<svg version="1.1" id="Capa_1" xmlns="http://www.w3.org/2000/svg" xmlns:xlink="http://www.w3.org/1999/xlink" x="0px" y="0px"
	 viewBox="0 0 58 58" style="enable-background:new 0 0 58 58;" xml:space="preserve">
<polygon style="fill:#546A79;" points="53,47 5,47 0,36 0,12 58,12 58,35.802 "/>
<path style="fill:#283238;" d="M53,47H5l3-25.005C8,19.789,9.789,18,11.995,18h34.009C48.211,18,50,19.789,50,21.995L53,47z"/>
<path style="fill:#38454F;" d="M11.995,18h34.009c1.359,0,2.555,0.682,3.277,1.718L58,12H0l8.718,7.718
	C9.44,18.682,10.636,18,11.995,18z"/>
<line style="fill:none;stroke:#CBD4D8;stroke-width:2;stroke-linecap:round;stroke-linejoin:round;stroke-miterlimit:10;" x1="13" y1="47" x2="13" y2="42"/>
<circle style="fill:#DD352E;" cx="13" cy="39" r="3"/>
<rect x="18" y="44" style="fill:#EBBA16;" width="5" height="3"/>
<line style="fill:none;stroke:#CBD4D8;stroke-width:2;stroke-linecap:round;stroke-linejoin:round;stroke-miterlimit:10;" x1="45" y1="47" x2="45" y2="42"/>
<circle style="fill:#DD352E;" cx="45" cy="39" r="3"/>
<rect x="35" y="44" style="fill:#EBBA16;" width="5" height="3"/>
<path style="fill:#38454F;" d="M58,58H0v-7.447C0,48.591,1.591,47,3.553,47h50.895C56.409,47,58,48.591,58,50.553V58z"/>
<rect x="52" y="49" style="fill:#E7ECED;" width="2" height="7"/>
<circle style="fill:#23A24D;" cx="46.5" cy="52.5" r="2.5"/>
<rect x="4" y="49" style="fill:#E7ECED;" width="2" height="7"/>
<circle style="fill:#23A24D;" cx="11.5" cy="52.5" r="2.5"/>
<g>
	<path style="fill:#38454F;" d="M12,27c0.256,0,0.512-0.098,0.707-0.293l4-4c0.391-0.391,0.391-1.023,0-1.414s-1.023-0.391-1.414,0
		l-4,4c-0.391,0.391-0.391,1.023,0,1.414C11.488,26.902,11.744,27,12,27z"/>
	<path style="fill:#38454F;" d="M13.293,28.293l-2,2c-0.391,0.391-0.391,1.023,0,1.414C11.488,31.902,11.744,32,12,32
		s0.512-0.098,0.707-0.293l2-2c0.391-0.391,0.391-1.023,0-1.414S13.684,27.902,13.293,28.293z"/>
	<path style="fill:#38454F;" d="M15.29,26.29C15.109,26.479,15,26.729,15,27c0,0.26,0.109,0.52,0.29,0.71
		C15.47,27.89,15.729,28,16,28c0.27,0,0.52-0.11,0.71-0.29C16.89,27.52,17,27.26,17,27c0-0.271-0.11-0.521-0.29-0.71
		C16.33,25.92,15.66,25.92,15.29,26.29z"/>
	<path style="fill:#38454F;" d="M21.707,21.293c-0.391-0.391-1.023-0.391-1.414,0l-3,3c-0.391,0.391-0.391,1.023,0,1.414
		C17.488,25.902,17.744,26,18,26s0.512-0.098,0.707-0.293l3-3C22.098,22.316,22.098,21.684,21.707,21.293z"/>
</g>
<rect style="fill:#434C6D;" width="58" height="12"/>
<path style="fill:#E0E1E2;" d="M4,9C3.447,9,3,8.553,3,8V4c0-0.553,0.447-1,1-1s1,0.447,1,1v4C5,8.553,4.553,9,4,9z"/>
<path style="fill:#E0E1E2;" d="M7,7H4C3.447,7,3,6.553,3,6s0.447-1,1-1h3c0.553,0,1,0.447,1,1S7.553,7,7,7z"/>
<path style="fill:#E0E1E2;" d="M7,10c-0.553,0-1-0.447-1-1V3c0-0.553,0.447-1,1-1s1,0.447,1,1v6C8,9.553,7.553,10,7,10z"/>
<path style="fill:#E0E1E2;" d="M9,7H7C6.447,7,6,6.553,6,6s0.447-1,1-1h2c0.553,0,1,0.447,1,1S9.553,7,9,7z"/>
<g>
	<path style="fill:#EBBA16;" d="M14,7c-0.26,0-0.521-0.11-0.71-0.29C13.109,6.52,13,6.26,13,6c0-0.271,0.109-0.521,0.29-0.71
		c0.38-0.37,1.04-0.37,1.42,0C14.89,5.479,15,5.74,15,6s-0.11,0.52-0.29,0.71C14.52,6.89,14.26,7,14,7z"/>
	<path style="fill:#EBBA16;" d="M25,6c0-0.55,0.45-1,1-1l0,0c0.55,0,1,0.45,1,1l0,0c0,0.55-0.45,1-1,1l0,0C25.45,7,25,6.55,25,6z
		 M21,6c0-0.55,0.45-1,1-1l0,0c0.55,0,1,0.45,1,1l0,0c0,0.55-0.45,1-1,1l0,0C21.45,7,21,6.55,21,6z M17,6c0-0.55,0.45-1,1-1l0,0
		c0.55,0,1,0.45,1,1l0,0c0,0.55-0.45,1-1,1l0,0C17.45,7,17,6.55,17,6z"/>
	<path style="fill:#EBBA16;" d="M30,7c-0.26,0-0.521-0.11-0.71-0.29C29.109,6.52,29,6.26,29,6c0-0.271,0.109-0.521,0.29-0.71
		c0.38-0.37,1.05-0.37,1.42,0C30.89,5.479,31,5.74,31,6s-0.11,0.52-0.29,0.71C30.52,6.89,30.26,7,30,7z"/>
</g>
<circle style="fill:#D75E72;" cx="52" cy="6" r="3"/>
<g>
</g>
<g>
</g>
<g>
</g>
<g>
</g>
<g>
</g>
<g>
</g>
<g>
</g>
<g>
</g>
<g>
</g>
<g>
</g>
<g>
</g>
<g>
</g>
<g>
</g>
<g>
</g>
<g>
</g>
</svg>
