<?xml version="1.0" encoding="iso-8859-1"?>
<!-- Generator: Adobe Illustrator 19.0.0, SVG Export Plug-In . SVG Version: 6.00 Build 0)  -->
<svg version="1.1" id="Capa_1" xmlns="http://www.w3.org/2000/svg" xmlns:xlink="http://www.w3.org/1999/xlink" x="0px" y="0px"
	 viewBox="0 0 58 58" style="enable-background:new 0 0 58 58;" xml:space="preserve">
<path style="fill:#E0E1E2;" d="M29,58h-5c-2.947,0-5.336-2.389-5.336-5.336l-0.612-33.787c-0.035-1.917-0.142-3.832-0.321-5.741
	L17,5.336C17,2.389,19.389,0,22.336,0L29,0h6.664C38.611,0,41,2.389,41,5.336l-0.731,7.8c-0.179,1.909-0.286,3.824-0.321,5.741
	l-0.612,33.787C39.336,55.611,36.947,58,34,58H29z"/>
<path style="fill:#839594;" d="M25.471,44h-1.942C22.685,44,22,43.315,22,42.471v-1.942C22,39.685,22.685,39,23.529,39h1.942
	C26.315,39,27,39.685,27,40.529v1.942C27,43.315,26.315,44,25.471,44z"/>
<path style="fill:#839594;" d="M34.471,44h-1.942C31.685,44,31,43.315,31,42.471v-1.942C31,39.685,31.685,39,32.529,39h1.942
	C35.315,39,36,39.685,36,40.529v1.942C36,43.315,35.315,44,34.471,44z"/>
<path style="fill:#839594;" d="M25.471,53h-1.942C22.685,53,22,52.315,22,51.471v-1.942C22,48.685,22.685,48,23.529,48h1.942
	C26.315,48,27,48.685,27,49.529v1.942C27,52.315,26.315,53,25.471,53z"/>
<path style="fill:#839594;" d="M34.471,53h-1.942C31.685,53,31,52.315,31,51.471v-1.942C31,48.685,31.685,48,32.529,48h1.942
	C35.315,48,36,48.685,36,49.529v1.942C36,52.315,35.315,53,34.471,53z"/>
<ellipse style="fill:#AFB6BB;" cx="29" cy="6.5" rx="5" ry="2.5"/>
<path style="fill:#CBD4D8;" d="M33.839,34.85h-9.566c-3.3,0-6-2.7-6-6v-9.566c0-3.3,2.7-6,6-6h9.566c3.3,0,6,2.7,6,6v9.566
	C39.839,32.15,37.139,34.85,33.839,34.85z"/>
<path style="fill:#38454F;" d="M34.286,22H31v-3.286C31,18.32,30.68,18,30.286,18h-2.571C27.32,18,27,18.32,27,18.714V22h-3.286
	C23.32,22,23,22.32,23,22.714v2.571C23,25.68,23.32,26,23.714,26H27v3.286C27,29.68,27.32,30,27.714,30h2.571
	C30.68,30,31,29.68,31,29.286V26h3.286C34.68,26,35,25.68,35,25.286v-2.571C35,22.32,34.68,22,34.286,22z"/>
<g>
</g>
<g>
</g>
<g>
</g>
<g>
</g>
<g>
</g>
<g>
</g>
<g>
</g>
<g>
</g>
<g>
</g>
<g>
</g>
<g>
</g>
<g>
</g>
<g>
</g>
<g>
</g>
<g>
</g>
</svg>
