<?xml version="1.0" encoding="iso-8859-1"?>
<!-- Generator: Adobe Illustrator 19.0.0, SVG Export Plug-In . SVG Version: 6.00 Build 0)  -->
<svg version="1.1" id="Capa_1" xmlns="http://www.w3.org/2000/svg" xmlns:xlink="http://www.w3.org/1999/xlink" x="0px" y="0px"
	 viewBox="0 0 55.562 55.562" style="enable-background:new 0 0 55.562 55.562;" xml:space="preserve">
<rect x="23.781" y="0.562" style="fill:#CBD4D8;" width="10" height="55"/>
<polygon style="fill:#E0E1E2;" points="33.781,55.562 33.781,0.562 54.781,8.562 54.781,48.562 "/>
<path style="fill:#CBD4D8;" d="M8.219,44.562H5.342c-2.519,0-4.562-2.042-4.562-4.562V4.562C0.781,2.042,2.823,0,5.342,0h2.877
	c2.519,0,4.562,2.042,4.562,4.562V40C12.781,42.519,10.738,44.562,8.219,44.562z"/>
<circle style="fill:#FFFFFF;" cx="6.781" cy="35.562" r="3"/>
<rect x="3.781" y="5.562" style="fill:#FFFFFF;" width="2" height="2"/>
<rect x="7.781" y="5.562" style="fill:#FFFFFF;" width="2" height="2"/>
<rect x="7.781" y="9.562" style="fill:#FFFFFF;" width="2" height="2"/>
<rect x="3.781" y="9.562" style="fill:#FFFFFF;" width="2" height="2"/>
<rect x="3.781" y="13.562" style="fill:#FFFFFF;" width="2" height="2"/>
<rect x="7.781" y="13.562" style="fill:#FFFFFF;" width="2" height="2"/>
<rect x="3.781" y="17.562" style="fill:#FFFFFF;" width="2" height="2"/>
<rect x="7.781" y="17.562" style="fill:#FFFFFF;" width="2" height="2"/>
<rect x="7.781" y="21.562" style="fill:#FFFFFF;" width="2" height="2"/>
<rect x="3.781" y="21.562" style="fill:#FFFFFF;" width="2" height="2"/>
<rect x="3.781" y="25.562" style="fill:#FFFFFF;" width="2" height="2"/>
<rect x="7.781" y="25.562" style="fill:#FFFFFF;" width="2" height="2"/>
<path style="fill:#48A0DC;" d="M28.781,44.562c-0.553,0-1-0.447-1-1v-34c0-0.553,0.447-1,1-1s1,0.447,1,1v34
	C29.781,44.114,29.333,44.562,28.781,44.562z"/>
<circle style="fill:none;stroke:#AFB6BB;stroke-width:2;stroke-linecap:round;stroke-linejoin:round;stroke-miterlimit:10;" cx="28.781" cy="49.562" r="2"/>
<path style="fill:none;stroke:#AFB6BB;stroke-width:2;stroke-miterlimit:10;" d="M15.781,50.562c-0.144,0-4.577-0.312-8.56-5.414
	c-0.142-0.182-0.43-0.079-0.414,0.151c0.161,2.297,1.274,9.174,8.828,9.262c1.018,0.012,1.973-0.685,2.123-1.692
	C17.942,51.628,16.986,50.562,15.781,50.562z"/>
<g>
</g>
<g>
</g>
<g>
</g>
<g>
</g>
<g>
</g>
<g>
</g>
<g>
</g>
<g>
</g>
<g>
</g>
<g>
</g>
<g>
</g>
<g>
</g>
<g>
</g>
<g>
</g>
<g>
</g>
</svg>
