<?xml version="1.0" encoding="iso-8859-1"?>
<!-- Generator: Adobe Illustrator 19.0.0, SVG Export Plug-In . SVG Version: 6.00 Build 0)  -->
<svg version="1.1" id="Capa_1" xmlns="http://www.w3.org/2000/svg" xmlns:xlink="http://www.w3.org/1999/xlink" x="0px" y="0px"
	 viewBox="0 0 58 58" style="enable-background:new 0 0 58 58;" xml:space="preserve">
<path style="fill:#283238;" d="M29,44c10.458,0,20.916,0,21,0c7,0,8-7.82,8-15s-1.021-15-8-15c-0.084,0-10.542,0-21,0S8.084,14,8,14
	c-6.979,0-8,7.82-8,15s1,15,8,15C8.084,44,18.542,44,29,44z"/>
<rect x="13" y="14" style="fill:#48A0DC;" width="32" height="30"/>
<g>
	<path style="fill:#7CCBF7;" d="M17,23c0.256,0,0.512-0.098,0.707-0.293l4-4c0.391-0.391,0.391-1.023,0-1.414s-1.023-0.391-1.414,0
		l-4,4c-0.391,0.391-0.391,1.023,0,1.414C16.488,22.902,16.744,23,17,23z"/>
	<path style="fill:#7CCBF7;" d="M18.293,24.293l-2,2c-0.391,0.391-0.391,1.023,0,1.414C16.488,27.902,16.744,28,17,28
		s0.512-0.098,0.707-0.293l2-2c0.391-0.391,0.391-1.023,0-1.414S18.684,23.902,18.293,24.293z"/>
	<path style="fill:#7CCBF7;" d="M20.29,22.29C20.109,22.479,20,22.729,20,23c0,0.27,0.109,0.52,0.29,0.71
		C20.479,23.89,20.729,24,21,24c0.26,0,0.52-0.11,0.71-0.29C21.89,23.52,22,23.26,22,23s-0.11-0.521-0.29-0.71
		C21.33,21.92,20.67,21.92,20.29,22.29z"/>
	<path style="fill:#7CCBF7;" d="M26.707,17.293c-0.391-0.391-1.023-0.391-1.414,0l-3,3c-0.391,0.391-0.391,1.023,0,1.414
		C22.488,21.902,22.744,22,23,22s0.512-0.098,0.707-0.293l3-3C27.098,18.316,27.098,17.684,26.707,17.293z"/>
</g>
<circle style="fill:#38454F;" cx="7" cy="34" r="3"/>
<circle style="fill:#38454F;" cx="51" cy="34" r="3"/>
<path style="fill:#546A79;" d="M56,18c-0.23-0.575-0.478-1.101-0.739-1.573C54.07,14.932,52.391,14,50,14h-2.081l3,4H56z"/>
<path style="fill:#546A79;" d="M55.244,41.605C55.511,41.125,55.765,40.588,56,40h-5.081l-3,4H50
	C52.38,44,54.055,43.081,55.244,41.605z"/>
<path style="fill:#546A79;" d="M2.156,17.265C2.047,17.502,1.94,17.744,1.837,18h5.081l3-4H8C5.189,14,3.357,15.281,2.156,17.265z"
	/>
<path style="fill:#546A79;" d="M1.837,40c0.11,0.276,0.225,0.537,0.343,0.79C3.38,42.743,5.207,44,8,44h1.919l-3-4H1.837z"/>
<path style="fill:#546A79;" d="M7,23c-0.553,0-1-0.447-1-1v-1c0-0.553,0.447-1,1-1s1,0.447,1,1v1C8,22.553,7.553,23,7,23z"/>
<path style="fill:#546A79;" d="M10,25H9c-0.553,0-1-0.447-1-1s0.447-1,1-1h1c0.553,0,1,0.447,1,1S10.553,25,10,25z"/>
<path style="fill:#546A79;" d="M5,25H4c-0.553,0-1-0.447-1-1s0.447-1,1-1h1c0.553,0,1,0.447,1,1S5.553,25,5,25z"/>
<path style="fill:#546A79;" d="M7,28c-0.553,0-1-0.447-1-1v-1c0-0.553,0.447-1,1-1s1,0.447,1,1v1C8,27.553,7.553,28,7,28z"/>
<path style="fill:#546A79;" d="M51,22c-0.271,0-0.521-0.11-0.71-0.29C50.109,21.52,50,21.26,50,21s0.109-0.521,0.29-0.71
	c0.38-0.37,1.04-0.37,1.42,0C51.89,20.479,52,20.74,52,21s-0.11,0.52-0.29,0.71C51.52,21.89,51.27,22,51,22z"/>
<path style="fill:#546A79;" d="M51,28c-0.26,0-0.521-0.11-0.71-0.29C50.109,27.52,50,27.26,50,27s0.109-0.521,0.29-0.71
	c0.37-0.37,1.04-0.37,1.42,0C51.89,26.479,52,26.74,52,27s-0.11,0.52-0.29,0.71C51.52,27.899,51.26,28,51,28z"/>
<path style="fill:#546A79;" d="M48,25c-0.271,0-0.521-0.11-0.71-0.29C47.109,24.52,47,24.26,47,24s0.109-0.521,0.29-0.71
	c0.38-0.37,1.04-0.37,1.42,0C48.89,23.479,49,23.74,49,24s-0.11,0.52-0.29,0.71C48.52,24.89,48.27,25,48,25z"/>
<path style="fill:#546A79;" d="M54,25c-0.271,0-0.53-0.11-0.71-0.29C53.109,24.52,53,24.26,53,24s0.109-0.521,0.29-0.71
	c0.37-0.37,1.04-0.37,1.42,0C54.89,23.479,55,23.74,55,24s-0.11,0.52-0.29,0.71C54.52,24.89,54.27,25,54,25z"/>
<g>
</g>
<g>
</g>
<g>
</g>
<g>
</g>
<g>
</g>
<g>
</g>
<g>
</g>
<g>
</g>
<g>
</g>
<g>
</g>
<g>
</g>
<g>
</g>
<g>
</g>
<g>
</g>
<g>
</g>
</svg>
