<?xml version="1.0" encoding="iso-8859-1"?>
<!-- Generator: Adobe Illustrator 19.0.0, SVG Export Plug-In . SVG Version: 6.00 Build 0)  -->
<svg version="1.1" id="Capa_1" xmlns="http://www.w3.org/2000/svg" xmlns:xlink="http://www.w3.org/1999/xlink" x="0px" y="0px"
	 viewBox="0 0 57 57" style="enable-background:new 0 0 57 57;" xml:space="preserve">
<path style="fill:#C6679B;" d="M2.346,0l52.308,0c1.02,0,1.846,0.826,1.846,1.846v27.151h-56V1.846C0.5,0.826,1.326,0,2.346,0z"/>
<path style="fill:#B5578F;" d="M0.5,29h56v26.154c0,1.02-0.826,1.846-1.846,1.846H2.346C1.326,57,0.5,56.174,0.5,55.154V29z"/>
<path style="fill:#283238;" d="M41.924,24H15.076c-0.87,0-1.576-0.706-1.576-1.576V5.573c0-0.87,0.706-1.576,1.576-1.576h26.848
	c0.87,0,1.576,0.706,1.576,1.576v16.851C43.5,23.294,42.794,24,41.924,24z"/>
<path style="fill:#283238;" d="M41.924,53H15.076c-0.87,0-1.576-0.706-1.576-1.576V33.576c0-0.87,0.706-1.576,1.576-1.576h26.848
	c0.87,0,1.576,0.706,1.576,1.576v17.848C43.5,52.294,42.794,53,41.924,53z"/>
<rect x="6.5" y="45" style="fill:#A81172;" width="2" height="8"/>
<rect x="3.5" y="48" style="fill:#A81172;" width="8" height="2"/>
<path style="fill:#A81172;" d="M50,39L50,39c-0.828,0-1.5-0.672-1.5-1.5l0,0c0-0.828,0.672-1.5,1.5-1.5l0,0
	c0.828,0,1.5,0.672,1.5,1.5l0,0C51.5,38.328,50.828,39,50,39z"/>
<path style="fill:#A81172;" d="M50,44L50,44c-0.828,0-1.5-0.672-1.5-1.5l0,0c0-0.828,0.672-1.5,1.5-1.5l0,0
	c0.828,0,1.5,0.672,1.5,1.5l0,0C51.5,43.328,50.828,44,50,44z"/>
<path style="fill:#A81172;" d="M51.5,40L51.5,40c0-0.828,0.672-1.5,1.5-1.5l0,0c0.828,0,1.5,0.672,1.5,1.5l0,0
	c0,0.828-0.672,1.5-1.5,1.5l0,0C52.172,41.5,51.5,40.828,51.5,40z"/>
<path style="fill:#A81172;" d="M45.5,40L45.5,40c0-0.828,0.672-1.5,1.5-1.5l0,0c0.828,0,1.5,0.672,1.5,1.5l0,0
	c0,0.828-0.672,1.5-1.5,1.5l0,0C46.172,41.5,45.5,40.828,45.5,40z"/>
<path style="fill:#A81172;" d="M45.5,52.5L45.5,52.5c0-0.828,0.672-1.5,1.5-1.5l0,0c0.828,0,1.5,0.672,1.5,1.5l0,0
	c0,0.828-0.672,1.5-1.5,1.5l0,0C46.172,54,45.5,53.328,45.5,52.5z"/>
<path style="fill:#A81172;" d="M4.5,15c-0.26,0-0.52-0.11-0.71-0.29C3.61,14.52,3.5,14.26,3.5,14s0.11-0.521,0.29-0.71
	c0.37-0.37,1.05-0.37,1.42,0C5.39,13.479,5.5,13.74,5.5,14s-0.11,0.52-0.29,0.71C5.02,14.89,4.76,15,4.5,15z"/>
<path style="fill:#A81172;" d="M7.5,12c-0.26,0-0.52-0.11-0.71-0.29C6.61,11.52,6.5,11.26,6.5,11c0-0.271,0.11-0.521,0.29-0.71
	c0.38-0.37,1.05-0.37,1.42,0C8.39,10.479,8.5,10.729,8.5,11c0,0.26-0.11,0.52-0.29,0.71C8.02,11.89,7.76,12,7.5,12z"/>
<path style="fill:#A81172;" d="M7.5,18c-0.26,0-0.52-0.101-0.71-0.29C6.61,17.52,6.5,17.26,6.5,17s0.11-0.521,0.29-0.71
	c0.38-0.37,1.05-0.37,1.42,0C8.39,16.479,8.5,16.74,8.5,17s-0.11,0.52-0.29,0.71C8.02,17.89,7.76,18,7.5,18z"/>
<path style="fill:#A81172;" d="M10.5,15c-0.26,0-0.52-0.11-0.71-0.29C9.61,14.52,9.5,14.26,9.5,14s0.11-0.521,0.29-0.71
	c0.37-0.37,1.05-0.37,1.42,0c0.18,0.189,0.29,0.45,0.29,0.71s-0.11,0.52-0.29,0.71C11.02,14.89,10.76,15,10.5,15z"/>
<path style="fill:#A81172;" d="M46.5,15c-0.26,0-0.52-0.11-0.71-0.29c-0.18-0.19-0.29-0.45-0.29-0.71s0.11-0.521,0.29-0.71
	c0.37-0.37,1.05-0.37,1.42,0c0.18,0.189,0.29,0.45,0.29,0.71s-0.11,0.52-0.29,0.71C47.02,14.89,46.76,15,46.5,15z"/>
<path style="fill:#A81172;" d="M49.5,12c-0.26,0-0.52-0.11-0.71-0.29c-0.18-0.19-0.29-0.45-0.29-0.71c0-0.271,0.11-0.53,0.29-0.71
	c0.37-0.37,1.04-0.37,1.42,0c0.18,0.189,0.29,0.439,0.29,0.71c0,0.26-0.11,0.52-0.29,0.71C50.02,11.89,49.76,12,49.5,12z"/>
<path style="fill:#A81172;" d="M49.5,18c-0.26,0-0.52-0.11-0.71-0.29c-0.18-0.19-0.29-0.45-0.29-0.71s0.11-0.521,0.29-0.71
	c0.37-0.37,1.04-0.37,1.42,0c0.18,0.189,0.29,0.45,0.29,0.71s-0.11,0.52-0.29,0.71C50.02,17.89,49.76,18,49.5,18z"/>
<path style="fill:#A81172;" d="M52.5,15c-0.26,0-0.52-0.11-0.71-0.29c-0.18-0.19-0.29-0.45-0.29-0.71s0.11-0.521,0.29-0.71
	c0.38-0.37,1.06-0.37,1.42,0c0.18,0.189,0.29,0.45,0.29,0.71s-0.11,0.52-0.29,0.71C53.02,14.89,52.76,15,52.5,15z"/>
<circle style="fill:#E0E1E2;" cx="7" cy="36.5" r="3.5"/>
<g>
	<path style="fill:#38454F;" d="M17.5,13c0.256,0,0.512-0.098,0.707-0.293l4-4c0.391-0.391,0.391-1.023,0-1.414
		s-1.023-0.391-1.414,0l-4,4c-0.391,0.391-0.391,1.023,0,1.414C16.988,12.902,17.244,13,17.5,13z"/>
	<path style="fill:#38454F;" d="M18.793,14.293l-2,2c-0.391,0.391-0.391,1.023,0,1.414C16.988,17.902,17.244,18,17.5,18
		s0.512-0.098,0.707-0.293l2-2c0.391-0.391,0.391-1.023,0-1.414S19.184,13.902,18.793,14.293z"/>
	<path style="fill:#38454F;" d="M20.79,12.29c-0.18,0.189-0.29,0.45-0.29,0.71s0.11,0.52,0.29,0.71C20.98,13.89,21.23,14,21.5,14
		c0.26,0,0.52-0.11,0.71-0.29c0.18-0.19,0.29-0.45,0.29-0.71s-0.11-0.521-0.29-0.71C21.84,11.92,21.15,11.92,20.79,12.29z"/>
	<path style="fill:#38454F;" d="M27.207,7.293c-0.391-0.391-1.023-0.391-1.414,0l-3,3c-0.391,0.391-0.391,1.023,0,1.414
		C22.988,11.902,23.244,12,23.5,12s0.512-0.098,0.707-0.293l3-3C27.598,8.316,27.598,7.684,27.207,7.293z"/>
</g>
<g>
	<path style="fill:#38454F;" d="M17.5,41c0.256,0,0.512-0.098,0.707-0.293l4-4c0.391-0.391,0.391-1.023,0-1.414
		s-1.023-0.391-1.414,0l-4,4c-0.391,0.391-0.391,1.023,0,1.414C16.988,40.902,17.244,41,17.5,41z"/>
	<path style="fill:#38454F;" d="M18.793,42.293l-2,2c-0.391,0.391-0.391,1.023,0,1.414C16.988,45.902,17.244,46,17.5,46
		s0.512-0.098,0.707-0.293l2-2c0.391-0.391,0.391-1.023,0-1.414S19.184,41.902,18.793,42.293z"/>
	<path style="fill:#38454F;" d="M20.79,40.29c-0.18,0.189-0.29,0.439-0.29,0.71c0,0.27,0.11,0.52,0.29,0.71
		C20.98,41.89,21.23,42,21.5,42c0.26,0,0.52-0.11,0.71-0.29c0.18-0.19,0.29-0.45,0.29-0.71s-0.11-0.521-0.29-0.71
		C21.84,39.92,21.16,39.92,20.79,40.29z"/>
	<path style="fill:#38454F;" d="M27.207,35.293c-0.391-0.391-1.023-0.391-1.414,0l-3,3c-0.391,0.391-0.391,1.023,0,1.414
		C22.988,39.902,23.244,40,23.5,40s0.512-0.098,0.707-0.293l3-3C27.598,36.316,27.598,35.684,27.207,35.293z"/>
</g>
<g>
</g>
<g>
</g>
<g>
</g>
<g>
</g>
<g>
</g>
<g>
</g>
<g>
</g>
<g>
</g>
<g>
</g>
<g>
</g>
<g>
</g>
<g>
</g>
<g>
</g>
<g>
</g>
<g>
</g>
</svg>
