<?xml version="1.0" encoding="iso-8859-1"?>
<!-- Generator: Adobe Illustrator 19.0.0, SVG Export Plug-In . SVG Version: 6.00 Build 0)  -->
<svg version="1.1" id="Capa_1" xmlns="http://www.w3.org/2000/svg" xmlns:xlink="http://www.w3.org/1999/xlink" x="0px" y="0px"
	 viewBox="0 0 58 58" style="enable-background:new 0 0 58 58;" xml:space="preserve">
<path style="fill:#283238;" d="M52.5,14c-0.169,0-0.5,0-0.5,0H6c0,0-0.331,0-0.5,0C2.462,14,0,21.82,0,29s2.462,15,5.5,15
	C5.669,44,6,44,6,44h46c0,0,0.331,0,0.5,0c3.038,0,5.5-7.82,5.5-15S55.538,14,52.5,14z"/>
<rect x="12" y="14" style="fill:#7383BF;" width="34" height="30"/>
<path style="fill:#38454F;" d="M6,28c-0.553,0-1-0.447-1-1v-1c0-0.553,0.447-1,1-1s1,0.447,1,1v1C7,27.553,6.553,28,6,28z"/>
<path style="fill:#38454F;" d="M9,30H8c-0.553,0-1-0.447-1-1s0.447-1,1-1h1c0.553,0,1,0.447,1,1S9.553,30,9,30z"/>
<path style="fill:#38454F;" d="M4,30H3c-0.553,0-1-0.447-1-1s0.447-1,1-1h1c0.553,0,1,0.447,1,1S4.553,30,4,30z"/>
<path style="fill:#38454F;" d="M6,33c-0.553,0-1-0.447-1-1v-1c0-0.553,0.447-1,1-1s1,0.447,1,1v1C7,32.553,6.553,33,6,33z"/>
<path style="fill:#38454F;" d="M9,24c-0.26,0-0.521-0.11-0.71-0.29C8.109,23.52,8,23.26,8,23s0.1-0.521,0.29-0.71
	c0.38-0.37,1.04-0.37,1.42,0C9.89,22.479,10,22.74,10,23s-0.11,0.52-0.29,0.71C9.52,23.89,9.26,24,9,24z"/>
<path style="fill:#38454F;" d="M52,25c-0.271,0-0.521-0.11-0.71-0.29C51.109,24.52,51,24.26,51,24s0.109-0.521,0.29-0.71
	c0.38-0.37,1.04-0.37,1.42,0C52.89,23.479,53,23.74,53,24s-0.11,0.52-0.29,0.71C52.52,24.89,52.27,25,52,25z"/>
<path style="fill:#38454F;" d="M52,31c-0.26,0-0.521-0.101-0.71-0.29C51.109,30.52,51,30.26,51,30c0-0.271,0.109-0.53,0.29-0.71
	c0.38-0.37,1.05-0.37,1.42,0C52.89,29.479,53,29.729,53,30c0,0.26-0.11,0.52-0.29,0.71C52.52,30.89,52.26,31,52,31z"/>
<path style="fill:#38454F;" d="M49,28c-0.26,0-0.521-0.11-0.71-0.29C48.1,27.52,48,27.26,48,27s0.109-0.521,0.29-0.71
	c0.37-0.37,1.04-0.37,1.42,0C49.89,26.479,50,26.729,50,27c0,0.26-0.11,0.52-0.29,0.71C49.52,27.899,49.26,28,49,28z"/>
<path style="fill:#38454F;" d="M55,28c-0.26,0-0.521-0.11-0.71-0.29C54.1,27.52,54,27.27,54,27c0-0.271,0.109-0.521,0.29-0.71
	c0.37-0.37,1.04-0.37,1.42,0C55.89,26.479,56,26.729,56,27c0,0.26-0.11,0.52-0.29,0.71C55.52,27.89,55.26,28,55,28z"/>
<path style="fill:#38454F;" d="M9,36c-0.26,0-0.521-0.11-0.71-0.29C8.109,35.52,8,35.26,8,35s0.109-0.521,0.29-0.71
	c0.38-0.37,1.04-0.37,1.42,0C9.899,34.479,10,34.729,10,35c0,0.26-0.11,0.52-0.29,0.71C9.52,35.89,9.26,36,9,36z"/>
<path style="fill:#546A79;" d="M1.919,18H7l3-4H6c0,0-0.331,0-0.5,0C4.131,14,2.881,15.597,1.919,18z"/>
<path style="fill:#546A79;" d="M56.081,18c-0.963-2.403-2.212-4-3.581-4c-0.169,0-0.5,0-0.5,0h-4l3,4H56.081z"/>
<path style="fill:#546A79;" d="M56.081,40H51l-3,4h4c0,0,0.331,0,0.5,0C53.869,44,55.119,42.403,56.081,40z"/>
<path style="fill:#546A79;" d="M1.919,40c0.963,2.403,2.212,4,3.581,4C5.669,44,6,44,6,44h4l-3-4H1.919z"/>
<g>
	<path style="fill:#869BDB;" d="M16,23c0.256,0,0.512-0.098,0.707-0.293l4-4c0.391-0.391,0.391-1.023,0-1.414s-1.023-0.391-1.414,0
		l-4,4c-0.391,0.391-0.391,1.023,0,1.414C15.488,22.902,15.744,23,16,23z"/>
	<path style="fill:#869BDB;" d="M17.293,24.293l-2,2c-0.391,0.391-0.391,1.023,0,1.414C15.488,27.902,15.744,28,16,28
		s0.512-0.098,0.707-0.293l2-2c0.391-0.391,0.391-1.023,0-1.414S17.684,23.902,17.293,24.293z"/>
	<path style="fill:#869BDB;" d="M19.29,22.29C19.1,22.479,19,22.74,19,23s0.1,0.52,0.29,0.71C19.479,23.89,19.74,24,20,24
		s0.52-0.11,0.71-0.29C20.89,23.52,21,23.26,21,23s-0.11-0.521-0.29-0.71C20.33,21.92,19.67,21.92,19.29,22.29z"/>
	<path style="fill:#869BDB;" d="M25.707,17.293c-0.391-0.391-1.023-0.391-1.414,0l-3,3c-0.391,0.391-0.391,1.023,0,1.414
		C21.488,21.902,21.744,22,22,22s0.512-0.098,0.707-0.293l3-3C26.098,18.316,26.098,17.684,25.707,17.293z"/>
</g>
<g>
</g>
<g>
</g>
<g>
</g>
<g>
</g>
<g>
</g>
<g>
</g>
<g>
</g>
<g>
</g>
<g>
</g>
<g>
</g>
<g>
</g>
<g>
</g>
<g>
</g>
<g>
</g>
<g>
</g>
</svg>
