<?xml version="1.0" encoding="iso-8859-1"?>
<!-- Generator: Adobe Illustrator 19.0.0, SVG Export Plug-In . SVG Version: 6.00 Build 0)  -->
<svg version="1.1" id="Capa_1" xmlns="http://www.w3.org/2000/svg" xmlns:xlink="http://www.w3.org/1999/xlink" x="0px" y="0px"
	 viewBox="0 0 59 59" style="enable-background:new 0 0 59 59;" xml:space="preserve">
<path style="fill:none;stroke:#AFB6BB;stroke-width:2;stroke-miterlimit:10;" d="M40.964,46c0,4.142-3.358,7.5-7.5,7.5
	s-7.5-3.358-7.5-7.5v-2c0-4.418,3.582-8,8-8"/>
<path style="fill:none;stroke:#AFB6BB;stroke-width:2;stroke-miterlimit:10;" d="M17.964,30v15v-0.5c0,7.456,6.044,13.5,13.5,13.5
	s13.5-6.044,13.5-13.5c0-0.855-0.089-1.689-0.241-2.5"/>
<path style="fill:#E0E1E2;" d="M17.964,31.972L17.964,31.972c-1.719,0-3.173-1.27-3.405-2.972l-3.243-16.289
	c-0.327-1.644-0.394-3.343-0.053-4.984C12.221,3.1,15.319,2,17.964,2h0h0c2.645,0,5.743,1.1,6.702,5.726
	c0.34,1.641,0.274,3.341-0.053,4.984L21.369,29C21.137,30.703,19.682,31.972,17.964,31.972L17.964,31.972z"/>
<circle style="fill:#FFFFFF;stroke:#AFB6BB;stroke-width:2;stroke-miterlimit:10;" cx="17.964" cy="10" r="4"/>
<path style="fill:#CBD4D8;" d="M45.364,42h-8.801c-1.436,0-2.6-1.164-2.6-2.6V2.6c0-1.436,1.164-2.6,2.6-2.6h8.801
	c1.436,0,2.6,1.164,2.6,2.6V39.4C47.964,40.836,46.8,42,45.364,42z"/>
<rect x="37.964" y="42" style="fill:#E0E1E2;" width="6" height="4"/>
<rect x="39.964" y="4" style="fill:#FFFFFF;" width="2" height="8"/>
<rect x="36.964" y="7" style="fill:#FFFFFF;" width="8" height="2"/>
<circle style="fill:#FFFFFF;" cx="40.964" cy="18" r="2"/>
<circle style="fill:#FFFFFF;" cx="40.964" cy="27" r="2"/>
<circle style="fill:#FFFFFF;" cx="40.964" cy="36" r="2"/>
<g>
</g>
<g>
</g>
<g>
</g>
<g>
</g>
<g>
</g>
<g>
</g>
<g>
</g>
<g>
</g>
<g>
</g>
<g>
</g>
<g>
</g>
<g>
</g>
<g>
</g>
<g>
</g>
<g>
</g>
</svg>
