<?xml version="1.0" encoding="iso-8859-1"?>
<!-- Generator: Adobe Illustrator 19.0.0, SVG Export Plug-In . SVG Version: 6.00 Build 0)  -->
<svg version="1.1" id="Capa_1" xmlns="http://www.w3.org/2000/svg" xmlns:xlink="http://www.w3.org/1999/xlink" x="0px" y="0px"
	 viewBox="0 0 54 54" style="enable-background:new 0 0 54 54;" xml:space="preserve">
<path style="fill:#283238;" d="M2.818,27C1.071,29.39,0,32.537,0,36c0,7.456,4.925,13.5,11,13.5h32c6.075,0,11-6.044,11-13.5
	c0-3.463-1.071-6.61-2.818-9"/>
<circle style="fill:#283238;" cx="12" cy="40.5" r="6"/>
<path style="fill:#546A79;" d="M12,47.5c-3.86,0-7-3.141-7-7s3.14-7,7-7s7,3.141,7,7S15.86,47.5,12,47.5z M12,35.5
	c-2.757,0-5,2.243-5,5s2.243,5,5,5s5-2.243,5-5S14.757,35.5,12,35.5z"/>
<circle style="fill:#283238;" cx="43" cy="40.5" r="6"/>
<path style="fill:#546A79;" d="M43,47.5c-3.86,0-7-3.141-7-7s3.14-7,7-7c3.859,0,7,3.141,7,7S46.859,47.5,43,47.5z M43,35.5
	c-2.757,0-5,2.243-5,5s2.243,5,5,5s5-2.243,5-5S45.757,35.5,43,35.5z"/>
<circle style="fill:#38454F;" cx="23.5" cy="44" r="2.5"/>
<circle style="fill:#38454F;" cx="31.5" cy="44" r="2.5"/>
<path style="fill:#546A79;" d="M15,39.5h-2v-2c0-0.553-0.448-1-1-1s-1,0.447-1,1v2H9c-0.552,0-1,0.447-1,1s0.448,1,1,1h2v2
	c0,0.553,0.448,1,1,1s1-0.447,1-1v-2h2c0.552,0,1-0.447,1-1S15.552,39.5,15,39.5z"/>
<g>
	<path style="fill:#546A79;" d="M40,39c-0.552,0-1,0.447-1,1v1c0,0.553,0.448,1,1,1s1-0.447,1-1v-1C41,39.447,40.552,39,40,39z"/>
	<path style="fill:#546A79;" d="M46,39c-0.553,0-1,0.447-1,1v1c0,0.553,0.447,1,1,1s1-0.447,1-1v-1C47,39.447,46.553,39,46,39z"/>
	<path style="fill:#546A79;" d="M43,36c-0.552,0-1,0.447-1,1v1c0,0.553,0.448,1,1,1s1-0.447,1-1v-1C44,36.447,43.552,36,43,36z"/>
	<path style="fill:#546A79;" d="M43,42c-0.552,0-1,0.447-1,1v1c0,0.553,0.448,1,1,1s1-0.447,1-1v-1C44,42.447,43.552,42,43,42z"/>
</g>
<path style="fill:#38454F;" d="M43,4.5c6.075,0,11,6.044,11,13.5s-4.925,13.5-11,13.5H11C4.925,31.5,0,25.456,0,18S4.925,4.5,11,4.5
	H43z"/>
<path style="fill:#7383BF;" d="M33.5,31.5h-13C13.075,31.5,7,25.425,7,18v0c0-7.425,6.075-13.5,13.5-13.5h13
	C40.925,4.5,47,10.575,47,18v0C47,25.425,40.925,31.5,33.5,31.5z"/>
<g>
	<path style="fill:#ACBAE5;" d="M14,15.305c0.256,0,0.512-0.098,0.707-0.293l4-4c0.391-0.391,0.391-1.023,0-1.414
		s-1.023-0.391-1.414,0l-4,4c-0.391,0.391-0.391,1.023,0,1.414C13.488,15.207,13.744,15.305,14,15.305z"/>
	<path style="fill:#ACBAE5;" d="M15.293,16.598l-2,2c-0.391,0.391-0.391,1.023,0,1.414c0.195,0.195,0.451,0.293,0.707,0.293
		s0.512-0.098,0.707-0.293l2-2c0.391-0.391,0.391-1.023,0-1.414S15.684,16.207,15.293,16.598z"/>
	<path style="fill:#ACBAE5;" d="M17.29,14.595c-0.18,0.189-0.29,0.439-0.29,0.71c0,0.26,0.11,0.52,0.29,0.71
		c0.19,0.18,0.45,0.29,0.71,0.29c0.26,0,0.52-0.11,0.71-0.29c0.18-0.19,0.29-0.45,0.29-0.71s-0.11-0.521-0.29-0.71
		C18.34,14.225,17.66,14.225,17.29,14.595z"/>
	<path style="fill:#ACBAE5;" d="M23.707,9.598c-0.391-0.391-1.023-0.391-1.414,0l-3,3c-0.391,0.391-0.391,1.023,0,1.414
		c0.195,0.195,0.451,0.293,0.707,0.293s0.512-0.098,0.707-0.293l3-3C24.098,10.621,24.098,9.988,23.707,9.598z"/>
</g>
<g>
</g>
<g>
</g>
<g>
</g>
<g>
</g>
<g>
</g>
<g>
</g>
<g>
</g>
<g>
</g>
<g>
</g>
<g>
</g>
<g>
</g>
<g>
</g>
<g>
</g>
<g>
</g>
<g>
</g>
</svg>
