<?xml version="1.0" encoding="iso-8859-1"?>
<!-- Generator: Adobe Illustrator 19.0.0, SVG Export Plug-In . SVG Version: 6.00 Build 0)  -->
<svg version="1.1" id="Capa_1" xmlns="http://www.w3.org/2000/svg" xmlns:xlink="http://www.w3.org/1999/xlink" x="0px" y="0px"
	 viewBox="0 0 53 53" style="enable-background:new 0 0 53 53;" xml:space="preserve">
<path style="fill:#E0E1E2;" d="M27,40.5h11c0.552,0,1,0.448,1,1l0,0c0,0.552,0.448,1,1,1h12c0.552,0,1-0.448,1-1v-38
	c0-0.552-0.448-1-1-1H39c-0.552,0-1,0.448-1,1v0c0,0.552-0.448,1-1,1H26H16c-0.552,0-1-0.448-1-1v0c0-0.552-0.448-1-1-1H1
	c-0.552,0-1,0.448-1,1v38c0,0.552,0.448,1,1,1h12c0.552,0,1-0.448,1-1l0,0c0-0.552,0.448-1,1-1H27z"/>
<circle style="fill:#AFB6BB;" cx="26.5" cy="22" r="17.5"/>
<circle style="fill:#AFB6BB;" cx="7" cy="35.5" r="3"/>
<circle style="fill:#AFB6BB;" cx="46" cy="35.5" r="3"/>
<circle style="fill:#AFB6BB;" cx="4.5" cy="28" r="1.5"/>
<path style="fill:#D75A4A;" d="M31,14.5h-9c-0.553,0-1-0.447-1-1s0.447-1,1-1h9c0.553,0,1,0.447,1,1S31.553,14.5,31,14.5z"/>
<path style="fill:#AFB6BB;" d="M52,42.5H40c-0.552,0-1-0.448-1-1s-0.448-1-1-1H27H15c-0.552,0-1,0.448-1,1s-0.448,1-1,1H1
	c-0.552,0-1-0.448-1-1v8c0,0.552,0.448,1,1,1h12c0.552,0,1-0.448,1-1s0.448-1,1-1h12h11c0.552,0,1,0.448,1,1s0.448,1,1,1h12
	c0.552,0,1-0.448,1-1v-8C53,42.052,52.552,42.5,52,42.5z"/>
<path style="fill:#E6E6E6;" d="M23,45.5h-5c-0.553,0-1-0.447-1-1s0.447-1,1-1h5c0.553,0,1,0.447,1,1S23.553,45.5,23,45.5z"/>
<path style="fill:#E6E6E6;" d="M34,45.5h-5c-0.553,0-1-0.447-1-1s0.447-1,1-1h5c0.553,0,1,0.447,1,1S34.553,45.5,34,45.5z"/>
<g>
</g>
<g>
</g>
<g>
</g>
<g>
</g>
<g>
</g>
<g>
</g>
<g>
</g>
<g>
</g>
<g>
</g>
<g>
</g>
<g>
</g>
<g>
</g>
<g>
</g>
<g>
</g>
<g>
</g>
</svg>
