<?xml version="1.0" encoding="iso-8859-1"?>
<!-- Generator: Adobe Illustrator 19.0.0, SVG Export Plug-In . SVG Version: 6.00 Build 0)  -->
<svg version="1.1" id="Capa_1" xmlns="http://www.w3.org/2000/svg" xmlns:xlink="http://www.w3.org/1999/xlink" x="0px" y="0px"
	 viewBox="0 0 58 58" style="enable-background:new 0 0 58 58;" xml:space="preserve">
<path style="fill:#E0E1E2;" d="M50.312,50H7.688C3.442,50,0,46.558,0,42.312V15.688C0,11.442,3.442,8,7.688,8h42.625
	C54.558,8,58,11.442,58,15.688v26.625C58,46.558,54.558,50,50.312,50z"/>
<path style="fill:#38454F;" d="M44.328,42H13.672C12.748,42,12,41.252,12,40.328V17.672C12,16.748,12.748,16,13.672,16h30.657
	C45.252,16,46,16.748,46,17.672v22.657C46,41.252,45.252,42,44.328,42z"/>
<circle style="fill:#9CA8AD;" cx="6" cy="20" r="3"/>
<circle style="fill:#9CA8AD;" cx="52" cy="20" r="3"/>
<circle style="fill:#AFB6BB;" cx="29" cy="46" r="1"/>
<circle style="fill:#AFB6BB;" cx="33" cy="46" r="1"/>
<circle style="fill:#AFB6BB;" cx="46" cy="46" r="1"/>
<circle style="fill:#AFB6BB;" cx="52" cy="28" r="1"/>
<circle style="fill:#AFB6BB;" cx="52" cy="34" r="1"/>
<circle style="fill:#AFB6BB;" cx="55" cy="31" r="1"/>
<circle style="fill:#AFB6BB;" cx="49" cy="31" r="1"/>
<circle style="fill:#AFB6BB;" cx="50" cy="46" r="1"/>
<circle style="fill:#AFB6BB;" cx="25" cy="46" r="1"/>
<path style="fill:#AFB6BB;" d="M9,47H7c-0.553,0-1-0.447-1-1s0.447-1,1-1h2c0.553,0,1,0.447,1,1S9.553,47,9,47z"/>
<path style="fill:#AFB6BB;" d="M6,35c-0.553,0-1-0.447-1-1v-6c0-0.553,0.447-1,1-1s1,0.447,1,1v6C7,34.553,6.553,35,6,35z"/>
<path style="fill:#AFB6BB;" d="M9,32H3c-0.553,0-1-0.447-1-1s0.447-1,1-1h6c0.553,0,1,0.447,1,1S9.553,32,9,32z"/>
<path style="fill:#38454F;" d="M33,13h-8c-0.553,0-1-0.447-1-1s0.447-1,1-1h8c0.553,0,1,0.447,1,1S33.553,13,33,13z"/>
<g>
	<path style="fill:#283238;" d="M15,24c0.256,0,0.512-0.098,0.707-0.293l4-4c0.391-0.391,0.391-1.023,0-1.414s-1.023-0.391-1.414,0
		l-4,4c-0.391,0.391-0.391,1.023,0,1.414C14.488,23.902,14.744,24,15,24z"/>
	<path style="fill:#283238;" d="M16.293,25.293l-2,2c-0.391,0.391-0.391,1.023,0,1.414C14.488,28.902,14.744,29,15,29
		s0.512-0.098,0.707-0.293l2-2c0.391-0.391,0.391-1.023,0-1.414S16.684,24.902,16.293,25.293z"/>
	<path style="fill:#283238;" d="M18.29,23.29C18.109,23.479,18,23.729,18,24c0,0.26,0.109,0.52,0.29,0.71
		C18.479,24.89,18.74,25,19,25s0.52-0.11,0.71-0.29C19.89,24.52,20,24.26,20,24s-0.11-0.521-0.29-0.71
		C19.33,22.92,18.66,22.92,18.29,23.29z"/>
	<path style="fill:#283238;" d="M24.707,18.293c-0.391-0.391-1.023-0.391-1.414,0l-3,3c-0.391,0.391-0.391,1.023,0,1.414
		C20.488,22.902,20.744,23,21,23s0.512-0.098,0.707-0.293l3-3C25.098,19.316,25.098,18.684,24.707,18.293z"/>
</g>
<g>
</g>
<g>
</g>
<g>
</g>
<g>
</g>
<g>
</g>
<g>
</g>
<g>
</g>
<g>
</g>
<g>
</g>
<g>
</g>
<g>
</g>
<g>
</g>
<g>
</g>
<g>
</g>
<g>
</g>
</svg>
