<?xml version="1.0" encoding="iso-8859-1"?>
<!-- Generator: Adobe Illustrator 19.0.0, SVG Export Plug-In . SVG Version: 6.00 Build 0)  -->
<svg version="1.1" id="Capa_1" xmlns="http://www.w3.org/2000/svg" xmlns:xlink="http://www.w3.org/1999/xlink" x="0px" y="0px"
	 viewBox="0 0 56 56" style="enable-background:new 0 0 56 56;" xml:space="preserve">
<path style="fill:#E7ECED;" d="M49.104,56H6.896C5.849,56,5,55.151,5,54.104V1.896C5,0.849,5.849,0,6.896,0h42.209
	C50.151,0,51,0.849,51,1.896v52.209C51,55.151,50.151,56,49.104,56z"/>
<circle style="fill:#38454F;" cx="14" cy="47" r="3"/>
<circle style="fill:#25AE88;" cx="21" cy="47" r="2"/>
<circle style="fill:#ED7161;" cx="26" cy="47" r="2"/>
<rect x="11" y="6" style="fill:#E6E6E6;stroke:#AFB6BB;stroke-width:2;stroke-miterlimit:10;" width="34" height="8"/>
<rect x="11" y="14" style="fill:#E6E6E6;stroke:#AFB6BB;stroke-width:2;stroke-miterlimit:10;" width="34" height="8"/>
<rect x="11" y="22" style="fill:#E6E6E6;stroke:#AFB6BB;stroke-width:2;stroke-miterlimit:10;" width="34" height="8"/>
<rect x="11" y="30" style="fill:#E6E6E6;stroke:#AFB6BB;stroke-width:2;stroke-miterlimit:10;" width="34" height="8"/>
<rect x="44" y="44" style="fill:#CBD4D8;" width="2" height="6"/>
<rect x="41" y="44" style="fill:#CBD4D8;" width="2" height="6"/>
<rect x="38" y="44" style="fill:#CBD4D8;" width="2" height="6"/>
<rect x="35" y="44" style="fill:#CBD4D8;" width="2" height="6"/>
<g>
</g>
<g>
</g>
<g>
</g>
<g>
</g>
<g>
</g>
<g>
</g>
<g>
</g>
<g>
</g>
<g>
</g>
<g>
</g>
<g>
</g>
<g>
</g>
<g>
</g>
<g>
</g>
<g>
</g>
</svg>
