<?xml version="1.0" encoding="iso-8859-1"?>
<!-- Generator: Adobe Illustrator 19.0.0, SVG Export Plug-In . SVG Version: 6.00 Build 0)  -->
<svg version="1.1" id="Capa_1" xmlns="http://www.w3.org/2000/svg" xmlns:xlink="http://www.w3.org/1999/xlink" x="0px" y="0px"
	 viewBox="0 0 58 58" style="enable-background:new 0 0 58 58;" xml:space="preserve">
<path style="fill:#CBD4D8;" d="M29.882,40.351c10.528-0.141,15.786,5.94,17.753,8.534c1.123,1.481,2.376,2.819,3.807,3.849
	c11.412,8.217,4.92-16.78,2.746-32.455C51.85,3.435,43.592,8.301,43.592,8.301C36.348,12.98,31,12.351,31,12.351h-4
	c0,0-5.348,0.629-12.592-4.05c0,0-8.258-4.866-10.595,11.979C1.638,35.955-4.854,60.952,6.559,52.735
	c1.43-1.03,2.684-2.368,3.807-3.849c1.967-2.595,7.225-8.675,17.753-8.534H29.882z"/>
<path style="fill:#E0E1E2;" d="M43.592,8.301c0,0,2.057-1.211,4.408-0.332V5.531c0-1.04-0.843-1.882-1.883-1.882h-2.235
	C42.843,3.649,42,4.491,42,5.531v3.727C42.521,8.964,43.049,8.652,43.592,8.301z"/>
<path style="fill:#E0E1E2;" d="M14.408,8.301C14.951,8.652,15.479,8.964,16,9.258V5.531c0-1.04-0.843-1.882-1.883-1.882h-2.235
	C10.843,3.649,10,4.491,10,5.531v2.438C12.351,7.09,14.408,8.301,14.408,8.301z"/>
<polygon style="fill:#FFFFFF;" points="20,30.649 17,30.649 17,27.649 12,27.649 12,30.649 9,30.649 9,35.649 12,35.649 12,38.649 
	17,38.649 17,35.649 20,35.649 "/>
<circle style="fill:#FFFFFF;" cx="44.5" cy="29.149" r="2.5"/>
<circle style="fill:#FFFFFF;" cx="44.5" cy="39.149" r="2.5"/>
<circle style="fill:#FFFFFF;" cx="38.5" cy="34.149" r="2.5"/>
<circle style="fill:#AFB6BB;" cx="25" cy="19.649" r="1"/>
<circle style="fill:#AFB6BB;" cx="29" cy="19.649" r="1"/>
<circle style="fill:#D75A4A;" cx="29" cy="34.649" r="1"/>
<circle style="fill:#AFB6BB;" cx="33" cy="19.649" r="1"/>
<circle style="fill:#FFFFFF;" cx="50.5" cy="34.149" r="2.5"/>
<circle style="fill:#E6E6E6;" cx="14" cy="17.649" r="5"/>
<circle style="fill:#E6E6E6;" cx="44" cy="17.649" r="5"/>
<g>
</g>
<g>
</g>
<g>
</g>
<g>
</g>
<g>
</g>
<g>
</g>
<g>
</g>
<g>
</g>
<g>
</g>
<g>
</g>
<g>
</g>
<g>
</g>
<g>
</g>
<g>
</g>
<g>
</g>
</svg>
