<?xml version="1.0" encoding="iso-8859-1"?>
<!-- Generator: Adobe Illustrator 19.0.0, SVG Export Plug-In . SVG Version: 6.00 Build 0)  -->
<svg version="1.1" id="Capa_1" xmlns="http://www.w3.org/2000/svg" xmlns:xlink="http://www.w3.org/1999/xlink" x="0px" y="0px"
	 viewBox="0 0 58 58" style="enable-background:new 0 0 58 58;" xml:space="preserve">
<path style="fill:none;stroke:#38454F;stroke-width:2;stroke-linecap:round;stroke-miterlimit:10;" d="M19,31V13.5
	c0-2.475,2.025-4.5,4.5-4.5h0c2.475,0,4.5,2.025,4.5,4.5V20c0,2.2,1.8,4,4,4h0c2.2,0,4-1.8,4-4V1"/>
<path style="fill:#546A79;" d="M54.016,58H3.984C2.336,58,1,56.664,1,55.016V31.984C1,30.336,2.336,29,3.984,29h50.032
	C55.664,29,57,30.336,57,31.984v23.032C57,56.664,55.664,58,54.016,58z"/>
<polygon style="fill:#38454F;stroke:#CBD4D8;stroke-width:2;stroke-miterlimit:10;" points="17,41 14,41 14,38 9,38 9,41 6,41 6,46 
	9,46 9,49 14,49 14,46 17,46 "/>
<rect x="41" y="46" style="fill:#DD352E;stroke:#CBD4D8;stroke-width:2;stroke-miterlimit:10;" width="4" height="4"/>
<rect x="49" y="46" style="fill:#DD352E;stroke:#CBD4D8;stroke-width:2;stroke-miterlimit:10;" width="4" height="4"/>
<rect x="21" y="45" style="fill:#FFFFFF;" width="16" height="5"/>
<line style="fill:none;stroke:#CBD4D8;stroke-width:2;stroke-miterlimit:10;" x1="21" y1="54" x2="37" y2="54"/>
<line style="fill:none;stroke:#CBD4D8;stroke-width:2;stroke-miterlimit:10;" x1="21" y1="41" x2="37" y2="41"/>
<line style="fill:none;stroke:#CBD4D8;stroke-width:2;stroke-miterlimit:10;" x1="21" y1="37" x2="37" y2="37"/>
<line style="fill:none;stroke:#CBD4D8;stroke-width:2;stroke-miterlimit:10;" x1="21" y1="33" x2="37" y2="33"/>
<g>
</g>
<g>
</g>
<g>
</g>
<g>
</g>
<g>
</g>
<g>
</g>
<g>
</g>
<g>
</g>
<g>
</g>
<g>
</g>
<g>
</g>
<g>
</g>
<g>
</g>
<g>
</g>
<g>
</g>
</svg>
