<?xml version="1.0" encoding="iso-8859-1"?>
<!-- Generator: Adobe Illustrator 19.0.0, SVG Export Plug-In . SVG Version: 6.00 Build 0)  -->
<svg version="1.1" id="Capa_1" xmlns="http://www.w3.org/2000/svg" xmlns:xlink="http://www.w3.org/1999/xlink" x="0px" y="0px"
	 viewBox="0 0 58 58" style="enable-background:new 0 0 58 58;" xml:space="preserve">
<polygon style="fill:#38454F;" points="58,51.034 0,51.034 1,44.034 57,44.034 "/>
<polygon style="fill:#283238;" points="5,40.034 53,40.034 57,44.034 1,44.034 "/>
<rect x="16" y="44.034" style="fill:#546A79;" width="2" height="7"/>
<g>
	<path style="fill:#283238;" d="M48,29.034h-8.273c0.476,1.338,1.045,2.922,1.045,2.922c0.185,0.344,0.305,0.708,0.365,1.078H57
		L48,29.034z"/>
	<path style="fill:#283238;" d="M32.57,32.888c-1.506-1.728-1.186-1.025-3.038-2.375c-0.377-0.275-0.973-0.847-1.545-1.479H10l-9,4
		h31.697L32.57,32.888z"/>
</g>
<path style="fill:#38454F;" d="M57,33.034H41.137c0.175,1.072-0.162,2.191-0.962,2.991h0c-1.345,1.345-3.527,1.345-4.872,0
	l-2.606-2.991H1l-1,7h58L57,33.034z"/>
<path style="fill:#283238;" d="M45,38.034c-0.553,0-1-0.447-1-1v-1c0-0.553,0.447-1,1-1s1,0.447,1,1v1
	C46,37.587,45.553,38.034,45,38.034z"/>
<path style="fill:#283238;" d="M48,38.034c-0.553,0-1-0.447-1-1v-1c0-0.553,0.447-1,1-1s1,0.447,1,1v1
	C49,37.587,48.553,38.034,48,38.034z"/>
<path style="fill:#283238;" d="M51,38.034c-0.553,0-1-0.447-1-1v-1c0-0.553,0.447-1,1-1s1,0.447,1,1v1
	C52,37.587,51.553,38.034,51,38.034z"/>
<path style="fill:#38454F;" d="M22.414,29.034h-2.828l-3.293,3.293C16.105,32.514,16,32.768,16,33.034h2.414L22.414,29.034z"/>
<polygon style="fill:#546A79;" points="16,33.034 16,40.034 18,40.034 18,33.448 18.414,33.034 "/>
<path style="fill:#546A79;" d="M46.082,7.485c-2.254-1.056-4.928-0.444-6.664,1.34c-0.291,0.299-0.563,0.724-0.801,1.177
	c-1.032,1.96-2.351,3.755-3.917,5.321l0,0c-1.555,1.555-3.345,2.846-5.28,3.89c-0.554,0.299-1.074,0.697-1.56,1.17
	c-1.786,1.737-2.4,4.415-1.341,6.671c0.481,1.025,2.225,2.887,3.012,3.46c1.852,1.35,1.532,0.647,3.038,2.375l2.733,3.137
	c1.345,1.345,3.527,1.345,4.872,0l0,0c1.076-1.076,1.318-2.73,0.597-4.069c0,0-1.72-4.787-1.68-4.747l7.177-7.177l4.72,1.707
	c1.339,0.721,2.993,0.478,4.069-0.597l0,0c1.345-1.345,1.345-3.527,0-4.872c0,0-1.537-1.34-3.136-2.733
	c-1.728-1.506-1.026-1.186-2.376-3.038C48.972,9.711,47.108,7.966,46.082,7.485z"/>
<circle style="fill:#38454F;" cx="44.162" cy="13.652" r="3"/>
<circle style="fill:#38454F;" cx="32.765" cy="25.05" r="3"/>
<path style="fill:#38454F;" d="M36.384,21.016c-0.256,0-0.512-0.098-0.707-0.293c-0.391-0.391-0.391-1.023,0-1.414l2.829-2.828
	c0.391-0.391,1.023-0.391,1.414,0s0.391,1.023,0,1.414l-2.829,2.828C36.896,20.919,36.64,21.016,36.384,21.016z"/>
<path style="fill:#38454F;" d="M36.384,21.016c-0.256,0-0.512-0.098-0.707-0.293l-0.707-0.707c-0.391-0.391-0.391-1.023,0-1.414
	s1.023-0.391,1.414,0l0.707,0.707c0.391,0.391,0.391,1.023,0,1.414C36.896,20.919,36.64,21.016,36.384,21.016z"/>
<path style="fill:#38454F;" d="M39.213,18.188c-0.256,0-0.512-0.098-0.707-0.293l-0.707-0.707c-0.391-0.391-0.391-1.023,0-1.414
	c0.391-0.391,1.023-0.391,1.414,0l0.707,0.707c0.391,0.391,0.391,1.023,0,1.414C39.725,18.09,39.469,18.188,39.213,18.188z"/>
<g>
</g>
<g>
</g>
<g>
</g>
<g>
</g>
<g>
</g>
<g>
</g>
<g>
</g>
<g>
</g>
<g>
</g>
<g>
</g>
<g>
</g>
<g>
</g>
<g>
</g>
<g>
</g>
<g>
</g>
</svg>
