<?xml version="1.0" encoding="iso-8859-1"?>
<!-- Generator: Adobe Illustrator 19.0.0, SVG Export Plug-In . SVG Version: 6.00 Build 0)  -->
<svg version="1.1" id="Capa_1" xmlns="http://www.w3.org/2000/svg" xmlns:xlink="http://www.w3.org/1999/xlink" x="0px" y="0px"
	 viewBox="0 0 57.108 57.108" style="enable-background:new 0 0 57.108 57.108;" xml:space="preserve">
<polygon style="fill:#283238;" points="14,52.206 2.108,52.206 2.108,1.206 14,0.206 "/>
<polygon style="fill:#283238;" points="16,56.206 0,56.206 2,52.206 14,52.206 "/>
<g>
	<path style="fill:#38454F;" d="M28.201,48.611c0.157-2.287-0.114-1.563-0.468-3.828c-0.151-0.962-0.067-3.512,0.317-4.577
		c0.846-2.344,3.174-3.804,5.665-3.769c0.678,0.009,1.327,0.095,1.93,0.276c2.107,0.63,4.285,0.983,6.484,0.983
		c0.626,0,1.249-0.034,1.979-0.087V6.206L14,0.206v52h13.954L28.201,48.611z"/>
	<path style="fill:#38454F;" d="M35.937,49.206c0-0.035-0.809,1.669-1.439,3h8.61v-3H35.937z"/>
</g>
<polygon style="fill:#38454F;" points="44,52.206 27.954,52.206 25.137,52.206 14,52.206 16,56.206 21.108,56.206 31.361,56.206 
	46,56.206 "/>
<rect x="14.108" y="20.206" style="fill:#283238;" width="30" height="2"/>
<polygon style="fill:#38454F;" points="14.108,20.206 9,20.206 9,0.627 7,0.795 7,20.206 2.108,20.206 2.108,22.206 7,22.206 
	7,52.206 9,52.206 9,22.206 14.108,22.206 "/>
<path style="fill:#283238;" d="M56.691,39.772c-0.907-2.505-3.394-4.066-6.058-4.03c-0.447,0.006-0.974,0.122-1.496,0.285
	c-2.264,0.702-4.621,1.063-6.991,1.063h0c-2.354,0-4.685-0.378-6.94-1.052c-0.645-0.193-1.34-0.285-2.066-0.295
	c-2.667-0.037-5.158,1.525-6.064,4.034c-0.412,1.139-0.501,3.869-0.339,4.898c0.38,2.424,0.669,1.65,0.501,4.097l-0.305,4.442
	c0,2.036,1.651,3.687,3.687,3.687h0c1.628,0,3.064-1.068,3.532-2.628c0,0,2.321-4.925,2.321-4.864h10.863l2.28,4.864
	c0.468,1.56,1.903,2.628,3.532,2.628h0c2.036,0,3.687-1.651,3.687-3.687c0,0-0.15-2.177-0.305-4.441
	c-0.168-2.447,0.121-1.674,0.501-4.098C57.194,43.644,57.104,40.913,56.691,39.772z"/>
<circle style="fill:#38454F;" cx="50" cy="43.206" r="3"/>
<circle style="fill:#38454F;" cx="33.881" cy="43.206" r="3"/>
<path style="fill:#38454F;" d="M44,40.206c-0.553,0-1,0.447-1,1h-2c0-0.553-0.447-1-1-1s-1,0.447-1,1v1c0,0.553,0.447,1,1,1h4
	c0.553,0,1-0.447,1-1v-1C45,40.654,44.553,40.206,44,40.206z"/>
<g>
</g>
<g>
</g>
<g>
</g>
<g>
</g>
<g>
</g>
<g>
</g>
<g>
</g>
<g>
</g>
<g>
</g>
<g>
</g>
<g>
</g>
<g>
</g>
<g>
</g>
<g>
</g>
<g>
</g>
</svg>
