<?xml version="1.0" encoding="iso-8859-1"?>
<!-- Generator: Adobe Illustrator 19.0.0, SVG Export Plug-In . SVG Version: 6.00 Build 0)  -->
<svg version="1.1" id="Capa_1" xmlns="http://www.w3.org/2000/svg" xmlns:xlink="http://www.w3.org/1999/xlink" x="0px" y="0px"
	 viewBox="0 0 58 58" style="enable-background:new 0 0 58 58;" xml:space="preserve">
<path style="fill:#283238;" d="M45.86,55.5c-1.321,0.022-5.527-1.934-9.442-2.999c-4.576-1.245-10.26-1.24-14.837,0
	c-3.945,1.069-7.623,3.022-9.442,2.999C5.212,55.412,0,48.531,0,41.493v0c0-7.704,6.557-14.642,14.347-14.992h29.674
	C51.811,26.851,58,33.79,58,41.493v0C58,48.531,52.787,55.384,45.86,55.5z"/>
<polygon style="fill:#38454F;" points="18,38.5 15,38.5 15,35.5 10,35.5 10,38.5 7,38.5 7,43.5 10,43.5 10,46.5 15,46.5 15,43.5 
	18,43.5 "/>
<line style="fill:none;stroke:#CBD4D8;stroke-width:2;stroke-linecap:round;stroke-linejoin:round;stroke-miterlimit:10;" x1="28" y1="45.5" x2="26" y2="47.5"/>
<line style="fill:none;stroke:#CBD4D8;stroke-width:2;stroke-linecap:round;stroke-linejoin:round;stroke-miterlimit:10;" x1="32" y1="45.5" x2="30" y2="47.5"/>
<path style="fill:none;stroke:#38454F;stroke-width:2;stroke-miterlimit:10;" d="M28,26.5V8c0-2.475,2.025-4.5,4.5-4.5h0
	C34.975,3.5,37,5.525,37,8v2.5c0,2.2,1.8,4,4,4h0c2.2,0,4-1.8,4-4v-8"/>
<circle style="fill:#38454F;" cx="43.5" cy="36" r="2.5"/>
<circle style="fill:#38454F;" cx="51.5" cy="39" r="2.5"/>
<circle style="fill:#38454F;" cx="37.5" cy="41" r="2.5"/>
<circle style="fill:#38454F;" cx="45.5" cy="44" r="2.5"/>
<line style="fill:none;stroke:#AFB6BB;stroke-width:2;stroke-linecap:round;stroke-linejoin:round;stroke-miterlimit:10;" x1="23" y1="31.501" x2="35" y2="31.501"/>
<g>
</g>
<g>
</g>
<g>
</g>
<g>
</g>
<g>
</g>
<g>
</g>
<g>
</g>
<g>
</g>
<g>
</g>
<g>
</g>
<g>
</g>
<g>
</g>
<g>
</g>
<g>
</g>
<g>
</g>
</svg>
