<?xml version="1.0" encoding="iso-8859-1"?>
<!-- Generator: Adobe Illustrator 19.0.0, SVG Export Plug-In . SVG Version: 6.00 Build 0)  -->
<svg version="1.1" id="Capa_1" xmlns="http://www.w3.org/2000/svg" xmlns:xlink="http://www.w3.org/1999/xlink" x="0px" y="0px"
	 viewBox="0 0 56 56" style="enable-background:new 0 0 56 56;" xml:space="preserve">
<path style="fill:#38454F;" d="M49.337,42H6.663C3.536,42,1,39.464,1,36.337V5.663C1,2.536,3.536,0,6.663,0h42.673
	C52.464,0,55,2.536,55,5.663v30.673C55,39.464,52.464,42,49.337,42z"/>
<path style="fill:#283238;" d="M49.337,42H6.663C3.536,42,1,39.464,1,36.337v14C1,53.464,3.536,56,6.663,56h42.673
	C52.464,56,55,53.464,55,50.337v-14C55,39.464,52.464,42,49.337,42z"/>
<ellipse style="fill:#546A79;" cx="28.5" cy="19" rx="17.5" ry="13"/>
<path style="fill:#283238;" d="M28.5,6c3.456,0,6.668,0.754,9.382,2.039L45.92,0h-36l8.426,8.426C21.211,6.904,24.71,6,28.5,6z"/>
<ellipse style="fill:#E0E1E2;" cx="47" cy="33.5" rx="4" ry="3.5"/>
<ellipse style="fill:#E0E1E2;" cx="9" cy="33.5" rx="4" ry="3.5"/>
<rect x="9" y="46" style="fill:#38454F;" width="38" height="10"/>
<rect x="14" y="50" style="fill:#546A79;" width="4" height="3"/>
<rect x="22" y="50" style="fill:#546A79;" width="4" height="3"/>
<rect x="30" y="50" style="fill:#546A79;" width="4" height="3"/>
<rect x="38" y="50" style="fill:#546A79;" width="4" height="3"/>
<g>
</g>
<g>
</g>
<g>
</g>
<g>
</g>
<g>
</g>
<g>
</g>
<g>
</g>
<g>
</g>
<g>
</g>
<g>
</g>
<g>
</g>
<g>
</g>
<g>
</g>
<g>
</g>
<g>
</g>
</svg>
