<?xml version="1.0" encoding="iso-8859-1"?>
<!-- Generator: Adobe Illustrator 19.0.0, SVG Export Plug-In . SVG Version: 6.00 Build 0)  -->
<svg version="1.1" id="Capa_1" xmlns="http://www.w3.org/2000/svg" xmlns:xlink="http://www.w3.org/1999/xlink" x="0px" y="0px"
	 viewBox="0 0 58 58" style="enable-background:new 0 0 58 58;" xml:space="preserve">
<path style="fill:#CBD4D8;" d="M46.5,3.731C46.5,1.671,44.83,0,42.769,0H15.231C13.17,0,11.5,1.671,11.5,3.731V27l1.311,1.311
	c0.933,0.933,0.933,2.446,0,3.379L11.5,33v20.635c0,2.411,1.954,4.365,4.365,4.365H39.5h2.635c2.411,0,4.365-1.954,4.365-4.365V51
	V33l-1.253-1.253c-0.965-0.965-0.965-2.529,0-3.493L46.5,27V3.731z"/>
<path style="fill:#E7ECED;" d="M13.487,30c0.07,0.447-0.148,1.161-0.677,1.689L11.5,33v20.635c0,2.411,1.954,4.365,4.365,4.365H39.5
	h2.635c2.411,0,4.365-1.954,4.365-4.365V51V33l-1.253-1.253c-0.544-0.544-0.77-1.279-0.7-1.747H13.487z"/>
<rect x="16.5" y="5" style="fill:#FFFFFF;" width="25" height="20"/>
<g>
	<path style="fill:#CBD4D8;" d="M27.21,51.71c0.18-0.19,0.29-0.44,0.29-0.71c0-0.26-0.11-0.521-0.29-0.71
		c-0.37-0.37-1.04-0.37-1.42,0c-0.18,0.189-0.29,0.45-0.29,0.71s0.11,0.52,0.29,0.71C25.98,51.89,26.24,52,26.5,52
		C26.77,52,27.02,51.89,27.21,51.71z"/>
	<path style="fill:#CBD4D8;" d="M30.21,50.29c-0.38-0.37-1.05-0.37-1.42,0c-0.18,0.189-0.29,0.45-0.29,0.71
		c0,0.27,0.11,0.52,0.29,0.71C28.98,51.89,29.23,52,29.5,52c0.26,0,0.52-0.11,0.71-0.29c0.18-0.19,0.29-0.45,0.29-0.71
		S30.389,50.479,30.21,50.29z"/>
	<path style="fill:#CBD4D8;" d="M33.21,50.29c-0.38-0.37-1.04-0.37-1.42,0c-0.18,0.189-0.29,0.45-0.29,0.71s0.11,0.52,0.29,0.71
		C31.98,51.89,32.24,52,32.5,52c0.26,0,0.52-0.11,0.71-0.29c0.18-0.19,0.29-0.45,0.29-0.71S33.389,50.479,33.21,50.29z"/>
	<path style="fill:#CBD4D8;" d="M30.79,53.29c-0.19,0.189-0.29,0.439-0.29,0.71c0,0.27,0.11,0.52,0.29,0.71
		C30.98,54.89,31.24,55,31.5,55c0.27,0,0.52-0.11,0.71-0.29c0.18-0.19,0.29-0.44,0.29-0.71c0-0.271-0.1-0.521-0.29-0.71
		C31.84,52.92,31.16,52.92,30.79,53.29z"/>
	<path style="fill:#CBD4D8;" d="M26.79,53.29c-0.18,0.189-0.29,0.45-0.29,0.71s0.11,0.52,0.29,0.71C26.98,54.89,27.24,55,27.5,55
		c0.26,0,0.52-0.11,0.71-0.29c0.18-0.19,0.29-0.45,0.29-0.71s-0.11-0.521-0.29-0.71C27.829,52.92,27.17,52.92,26.79,53.29z"/>
	<path style="fill:#CBD4D8;" d="M31.5,49c0.26,0,0.52-0.11,0.71-0.29c0.18-0.19,0.29-0.45,0.29-0.71s-0.11-0.521-0.29-0.71
		c-0.38-0.37-1.05-0.37-1.42,0c-0.18,0.189-0.29,0.45-0.29,0.71c0,0.27,0.11,0.52,0.29,0.71C30.98,48.89,31.23,49,31.5,49z"/>
	<path style="fill:#CBD4D8;" d="M27.5,49c0.27,0,0.52-0.11,0.71-0.29c0.18-0.19,0.29-0.44,0.29-0.71c0-0.26-0.11-0.521-0.29-0.71
		c-0.37-0.37-1.04-0.37-1.42,0c-0.18,0.189-0.29,0.45-0.29,0.71s0.11,0.52,0.29,0.71C26.98,48.89,27.24,49,27.5,49z"/>
</g>
<path style="fill:#CBD4D8;" d="M30.5,35h-3c-0.552,0-1-0.447-1-1s0.448-1,1-1h3c0.552,0,1,0.447,1,1S31.052,35,30.5,35z"/>
<g>
	<path style="fill:#CBD4D8;" d="M20.5,14c0.256,0,0.512-0.098,0.707-0.293l4-4c0.391-0.391,0.391-1.023,0-1.414
		s-1.023-0.391-1.414,0l-4,4c-0.391,0.391-0.391,1.023,0,1.414C19.988,13.902,20.244,14,20.5,14z"/>
	<path style="fill:#CBD4D8;" d="M21.793,15.293l-2,2c-0.391,0.391-0.391,1.023,0,1.414C19.988,18.902,20.244,19,20.5,19
		s0.512-0.098,0.707-0.293l2-2c0.391-0.391,0.391-1.023,0-1.414S22.183,14.902,21.793,15.293z"/>
	<path style="fill:#CBD4D8;" d="M23.79,13.29c-0.18,0.189-0.29,0.439-0.29,0.71c0,0.26,0.11,0.52,0.29,0.71
		C23.98,14.89,24.24,15,24.5,15c0.26,0,0.52-0.11,0.71-0.29c0.18-0.19,0.29-0.45,0.29-0.71s-0.11-0.521-0.29-0.71
		C24.84,12.92,24.16,12.92,23.79,13.29z"/>
	<path style="fill:#CBD4D8;" d="M30.207,8.293c-0.391-0.391-1.023-0.391-1.414,0l-3,3c-0.391,0.391-0.391,1.023,0,1.414
		C25.988,12.902,26.244,13,26.5,13s0.512-0.098,0.707-0.293l3-3C30.598,9.316,30.598,8.684,30.207,8.293z"/>
</g>
<path style="fill:#AFB6BB;" d="M25.785,39H22.5v-3.286C22.5,35.32,22.18,35,21.785,35h-2.571c-0.395,0-0.714,0.32-0.714,0.714V39
	h-3.286c-0.395,0-0.714,0.32-0.714,0.714v2.571C14.5,42.68,14.82,43,15.214,43H18.5v3.286C18.5,46.68,18.82,47,19.214,47h2.571
	c0.395,0,0.714-0.32,0.714-0.714V43h3.286c0.395,0,0.714-0.32,0.714-0.714v-2.571C26.5,39.32,26.18,39,25.785,39z"/>
<circle style="fill:#AFB6BB;" cx="41" cy="36.5" r="2.5"/>
<circle style="fill:#AFB6BB;" cx="35" cy="42.5" r="2.5"/>
<g>
</g>
<g>
</g>
<g>
</g>
<g>
</g>
<g>
</g>
<g>
</g>
<g>
</g>
<g>
</g>
<g>
</g>
<g>
</g>
<g>
</g>
<g>
</g>
<g>
</g>
<g>
</g>
<g>
</g>
</svg>
