<?xml version="1.0" encoding="iso-8859-1"?>
<!-- Generator: Adobe Illustrator 19.0.0, SVG Export Plug-In . SVG Version: 6.00 Build 0)  -->
<svg version="1.1" id="Capa_1" xmlns="http://www.w3.org/2000/svg" xmlns:xlink="http://www.w3.org/1999/xlink" x="0px" y="0px"
	 viewBox="0 0 58 58" style="enable-background:new 0 0 58 58;" xml:space="preserve">
<path style="fill:#D9DEE4;" d="M48,52.586C48,55.576,45.576,58,42.586,58H41H12.112C10.946,58,10,57.054,10,55.888V2.112
	C10,0.946,10.946,0,12.112,0h33.775C47.054,0,48,0.946,48,2.112V51V52.586z"/>
<circle style="fill:#9F3D78;" cx="37.5" cy="40.867" r="2.5"/>
<circle style="fill:#9F3D78;" cx="31.5" cy="46.867" r="2.5"/>
<path style="fill:#74972F;" d="M43,27.096C43,30.357,40.261,33,37,33h-3H15V5h28v18V27.096z"/>
<rect x="35.482" y="52.617" transform="matrix(0.7071 0.7071 -0.7071 0.7071 48.8233 -10.6356)" style="fill:#AFB6BB;" width="3.536" height="2"/>
<rect x="38.482" y="49.617" transform="matrix(0.7071 0.7071 -0.7071 0.7071 47.5807 -13.6356)" style="fill:#AFB6BB;" width="3.536" height="2"/>
<rect x="41.482" y="46.617" transform="matrix(0.7071 0.7071 -0.7071 0.7071 46.3381 -16.6356)" style="fill:#AFB6BB;" width="3.536" height="2"/>
<g>
	<path style="fill:#ADD34F;" d="M19,14c0.256,0,0.512-0.098,0.707-0.293l4-4c0.391-0.391,0.391-1.023,0-1.414s-1.023-0.391-1.414,0
		l-4,4c-0.391,0.391-0.391,1.023,0,1.414C18.488,13.902,18.744,14,19,14z"/>
	<path style="fill:#ADD34F;" d="M20.293,15.293l-2,2c-0.391,0.391-0.391,1.023,0,1.414C18.488,18.902,18.744,19,19,19
		s0.512-0.098,0.707-0.293l2-2c0.391-0.391,0.391-1.023,0-1.414S20.684,14.902,20.293,15.293z"/>
	<path style="fill:#ADD34F;" d="M22.29,13.29C22.11,13.479,22,13.729,22,14c0,0.26,0.11,0.52,0.29,0.71C22.48,14.89,22.74,15,23,15
		c0.26,0,0.52-0.11,0.71-0.29C23.89,14.52,24,14.26,24,14s-0.11-0.521-0.29-0.71C23.34,12.92,22.66,12.92,22.29,13.29z"/>
	<path style="fill:#ADD34F;" d="M28.707,8.293c-0.391-0.391-1.023-0.391-1.414,0l-3,3c-0.391,0.391-0.391,1.023,0,1.414
		C24.488,12.902,24.744,13,25,13s0.512-0.098,0.707-0.293l3-3C29.098,9.316,29.098,8.684,28.707,8.293z"/>
</g>
<path style="fill:#283238;" d="M25.286,41H22v-3.286C22,37.32,21.68,37,21.286,37h-2.571C18.32,37,18,37.32,18,37.714V41h-3.286
	C14.32,41,14,41.32,14,41.714v2.571C14,44.68,14.32,45,14.714,45H18v3.286C18,48.68,18.32,49,18.714,49h2.571
	C21.68,49,22,48.68,22,48.286V45h3.286C25.68,45,26,44.68,26,44.286v-2.571C26,41.32,25.68,41,25.286,41z"/>
<g>
</g>
<g>
</g>
<g>
</g>
<g>
</g>
<g>
</g>
<g>
</g>
<g>
</g>
<g>
</g>
<g>
</g>
<g>
</g>
<g>
</g>
<g>
</g>
<g>
</g>
<g>
</g>
<g>
</g>
</svg>
