<?xml version="1.0" encoding="iso-8859-1"?>
<!-- Generator: Adobe Illustrator 19.0.0, SVG Export Plug-In . SVG Version: 6.00 Build 0)  -->
<svg version="1.1" id="Capa_1" xmlns="http://www.w3.org/2000/svg" xmlns:xlink="http://www.w3.org/1999/xlink" x="0px" y="0px"
	 viewBox="0 0 58.006 58.006" style="enable-background:new 0 0 58.006 58.006;" xml:space="preserve">
<path style="fill:#CBD4D8;" d="M56.811,18.884c-0.437-2.145-1.596-4.05-3.125-5.568c-2.196-2.18-6.175-4.304-10.781-4.304
	c-7.03,0-13.903,0-13.903,0s-6.873,0-13.903,0c-4.606,0-8.585,2.124-10.781,4.304c-1.529,1.518-2.687,3.424-3.125,5.568
	C0.31,23.218,2.65,25.88,4.819,27.365c1.424,0.975,3.091,1.465,4.789,1.657c4.296,0.485,6.699,2.858,7.985,4.867
	c0.83,1.296,1.296,2.798,1.518,4.336c1.241,8.608,4.431,13.666,6.855,16.377c1.637,1.83,4.436,1.83,6.072,0
	c2.425-2.71,5.614-7.768,6.855-16.377c0.222-1.537,0.688-3.04,1.518-4.336c1.286-2.01,3.689-4.382,7.985-4.867
	c1.698-0.192,3.365-0.682,4.789-1.657C55.355,25.88,57.695,23.218,56.811,18.884z"/>
<path style="fill:#AFB6BB;" d="M57.003,19.984l-0.039-0.002c0.314,3.689-1.798,6.028-3.777,7.383
	c-1.424,0.975-3.091,1.465-4.789,1.657c-2.219,0.25-3.924,1.008-5.24,1.955l0.283,2.931c0,0,1.71,15.872,5.753,19.859
	c1.948,1.921,3.629,1.255,4.663,0.415c0.683-0.556,1.193-1.292,1.526-2.108C59.927,40.945,57.236,21.122,57.003,19.984z"/>
<path style="fill:#AFB6BB;" d="M9.608,29.023c-1.698-0.192-3.365-0.682-4.789-1.657c-1.979-1.355-4.091-3.694-3.777-7.383
	l-0.039,0.002c-0.233,1.138-2.925,20.96,1.62,32.09c0.333,0.815,0.843,1.552,1.526,2.108c1.033,0.84,2.715,1.506,4.663-0.415
	c4.043-3.987,5.753-19.859,5.753-19.859l0.283-2.931C13.532,30.03,11.827,29.273,9.608,29.023z"/>
<path style="fill:#AFB6BB;" d="M43.003,9.012h-28l1.07-2.675c0.584-1.46,1.834-2.551,3.359-2.932l1.031-0.258
	c5.811-1.573,11.473-1.402,17.08,0l1.031,0.258c1.525,0.381,2.775,1.472,3.359,2.932L43.003,9.012z"/>
<circle style="fill:#43B05C;" cx="37.003" cy="17.012" r="3"/>
<circle style="fill:#1081E0;" cx="43.003" cy="23.012" r="3"/>
<path style="fill:#38454F;" d="M19.333,18.012h-1.66c-0.37,0-0.67-0.3-0.67-0.67v-1.66c0-0.37-0.3-0.67-0.67-0.67h-2.66
	c-0.37,0-0.67,0.3-0.67,0.67v1.66c0,0.37-0.3,0.67-0.67,0.67h-1.66c-0.37,0-0.67,0.3-0.67,0.67v2.66c0,0.37,0.3,0.67,0.67,0.67h1.66
	c0.37,0,0.67,0.3,0.67,0.67v1.66c0,0.37,0.3,0.67,0.67,0.67h2.66c0.37,0,0.67-0.3,0.67-0.67v-1.66c0-0.37,0.3-0.67,0.67-0.67h1.66
	c0.37,0,0.67-0.3,0.67-0.67v-2.66C20.003,18.312,19.703,18.012,19.333,18.012z"/>
<circle style="fill:#E7ECED;" cx="29.003" cy="35.012" r="4"/>
<path style="fill:#546A79;" d="M33,35.036c-0.013,2.198-1.797,3.976-3.998,3.976s-3.984-1.778-3.998-3.976
	c-0.622,0.833-1.002,1.856-1.002,2.976c0,2.761,2.239,5,5,5s5-2.239,5-5C34.003,36.893,33.622,35.87,33,35.036z"/>
<circle style="fill:#EBBA16;" cx="48.003" cy="14.012" r="1"/>
<circle style="fill:#EBBA16;" cx="48.003" cy="18.012" r="1"/>
<circle style="fill:#EBBA16;" cx="46.003" cy="16.012" r="1"/>
<circle style="fill:#EBBA16;" cx="50.003" cy="16.012" r="1"/>
<g>
</g>
<g>
</g>
<g>
</g>
<g>
</g>
<g>
</g>
<g>
</g>
<g>
</g>
<g>
</g>
<g>
</g>
<g>
</g>
<g>
</g>
<g>
</g>
<g>
</g>
<g>
</g>
<g>
</g>
</svg>
