<?xml version="1.0" encoding="iso-8859-1"?>
<!-- Generator: Adobe Illustrator 19.0.0, SVG Export Plug-In . SVG Version: 6.00 Build 0)  -->
<svg version="1.1" id="Capa_1" xmlns="http://www.w3.org/2000/svg" xmlns:xlink="http://www.w3.org/1999/xlink" x="0px" y="0px"
	 viewBox="0 0 57.145 57.145" style="enable-background:new 0 0 57.145 57.145;" xml:space="preserve">
<path style="fill:#E7ECED;" d="M56.572,52.238c0,2.71-2.197,4.907-4.907,4.907H27.573H5.479c-2.71,0-4.907-2.197-4.907-4.907V4.676
	c0-1.487,1.012-2.784,2.455-3.145l0,0c8.164-2.041,42.925-2.041,51.089,0l0,0c1.443,0.361,2.455,1.657,2.455,3.145V52.238z"/>
<path style="fill:#2290AB;" d="M10.072,42.145c-3.584,0-6.5,2.916-6.5,6.5s2.916,6.5,6.5,6.5s6.5-2.916,6.5-6.5
	S13.656,42.145,10.072,42.145z"/>
<path style="fill:#2290AB;" d="M47.072,42.145c-3.584,0-6.5,2.916-6.5,6.5s2.916,6.5,6.5,6.5s6.5-2.916,6.5-6.5
	S50.656,42.145,47.072,42.145z"/>
<path style="fill:#AFB6BB;" d="M36.572,51.145h-16c-0.552,0-1-0.448-1-1s0.448-1,1-1h16c0.552,0,1,0.448,1,1
	S37.125,51.145,36.572,51.145z"/>
<path style="fill:#546A79;" d="M30.572,46.145h-5c-0.552,0-1-0.448-1-1s0.448-1,1-1h5c0.552,0,1,0.448,1,1
	S31.125,46.145,30.572,46.145z"/>
<g>
	<circle style="fill:#057A8E;" cx="7.572" cy="45" r="1"/>
	<circle style="fill:#057A8E;" cx="11.572" cy="45" r="1"/>
	<circle style="fill:#057A8E;" cx="9.572" cy="47" r="1"/>
	<circle style="fill:#057A8E;" cx="5.572" cy="47" r="1"/>
	<circle style="fill:#057A8E;" cx="13.572" cy="47" r="1"/>
	<circle style="fill:#057A8E;" cx="11.572" cy="49" r="1"/>
	<circle style="fill:#057A8E;" cx="7.572" cy="49" r="1"/>
	<circle style="fill:#057A8E;" cx="9.572" cy="51" r="1"/>
	<circle style="fill:#057A8E;" cx="13.572" cy="51" r="1"/>
	<circle style="fill:#057A8E;" cx="11.572" cy="53" r="1"/>
	<circle style="fill:#057A8E;" cx="7.572" cy="53" r="1"/>
	<circle style="fill:#057A8E;" cx="5.572" cy="51" r="1"/>
</g>
<g>
	<circle style="fill:#057A8E;" cx="45.572" cy="45.145" r="1"/>
	<circle style="fill:#057A8E;" cx="49.572" cy="45.145" r="1"/>
	<circle style="fill:#057A8E;" cx="47.572" cy="47.145" r="1"/>
	<circle style="fill:#057A8E;" cx="43.572" cy="47.145" r="1"/>
	<circle style="fill:#057A8E;" cx="51.572" cy="47.145" r="1"/>
	<circle style="fill:#057A8E;" cx="49.572" cy="49.145" r="1"/>
	<circle style="fill:#057A8E;" cx="45.572" cy="49.145" r="1"/>
	<circle style="fill:#057A8E;" cx="47.572" cy="51.145" r="1"/>
	<circle style="fill:#057A8E;" cx="51.572" cy="51.145" r="1"/>
	<circle style="fill:#057A8E;" cx="49.572" cy="53.145" r="1"/>
	<circle style="fill:#057A8E;" cx="45.572" cy="53.145" r="1"/>
	<circle style="fill:#057A8E;" cx="43.572" cy="51.145" r="1"/>
</g>
<path style="fill:#698F92;" d="M51.495,39.222H5.65c-0.595,0-1.077-0.482-1.077-1.077V6.222c0-0.595,0.482-1.077,1.077-1.077h45.845
	c0.595,0,1.077,0.482,1.077,1.077v31.923C52.572,38.74,52.09,39.222,51.495,39.222z"/>
<g>
	<path style="fill:#8FB4B5;" d="M8.572,14.145c0.256,0,0.512-0.098,0.707-0.293l4-4c0.391-0.391,0.391-1.023,0-1.414
		s-1.023-0.391-1.414,0l-4,4c-0.391,0.391-0.391,1.023,0,1.414C8.061,14.047,8.316,14.145,8.572,14.145z"/>
	<path style="fill:#8FB4B5;" d="M8.572,19.145c0.256,0,0.512-0.098,0.707-0.293l2-2c0.391-0.391,0.391-1.023,0-1.414
		s-1.023-0.391-1.414,0l-2,2c-0.391,0.391-0.391,1.023,0,1.414C8.061,19.047,8.316,19.145,8.572,19.145z"/>
	<path style="fill:#8FB4B5;" d="M11.862,13.435c-0.18,0.19-0.29,0.45-0.29,0.71c0,0.26,0.11,0.52,0.29,0.71
		c0.19,0.18,0.45,0.29,0.71,0.29c0.26,0,0.52-0.11,0.71-0.29c0.18-0.19,0.29-0.45,0.29-0.71c0-0.26-0.11-0.52-0.29-0.71
		C12.912,13.065,12.232,13.065,11.862,13.435z"/>
	<path style="fill:#8FB4B5;" d="M13.865,12.852c0.195,0.195,0.451,0.293,0.707,0.293s0.512-0.098,0.707-0.293l3-3
		c0.391-0.391,0.391-1.023,0-1.414s-1.023-0.391-1.414,0l-3,3C13.475,11.828,13.475,12.461,13.865,12.852z"/>
	<path style="fill:#8FB4B5;" d="M16.865,13.438l-9,9c-0.391,0.391-0.391,1.023,0,1.414c0.195,0.195,0.451,0.293,0.707,0.293
		s0.512-0.098,0.707-0.293l9-9c0.391-0.391,0.391-1.023,0-1.414S17.256,13.047,16.865,13.438z"/>
	<path style="fill:#8FB4B5;" d="M18.862,11.435c-0.18,0.19-0.29,0.45-0.29,0.71c0,0.26,0.11,0.52,0.29,0.71
		c0.19,0.18,0.44,0.29,0.71,0.29c0.26,0,0.52-0.11,0.71-0.29c0.18-0.19,0.29-0.45,0.29-0.71c0-0.26-0.11-0.52-0.29-0.71
		C19.912,11.065,19.242,11.065,18.862,11.435z"/>
	<path style="fill:#8FB4B5;" d="M23.279,8.438c-0.391-0.391-1.023-0.391-1.414,0l-1,1c-0.391,0.391-0.391,1.023,0,1.414
		c0.195,0.195,0.451,0.293,0.707,0.293s0.512-0.098,0.707-0.293l1-1C23.67,9.461,23.67,8.828,23.279,8.438z"/>
</g>
<g>
</g>
<g>
</g>
<g>
</g>
<g>
</g>
<g>
</g>
<g>
</g>
<g>
</g>
<g>
</g>
<g>
</g>
<g>
</g>
<g>
</g>
<g>
</g>
<g>
</g>
<g>
</g>
<g>
</g>
</svg>
