<?xml version="1.0" encoding="iso-8859-1"?>
<!-- Generator: Adobe Illustrator 19.0.0, SVG Export Plug-In . SVG Version: 6.00 Build 0)  -->
<svg version="1.1" id="Capa_1" xmlns="http://www.w3.org/2000/svg" xmlns:xlink="http://www.w3.org/1999/xlink" x="0px" y="0px"
	 viewBox="0 0 55 55" style="enable-background:new 0 0 55 55;" xml:space="preserve">
<path style="fill:#E7ECED;" d="M47.502,44H7.498C5.566,44,4,42.434,4,40.502V3.498C4,1.566,5.566,0,7.498,0h40.003
	C49.434,0,51,1.566,51,3.498v37.003C51,42.434,49.434,44,47.502,44z"/>
<path style="fill:#38454F;" d="M51,35H4V3.498C4,1.566,5.566,0,7.498,0h40.003C49.434,0,51,1.566,51,3.498V35z"/>
<g>
	<path style="fill:#546A79;" d="M8,9c0.256,0,0.512-0.098,0.707-0.293l4-4c0.391-0.391,0.391-1.023,0-1.414s-1.023-0.391-1.414,0
		l-4,4c-0.391,0.391-0.391,1.023,0,1.414C7.488,8.902,7.744,9,8,9z"/>
	<path style="fill:#546A79;" d="M8,14c0.256,0,0.512-0.098,0.707-0.293l2-2c0.391-0.391,0.391-1.023,0-1.414s-1.023-0.391-1.414,0
		l-2,2c-0.391,0.391-0.391,1.023,0,1.414C7.488,13.902,7.744,14,8,14z"/>
	<path style="fill:#546A79;" d="M11.29,8.29C11.11,8.48,11,8.73,11,9s0.11,0.52,0.29,0.71C11.48,9.89,11.73,10,12,10
		s0.52-0.11,0.71-0.29C12.89,9.52,13,9.27,13,9s-0.11-0.52-0.29-0.71C12.34,7.92,11.66,7.92,11.29,8.29z"/>
	<path style="fill:#546A79;" d="M13.293,7.707C13.488,7.902,13.744,8,14,8s0.512-0.098,0.707-0.293l3-3
		c0.391-0.391,0.391-1.023,0-1.414s-1.023-0.391-1.414,0l-3,3C12.902,6.684,12.902,7.316,13.293,7.707z"/>
	<path style="fill:#546A79;" d="M16.293,8.293l-9,9c-0.391,0.391-0.391,1.023,0,1.414C7.488,18.902,7.744,19,8,19
		s0.512-0.098,0.707-0.293l9-9c0.391-0.391,0.391-1.023,0-1.414S16.684,7.902,16.293,8.293z"/>
	<path style="fill:#546A79;" d="M18.29,6.29C18.11,6.48,18,6.74,18,7c0,0.26,0.11,0.52,0.29,0.71C18.48,7.89,18.73,8,19,8
		s0.52-0.11,0.71-0.29C19.89,7.52,20,7.26,20,7c0-0.26-0.11-0.52-0.29-0.71C19.34,5.92,18.66,5.92,18.29,6.29z"/>
	<path style="fill:#546A79;" d="M22.707,3.293c-0.391-0.391-1.023-0.391-1.414,0l-1,1c-0.391,0.391-0.391,1.023,0,1.414
		C20.488,5.902,20.744,6,21,6s0.512-0.098,0.707-0.293l1-1C23.098,4.316,23.098,3.684,22.707,3.293z"/>
</g>
<path style="fill:#AFB6BB;" d="M38.774,52H17.226c-0.224,0-0.311-0.307-0.124-0.437l1.805-1.273c1.947-1.373,2.868-3.891,2.3-6.29v0
	h13.588l0,0.002c-0.568,2.4,0.354,4.917,2.302,6.29l1.803,1.271C39.085,51.694,38.997,52,38.774,52z"/>
<path style="fill:#E7ECED;" d="M39.5,55h-23c-0.825,0-1.5-0.675-1.5-1.5l0,0c0-0.825,0.675-1.5,1.5-1.5h23
	c0.825,0,1.5,0.675,1.5,1.5l0,0C41,54.325,40.325,55,39.5,55z"/>
<g>
</g>
<g>
</g>
<g>
</g>
<g>
</g>
<g>
</g>
<g>
</g>
<g>
</g>
<g>
</g>
<g>
</g>
<g>
</g>
<g>
</g>
<g>
</g>
<g>
</g>
<g>
</g>
<g>
</g>
</svg>
