<?xml version="1.0" encoding="iso-8859-1"?>
<!-- Generator: Adobe Illustrator 19.0.0, SVG Export Plug-In . SVG Version: 6.00 Build 0)  -->
<svg version="1.1" id="Capa_1" xmlns="http://www.w3.org/2000/svg" xmlns:xlink="http://www.w3.org/1999/xlink" x="0px" y="0px"
	 viewBox="0 0 58 58" style="enable-background:new 0 0 58 58;" xml:space="preserve">
<path style="fill:#E7ECED;" d="M54.502,40H3.498C1.566,40,0,38.434,0,36.502V3.498C0,1.566,1.566,0,3.498,0h51.003
	C56.434,0,58,1.566,58,3.498v33.003C58,38.434,56.434,40,54.502,40z"/>
<path style="fill:#E7ECED;" d="M46,58H12v0c0-7.18,5.82-13,13-13h8C40.18,45,46,50.82,46,58L46,58z"/>
<rect x="27" y="40" style="fill:#AFB6BB;" width="4" height="5"/>
<path style="fill:#38454F;" d="M54,37H4c-0.552,0-1-0.448-1-1V4c0-0.552,0.448-1,1-1h50c0.552,0,1,0.448,1,1v32
	C55,36.552,54.552,37,54,37z"/>
<g>
	<path style="fill:#546A79;" d="M6,11c0.256,0,0.512-0.098,0.707-0.293l4-4c0.391-0.391,0.391-1.023,0-1.414s-1.023-0.391-1.414,0
		l-4,4c-0.391,0.391-0.391,1.023,0,1.414C5.488,10.902,5.744,11,6,11z"/>
	<path style="fill:#546A79;" d="M6,16c0.256,0,0.512-0.098,0.707-0.293l2-2c0.391-0.391,0.391-1.023,0-1.414s-1.023-0.391-1.414,0
		l-2,2c-0.391,0.391-0.391,1.023,0,1.414C5.488,15.902,5.744,16,6,16z"/>
	<path style="fill:#546A79;" d="M9.29,10.29C9.11,10.48,9,10.74,9,11c0,0.26,0.11,0.52,0.29,0.71C9.48,11.89,9.74,12,10,12
		c0.26,0,0.52-0.11,0.71-0.29C10.89,11.52,11,11.26,11,11c0-0.26-0.11-0.52-0.29-0.71C10.34,9.92,9.66,9.92,9.29,10.29z"/>
	<path style="fill:#546A79;" d="M11.293,9.707C11.488,9.902,11.744,10,12,10s0.512-0.098,0.707-0.293l3-3
		c0.391-0.391,0.391-1.023,0-1.414s-1.023-0.391-1.414,0l-3,3C10.902,8.684,10.902,9.316,11.293,9.707z"/>
	<path style="fill:#546A79;" d="M14.293,10.293l-9,9c-0.391,0.391-0.391,1.023,0,1.414C5.488,20.902,5.744,21,6,21
		s0.512-0.098,0.707-0.293l9-9c0.391-0.391,0.391-1.023,0-1.414S14.684,9.902,14.293,10.293z"/>
	<path style="fill:#546A79;" d="M16.29,8.29C16.11,8.48,16,8.73,16,9s0.11,0.52,0.29,0.71C16.48,9.89,16.74,10,17,10
		c0.26,0,0.52-0.11,0.71-0.29C17.89,9.52,18,9.26,18,9c0-0.26-0.11-0.52-0.29-0.71C17.34,7.92,16.66,7.93,16.29,8.29z"/>
	<path style="fill:#546A79;" d="M20.707,5.293c-0.391-0.391-1.023-0.391-1.414,0l-1,1c-0.391,0.391-0.391,1.023,0,1.414
		C18.488,7.902,18.744,8,19,8s0.512-0.098,0.707-0.293l1-1C21.098,6.316,21.098,5.684,20.707,5.293z"/>
</g>
<g>
</g>
<g>
</g>
<g>
</g>
<g>
</g>
<g>
</g>
<g>
</g>
<g>
</g>
<g>
</g>
<g>
</g>
<g>
</g>
<g>
</g>
<g>
</g>
<g>
</g>
<g>
</g>
<g>
</g>
</svg>
