<?xml version="1.0" encoding="iso-8859-1"?>
<!-- Generator: Adobe Illustrator 19.0.0, SVG Export Plug-In . SVG Version: 6.00 Build 0)  -->
<svg version="1.1" id="Capa_1" xmlns="http://www.w3.org/2000/svg" xmlns:xlink="http://www.w3.org/1999/xlink" x="0px" y="0px"
	 viewBox="0 0 58 58" style="enable-background:new 0 0 58 58;" xml:space="preserve">
<path style="fill:#38454F;" d="M54.822,49H3.178C1.423,49,0,47.577,0,45.822V12.178C0,10.423,1.423,9,3.178,9h51.644
	C56.577,9,58,10.423,58,12.178v33.644C58,47.577,56.577,49,54.822,49z"/>
<rect x="6" y="14" style="fill:#546A79;" width="46" height="30"/>
<circle cx="55" cy="29" r="2"/>
<circle cx="3" cy="29" r="1"/>
<g>
	<path style="fill:#839CAA;" d="M10,23c0.256,0,0.512-0.098,0.707-0.293l4-4c0.391-0.391,0.391-1.023,0-1.414s-1.023-0.391-1.414,0
		l-4,4c-0.391,0.391-0.391,1.023,0,1.414C9.488,22.902,9.744,23,10,23z"/>
	<path style="fill:#839CAA;" d="M10,28c0.256,0,0.512-0.098,0.707-0.293l2-2c0.391-0.391,0.391-1.023,0-1.414s-1.023-0.391-1.414,0
		l-2,2c-0.391,0.391-0.391,1.023,0,1.414C9.488,27.902,9.744,28,10,28z"/>
	<path style="fill:#839CAA;" d="M13.29,22.29C13.11,22.48,13,22.73,13,23s0.11,0.52,0.29,0.71C13.48,23.89,13.74,24,14,24
		c0.26,0,0.52-0.11,0.71-0.29C14.89,23.52,15,23.26,15,23c0-0.26-0.11-0.52-0.29-0.71C14.33,21.92,13.66,21.92,13.29,22.29z"/>
	<path style="fill:#839CAA;" d="M15.293,21.707C15.488,21.902,15.744,22,16,22s0.512-0.098,0.707-0.293l3-3
		c0.391-0.391,0.391-1.023,0-1.414s-1.023-0.391-1.414,0l-3,3C14.902,20.684,14.902,21.316,15.293,21.707z"/>
	<path style="fill:#839CAA;" d="M18.293,22.293l-9,9c-0.391,0.391-0.391,1.023,0,1.414C9.488,32.902,9.744,33,10,33
		s0.512-0.098,0.707-0.293l9-9c0.391-0.391,0.391-1.023,0-1.414S18.684,21.902,18.293,22.293z"/>
	<path style="fill:#839CAA;" d="M20.29,20.29C20.11,20.48,20,20.74,20,21c0,0.26,0.11,0.52,0.29,0.71C20.48,21.89,20.74,22,21,22
		c0.26,0,0.52-0.11,0.71-0.29C21.89,21.52,22,21.26,22,21c0-0.26-0.11-0.52-0.29-0.71C21.33,19.92,20.66,19.92,20.29,20.29z"/>
	<path style="fill:#839CAA;" d="M24.707,17.293c-0.391-0.391-1.023-0.391-1.414,0l-1,1c-0.391,0.391-0.391,1.023,0,1.414
		C22.488,19.902,22.744,20,23,20s0.512-0.098,0.707-0.293l1-1C25.098,18.316,25.098,17.684,24.707,17.293z"/>
</g>
<g>
</g>
<g>
</g>
<g>
</g>
<g>
</g>
<g>
</g>
<g>
</g>
<g>
</g>
<g>
</g>
<g>
</g>
<g>
</g>
<g>
</g>
<g>
</g>
<g>
</g>
<g>
</g>
<g>
</g>
</svg>
