<?xml version="1.0" encoding="iso-8859-1"?>
<!-- Generator: Adobe Illustrator 19.0.0, SVG Export Plug-In . SVG Version: 6.00 Build 0)  -->
<svg version="1.1" id="Capa_1" xmlns="http://www.w3.org/2000/svg" xmlns:xlink="http://www.w3.org/1999/xlink" x="0px" y="0px"
	 viewBox="0 0 58 58" style="enable-background:new 0 0 58 58;" xml:space="preserve">
<path style="fill:#E7ECED;" d="M56.307,50H1.693C0.758,50,0,49.242,0,48.307V9.693C0,8.758,0.758,8,1.693,8h54.615
	C57.242,8,58,8.758,58,9.693v38.615C58,49.242,57.242,50,56.307,50z"/>
<path style="fill:#AFB6BB;" d="M3,31c-0.552,0-1-0.448-1-1v-2c0-0.552,0.448-1,1-1s1,0.448,1,1v2C4,30.552,3.552,31,3,31z"/>
<circle style="fill:#AFB6BB;" cx="55" cy="29" r="2"/>
<rect x="6" y="8" style="fill:#546A79;" width="46" height="42"/>
<g>
	<path style="fill:#839CAA;" d="M11,17c0.256,0,0.512-0.098,0.707-0.293l4-4c0.391-0.391,0.391-1.023,0-1.414s-1.023-0.391-1.414,0
		l-4,4c-0.391,0.391-0.391,1.023,0,1.414C10.488,16.902,10.744,17,11,17z"/>
	<path style="fill:#839CAA;" d="M11,22c0.256,0,0.512-0.098,0.707-0.293l2-2c0.391-0.391,0.391-1.023,0-1.414s-1.023-0.391-1.414,0
		l-2,2c-0.391,0.391-0.391,1.023,0,1.414C10.488,21.902,10.744,22,11,22z"/>
	<path style="fill:#839CAA;" d="M14.29,16.29C14.11,16.48,14,16.74,14,17c0,0.26,0.11,0.52,0.29,0.71C14.48,17.89,14.74,18,15,18
		c0.26,0,0.52-0.11,0.71-0.29C15.89,17.52,16,17.26,16,17c0-0.26-0.11-0.52-0.29-0.71C15.34,15.92,14.66,15.92,14.29,16.29z"/>
	<path style="fill:#839CAA;" d="M16.293,15.707C16.488,15.902,16.744,16,17,16s0.512-0.098,0.707-0.293l3-3
		c0.391-0.391,0.391-1.023,0-1.414s-1.023-0.391-1.414,0l-3,3C15.902,14.684,15.902,15.316,16.293,15.707z"/>
	<path style="fill:#839CAA;" d="M19.293,16.293l-9,9c-0.391,0.391-0.391,1.023,0,1.414C10.488,26.902,10.744,27,11,27
		s0.512-0.098,0.707-0.293l9-9c0.391-0.391,0.391-1.023,0-1.414S19.684,15.902,19.293,16.293z"/>
	<path style="fill:#839CAA;" d="M21.29,14.29C21.11,14.48,21,14.74,21,15c0,0.26,0.11,0.52,0.29,0.71C21.48,15.89,21.74,16,22,16
		c0.26,0,0.52-0.11,0.71-0.29C22.89,15.52,23,15.26,23,15c0-0.26-0.11-0.52-0.29-0.71C22.33,13.92,21.67,13.92,21.29,14.29z"/>
	<path style="fill:#839CAA;" d="M25.707,11.293c-0.391-0.391-1.023-0.391-1.414,0l-1,1c-0.391,0.391-0.391,1.023,0,1.414
		C23.488,13.902,23.744,14,24,14s0.512-0.098,0.707-0.293l1-1C26.098,12.316,26.098,11.684,25.707,11.293z"/>
</g>
<g>
</g>
<g>
</g>
<g>
</g>
<g>
</g>
<g>
</g>
<g>
</g>
<g>
</g>
<g>
</g>
<g>
</g>
<g>
</g>
<g>
</g>
<g>
</g>
<g>
</g>
<g>
</g>
<g>
</g>
</svg>
