<?xml version="1.0" encoding="iso-8859-1"?>
<!-- Generator: Adobe Illustrator 19.0.0, SVG Export Plug-In . SVG Version: 6.00 Build 0)  -->
<svg version="1.1" id="Capa_1" xmlns="http://www.w3.org/2000/svg" xmlns:xlink="http://www.w3.org/1999/xlink" x="0px" y="0px"
	 viewBox="0 0 58 58" style="enable-background:new 0 0 58 58;" xml:space="preserve">
<path style="fill:#E7ECED;" d="M47.102,58H10.898C9.298,58,8,56.674,8,55.038V2.962C8,1.326,9.298,0,10.898,0h36.203
	C48.702,0,50,1.326,50,2.962v52.077C50,56.674,48.702,58,47.102,58z"/>
<path style="fill:#38454F;" d="M30,4h-1c-0.553,0-1-0.448-1-1s0.447-1,1-1h1c0.553,0,1,0.448,1,1S30.553,4,30,4z"/>
<rect x="11" y="6" style="fill:#546A79;" width="36" height="42"/>
<circle style="fill:#AFB6BB;" cx="29" cy="53" r="3"/>
<g>
	<path style="fill:#839CAA;" d="M15,15c0.256,0,0.512-0.098,0.707-0.293l4-4c0.391-0.391,0.391-1.023,0-1.414s-1.023-0.391-1.414,0
		l-4,4c-0.391,0.391-0.391,1.023,0,1.414C14.488,14.902,14.744,15,15,15z"/>
	<path style="fill:#839CAA;" d="M15,20c0.256,0,0.512-0.098,0.707-0.293l2-2c0.391-0.391,0.391-1.023,0-1.414s-1.023-0.391-1.414,0
		l-2,2c-0.391,0.391-0.391,1.023,0,1.414C14.488,19.902,14.744,20,15,20z"/>
	<path style="fill:#839CAA;" d="M18.29,14.29C18.109,14.48,18,14.74,18,15c0,0.27,0.109,0.52,0.29,0.71C18.479,15.9,18.74,16,19,16
		s0.52-0.11,0.71-0.29C19.89,15.52,20,15.27,20,15c0-0.26-0.11-0.52-0.29-0.71C19.33,13.92,18.68,13.92,18.29,14.29z"/>
	<path style="fill:#839CAA;" d="M20.293,13.707C20.488,13.902,20.744,14,21,14s0.512-0.098,0.707-0.293l3-3
		c0.391-0.391,0.391-1.023,0-1.414s-1.023-0.391-1.414,0l-3,3C19.902,12.684,19.902,13.316,20.293,13.707z"/>
	<path style="fill:#839CAA;" d="M23.293,14.293l-9,9c-0.391,0.391-0.391,1.023,0,1.414C14.488,24.902,14.744,25,15,25
		s0.512-0.098,0.707-0.293l9-9c0.391-0.391,0.391-1.023,0-1.414S23.684,13.902,23.293,14.293z"/>
	<path style="fill:#839CAA;" d="M25.29,12.29C25.109,12.48,25,12.74,25,13c0,0.26,0.109,0.52,0.29,0.71
		C25.479,13.89,25.729,14,26,14c0.26,0,0.52-0.11,0.71-0.29C26.899,13.52,27,13.26,27,13c0-0.26-0.101-0.52-0.29-0.71
		C26.33,11.92,25.66,11.92,25.29,12.29z"/>
	<path style="fill:#839CAA;" d="M29.707,9.293c-0.391-0.391-1.023-0.391-1.414,0l-1,1c-0.391,0.391-0.391,1.023,0,1.414
		C27.488,11.902,27.744,12,28,12s0.512-0.098,0.707-0.293l1-1C30.098,10.316,30.098,9.684,29.707,9.293z"/>
</g>
<g>
</g>
<g>
</g>
<g>
</g>
<g>
</g>
<g>
</g>
<g>
</g>
<g>
</g>
<g>
</g>
<g>
</g>
<g>
</g>
<g>
</g>
<g>
</g>
<g>
</g>
<g>
</g>
<g>
</g>
</svg>
