<?xml version="1.0" encoding="iso-8859-1"?>
<!-- Generator: Adobe Illustrator 19.0.0, SVG Export Plug-In . SVG Version: 6.00 Build 0)  -->
<svg version="1.1" id="Capa_1" xmlns="http://www.w3.org/2000/svg" xmlns:xlink="http://www.w3.org/1999/xlink" x="0px" y="0px"
	 viewBox="0 0 58 58" style="enable-background:new 0 0 58 58;" xml:space="preserve">
<path style="fill:#E7ECED;" d="M44.053,58H15.947C14.872,58,14,57.128,14,56.053V1.947C14,0.872,14.872,0,15.947,0h28.106
	C45.128,0,46,0.872,46,1.947v54.106C46,57.128,45.128,58,44.053,58z"/>
<rect x="17" y="6" style="fill:#38454F;" width="26" height="44"/>
<g>
	<path style="fill:#546A79;" d="M20,14c0.256,0,0.512-0.098,0.707-0.293l4-4c0.391-0.391,0.391-1.023,0-1.414s-1.023-0.391-1.414,0
		l-4,4c-0.391,0.391-0.391,1.023,0,1.414C19.488,13.902,19.744,14,20,14z"/>
	<path style="fill:#546A79;" d="M20,19c0.256,0,0.512-0.098,0.707-0.293l2-2c0.391-0.391,0.391-1.023,0-1.414s-1.023-0.391-1.414,0
		l-2,2c-0.391,0.391-0.391,1.023,0,1.414C19.488,18.902,19.744,19,20,19z"/>
	<path style="fill:#546A79;" d="M23.29,13.29C23.11,13.479,23,13.74,23,14s0.11,0.52,0.29,0.71C23.48,14.89,23.74,15,24,15
		c0.26,0,0.52-0.11,0.71-0.29C24.89,14.52,25,14.26,25,14c0-0.271-0.11-0.521-0.29-0.71C24.34,12.92,23.67,12.92,23.29,13.29z"/>
	<path style="fill:#546A79;" d="M25.293,12.707C25.488,12.902,25.744,13,26,13s0.512-0.098,0.707-0.293l3-3
		c0.391-0.391,0.391-1.023,0-1.414s-1.023-0.391-1.414,0l-3,3C24.902,11.684,24.902,12.316,25.293,12.707z"/>
	<path style="fill:#546A79;" d="M28.293,13.293l-9,9c-0.391,0.391-0.391,1.023,0,1.414C19.488,23.902,19.744,24,20,24
		s0.512-0.098,0.707-0.293l9-9c0.391-0.391,0.391-1.023,0-1.414S28.684,12.902,28.293,13.293z"/>
	<path style="fill:#546A79;" d="M30.29,11.29C30.11,11.479,30,11.74,30,12s0.11,0.52,0.29,0.71C30.48,12.89,30.74,13,31,13
		c0.26,0,0.52-0.11,0.71-0.29C31.89,12.52,32,12.26,32,12s-0.11-0.521-0.29-0.7C31.34,10.92,30.66,10.92,30.29,11.29z"/>
	<path style="fill:#546A79;" d="M34.707,8.293c-0.391-0.391-1.023-0.391-1.414,0l-1,1c-0.391,0.391-0.391,1.023,0,1.414
		C32.488,10.902,32.744,11,33,11s0.512-0.098,0.707-0.293l1-1C35.098,9.316,35.098,8.684,34.707,8.293z"/>
</g>
<path style="fill:#38454F;" d="M32,4h-5c-0.552,0-1-0.447-1-1s0.448-1,1-1h5c0.552,0,1,0.447,1,1S32.552,4,32,4z"/>
<line style="fill:none;stroke:#CBD4D8;stroke-width:2;stroke-linecap:round;stroke-miterlimit:10;" x1="13" y1="9" x2="13" y2="10"/>
<line style="fill:none;stroke:#CBD4D8;stroke-width:2;stroke-linecap:round;stroke-miterlimit:10;" x1="13" y1="13" x2="13" y2="14"/>
<line style="fill:none;stroke:#CBD4D8;stroke-width:2;stroke-linecap:round;stroke-miterlimit:10;" x1="13" y1="17" x2="13" y2="18"/>
<circle style="fill:#CBD4D8;" cx="30" cy="54" r="3"/>
<g>
</g>
<g>
</g>
<g>
</g>
<g>
</g>
<g>
</g>
<g>
</g>
<g>
</g>
<g>
</g>
<g>
</g>
<g>
</g>
<g>
</g>
<g>
</g>
<g>
</g>
<g>
</g>
<g>
</g>
</svg>
