<?xml version="1.0" encoding="iso-8859-1"?>
<!-- Generator: Adobe Illustrator 19.0.0, SVG Export Plug-In . SVG Version: 6.00 Build 0)  -->
<svg version="1.1" id="Capa_1" xmlns="http://www.w3.org/2000/svg" xmlns:xlink="http://www.w3.org/1999/xlink" x="0px" y="0px"
	 viewBox="0 0 58 58" style="enable-background:new 0 0 58 58;" xml:space="preserve">
<path style="fill:#E7ECED;" d="M43.038,58H16.962C15.326,58,14,56.674,14,55.038V2.962C14,1.326,15.326,0,16.962,0h26.077
	C44.674,0,46,1.326,46,2.962v52.077C46,56.674,44.674,58,43.038,58z"/>
<rect x="14" y="6" style="fill:#38454F;" width="32" height="44"/>
<path style="fill:#38454F;" d="M34,4h-5c-0.552,0-1-0.447-1-1s0.448-1,1-1h5c0.552,0,1,0.447,1,1S34.552,4,34,4z"/>
<path style="fill:#38454F;" d="M26,4h-1c-0.552,0-1-0.447-1-1s0.448-1,1-1h1c0.552,0,1,0.447,1,1S26.552,4,26,4z"/>
<circle style="fill:#AFB6BB;" cx="30" cy="54" r="3"/>
<g>
	<path style="fill:#546A79;" d="M17,14c0.256,0,0.512-0.098,0.707-0.293l4-4c0.391-0.391,0.391-1.023,0-1.414s-1.023-0.391-1.414,0
		l-4,4c-0.391,0.391-0.391,1.023,0,1.414C16.488,13.902,16.744,14,17,14z"/>
	<path style="fill:#546A79;" d="M17,19c0.256,0,0.512-0.098,0.707-0.293l2-2c0.391-0.391,0.391-1.023,0-1.414s-1.023-0.391-1.414,0
		l-2,2c-0.391,0.391-0.391,1.023,0,1.414C16.488,18.902,16.744,19,17,19z"/>
	<path style="fill:#546A79;" d="M20.29,13.29C20.11,13.479,20,13.74,20,14s0.11,0.52,0.29,0.71C20.48,14.89,20.74,15,21,15
		c0.26,0,0.52-0.11,0.71-0.29C21.89,14.52,22,14.26,22,14c0-0.271-0.11-0.521-0.29-0.71C21.34,12.92,20.67,12.92,20.29,13.29z"/>
	<path style="fill:#546A79;" d="M22.293,12.707C22.488,12.902,22.744,13,23,13s0.512-0.098,0.707-0.293l3-3
		c0.391-0.391,0.391-1.023,0-1.414s-1.023-0.391-1.414,0l-3,3C21.902,11.684,21.902,12.316,22.293,12.707z"/>
	<path style="fill:#546A79;" d="M25.293,13.293l-9,9c-0.391,0.391-0.391,1.023,0,1.414C16.488,23.902,16.744,24,17,24
		s0.512-0.098,0.707-0.293l9-9c0.391-0.391,0.391-1.023,0-1.414S25.684,12.902,25.293,13.293z"/>
	<path style="fill:#546A79;" d="M27.29,11.29C27.11,11.479,27,11.729,27,12c0,0.26,0.11,0.52,0.29,0.71C27.48,12.89,27.74,13,28,13
		c0.26,0,0.52-0.11,0.71-0.29C28.89,12.52,29,12.26,29,12c0-0.271-0.11-0.521-0.29-0.7C28.34,10.92,27.66,10.92,27.29,11.29z"/>
	<path style="fill:#546A79;" d="M31.707,8.293c-0.391-0.391-1.023-0.391-1.414,0l-1,1c-0.391,0.391-0.391,1.023,0,1.414
		C29.488,10.902,29.744,11,30,11s0.512-0.098,0.707-0.293l1-1C32.098,9.316,32.098,8.684,31.707,8.293z"/>
</g>
<line style="fill:none;stroke:#AFB6BB;stroke-width:2;stroke-linecap:round;stroke-miterlimit:10;" x1="13" y1="9" x2="13" y2="10"/>
<line style="fill:none;stroke:#AFB6BB;stroke-width:2;stroke-linecap:round;stroke-miterlimit:10;" x1="13" y1="13" x2="13" y2="14"/>
<line style="fill:none;stroke:#AFB6BB;stroke-width:2;stroke-linecap:round;stroke-miterlimit:10;" x1="13" y1="17" x2="13" y2="18"/>
<g>
</g>
<g>
</g>
<g>
</g>
<g>
</g>
<g>
</g>
<g>
</g>
<g>
</g>
<g>
</g>
<g>
</g>
<g>
</g>
<g>
</g>
<g>
</g>
<g>
</g>
<g>
</g>
<g>
</g>
</svg>
