<?xml version="1.0" encoding="iso-8859-1"?>
<!-- Generator: Adobe Illustrator 19.0.0, SVG Export Plug-In . SVG Version: 6.00 Build 0)  -->
<svg version="1.1" id="Capa_1" xmlns="http://www.w3.org/2000/svg" xmlns:xlink="http://www.w3.org/1999/xlink" x="0px" y="0px"
	 viewBox="0 0 59 59" style="enable-background:new 0 0 59 59;" xml:space="preserve">
<path style="fill:#E7ECED;" d="M43.038,58.5H17.962C16.326,58.5,15,57.174,15,55.538V3.462C15,1.826,16.326,0.5,17.962,0.5h25.077
	C44.674,0.5,46,1.826,46,3.462v52.077C46,57.174,44.674,58.5,43.038,58.5z"/>
<rect x="15" y="6.5" style="fill:#45525B;" width="31" height="43"/>
<path style="fill:#AFB6BB;" d="M35,4.5h-5c-0.553,0-1-0.448-1-1s0.447-1,1-1h5c0.553,0,1,0.448,1,1S35.553,4.5,35,4.5z"/>
<path style="fill:#AFB6BB;" d="M27,4.5h-1c-0.553,0-1-0.448-1-1s0.447-1,1-1h1c0.553,0,1,0.448,1,1S27.553,4.5,27,4.5z"/>
<circle style="fill:#AFB6BB;" cx="30.5" cy="54" r="2.5"/>
<path style="fill:#38454F;" d="M15,55.538V9.563H4.499C3.119,9.563,2,10.681,2,12.061v43.94c0,1.38,1.119,2.499,2.499,2.499h13.463
	C16.326,58.5,15,57.174,15,55.538z"/>
<rect x="2" y="15.5" style="fill:#546A79;" width="13" height="36"/>
<path style="fill:#38454F;" d="M56.516,9.5H46v46.038c0,1.636-1.326,2.962-2.962,2.962h13.478c1.372,0,2.484-1.12,2.484-2.502
	V12.002C59,10.62,57.888,9.5,56.516,9.5z"/>
<rect x="46" y="15.5" style="fill:#546A79;" width="13" height="36"/>
<g>
	<path style="fill:#546A79;" d="M20,16.5c0.256,0,0.512-0.098,0.707-0.293l4-4c0.391-0.391,0.391-1.023,0-1.414
		s-1.023-0.391-1.414,0l-4,4c-0.391,0.391-0.391,1.023,0,1.414C19.488,16.402,19.744,16.5,20,16.5z"/>
	<path style="fill:#546A79;" d="M20,21.5c0.256,0,0.512-0.098,0.707-0.293l2-2c0.391-0.391,0.391-1.023,0-1.414
		s-1.023-0.391-1.414,0l-2,2c-0.391,0.391-0.391,1.023,0,1.414C19.488,21.402,19.744,21.5,20,21.5z"/>
	<path style="fill:#546A79;" d="M23.29,15.79C23.109,15.98,23,16.24,23,16.5c0,0.26,0.109,0.52,0.29,0.71
		c0.189,0.18,0.45,0.29,0.71,0.29s0.52-0.11,0.71-0.29C24.89,17.02,25,16.76,25,16.5c0-0.26-0.11-0.52-0.29-0.71
		C24.33,15.42,23.67,15.42,23.29,15.79z"/>
	<path style="fill:#546A79;" d="M25.293,15.207C25.488,15.402,25.744,15.5,26,15.5s0.512-0.098,0.707-0.293l3-3
		c0.391-0.391,0.391-1.023,0-1.414s-1.023-0.391-1.414,0l-3,3C24.902,14.184,24.902,14.816,25.293,15.207z"/>
	<path style="fill:#546A79;" d="M28.293,15.793l-9,9c-0.391,0.391-0.391,1.023,0,1.414C19.488,26.402,19.744,26.5,20,26.5
		s0.512-0.098,0.707-0.293l9-9c0.391-0.391,0.391-1.023,0-1.414S28.684,15.402,28.293,15.793z"/>
	<path style="fill:#546A79;" d="M30.29,13.79C30.109,13.98,30,14.24,30,14.5c0,0.26,0.109,0.52,0.29,0.71
		c0.189,0.18,0.45,0.29,0.71,0.29s0.52-0.11,0.71-0.29C31.89,15.02,32,14.76,32,14.5c0-0.26-0.11-0.52-0.29-0.71
		C31.34,13.42,30.67,13.42,30.29,13.79z"/>
	<path style="fill:#546A79;" d="M34.707,10.793c-0.391-0.391-1.023-0.391-1.414,0l-1,1c-0.391,0.391-0.391,1.023,0,1.414
		C32.488,13.402,32.744,13.5,33,13.5s0.512-0.098,0.707-0.293l1-1C35.098,11.816,35.098,11.184,34.707,10.793z"/>
</g>
<path style="fill:#20282D;" d="M11.969,13.5h-0.844c-0.553,0-1-0.448-1-1s0.447-1,1-1h0.844c0.553,0,1,0.448,1,1
	S12.521,13.5,11.969,13.5z"/>
<path style="fill:#E7ECED;" d="M2,18.5H1c-0.552,0-1-0.448-1-1v0c0-0.552,0.448-1,1-1h1V18.5z"/>
<path style="fill:#E7ECED;" d="M2,22.5H1.5C0.672,22.5,0,21.828,0,21v0c0-0.828,0.672-1.5,1.5-1.5H2V22.5z"/>
<path style="fill:#E7ECED;" d="M2,26.5H1.5C0.672,26.5,0,25.828,0,25v0c0-0.828,0.672-1.5,1.5-1.5H2V26.5z"/>
<path style="fill:#20282D;" d="M50,11.5h-4v2h4c0.553,0,1-0.448,1-1S50.553,11.5,50,11.5z"/>
<g>
</g>
<g>
</g>
<g>
</g>
<g>
</g>
<g>
</g>
<g>
</g>
<g>
</g>
<g>
</g>
<g>
</g>
<g>
</g>
<g>
</g>
<g>
</g>
<g>
</g>
<g>
</g>
<g>
</g>
</svg>
