<?xml version="1.0" encoding="iso-8859-1"?>
<!-- Generator: Adobe Illustrator 19.0.0, SVG Export Plug-In . SVG Version: 6.00 Build 0)  -->
<svg version="1.1" id="Capa_1" xmlns="http://www.w3.org/2000/svg" xmlns:xlink="http://www.w3.org/1999/xlink" x="0px" y="0px"
	 viewBox="0 0 54 54" style="enable-background:new 0 0 54 54;" xml:space="preserve">
<path style="fill:#E7ECED;" d="M39.132,54H16.868c-2.412,0-4.368-1.956-4.368-4.368V4.368C12.5,1.956,14.456,0,16.868,0h22.264
	C41.544,0,43.5,1.956,43.5,4.368v45.264C43.5,52.044,41.544,54,39.132,54z"/>
<rect x="15.5" y="7" style="fill:#38454F;" width="25" height="38"/>
<g>
	<path style="fill:#546A79;" d="M18.5,15c0.256,0,0.512-0.098,0.707-0.293l4-4c0.391-0.391,0.391-1.023,0-1.414
		s-1.023-0.391-1.414,0l-4,4c-0.391,0.391-0.391,1.023,0,1.414C17.988,14.902,18.244,15,18.5,15z"/>
	<path style="fill:#546A79;" d="M18.5,20c0.256,0,0.512-0.098,0.707-0.293l2-2c0.391-0.391,0.391-1.023,0-1.414
		s-1.023-0.391-1.414,0l-2,2c-0.391,0.391-0.391,1.023,0,1.414C17.988,19.902,18.244,20,18.5,20z"/>
	<path style="fill:#546A79;" d="M21.79,14.29c-0.18,0.189-0.29,0.45-0.29,0.71s0.11,0.52,0.29,0.71C21.98,15.89,22.24,16,22.5,16
		c0.26,0,0.52-0.11,0.71-0.29c0.18-0.19,0.29-0.45,0.29-0.71s-0.11-0.521-0.29-0.71C22.83,13.92,22.16,13.92,21.79,14.29z"/>
	<path style="fill:#546A79;" d="M23.793,13.707C23.988,13.902,24.244,14,24.5,14s0.512-0.098,0.707-0.293l3-3
		c0.391-0.391,0.391-1.023,0-1.414s-1.023-0.391-1.414,0l-3,3C23.402,12.684,23.402,13.316,23.793,13.707z"/>
	<path style="fill:#546A79;" d="M26.793,14.293l-9,9c-0.391,0.391-0.391,1.023,0,1.414C17.988,24.902,18.244,25,18.5,25
		s0.512-0.098,0.707-0.293l9-9c0.391-0.391,0.391-1.023,0-1.414S27.184,13.902,26.793,14.293z"/>
	<path style="fill:#546A79;" d="M28.79,12.29c-0.18,0.189-0.29,0.439-0.29,0.71c0,0.27,0.11,0.52,0.29,0.71
		C28.98,13.89,29.24,14,29.5,14c0.26,0,0.52-0.11,0.71-0.29c0.18-0.19,0.29-0.45,0.29-0.71s-0.11-0.521-0.29-0.71
		C29.84,11.92,29.16,11.92,28.79,12.29z"/>
	<path style="fill:#546A79;" d="M33.207,9.293c-0.391-0.391-1.023-0.391-1.414,0l-1,1c-0.391,0.391-0.391,1.023,0,1.414
		C30.988,11.902,31.244,12,31.5,12s0.512-0.098,0.707-0.293l1-1C33.598,10.316,33.598,9.684,33.207,9.293z"/>
</g>
<path style="fill:#38454F;" d="M31.5,5h-3c-0.552,0-1-0.447-1-1s0.448-1,1-1h3c0.552,0,1,0.447,1,1S32.052,5,31.5,5z"/>
<path style="fill:#38454F;" d="M24.5,5c-0.26,0-0.52-0.11-0.71-0.29C23.61,4.52,23.5,4.26,23.5,4c0-0.271,0.11-0.521,0.29-0.71
	c0.38-0.37,1.04-0.37,1.42,0C25.39,3.479,25.5,3.74,25.5,4s-0.11,0.52-0.29,0.71C25.02,4.89,24.76,5,24.5,5z"/>
<circle style="fill:#AFB6BB;" cx="28" cy="49.5" r="2.5"/>
<path style="fill:#AFB6BB;" d="M11.5,9c-0.552,0-1-0.447-1-1V7c0-0.553,0.448-1,1-1s1,0.447,1,1v1C12.5,8.553,12.052,9,11.5,9z"/>
<path style="fill:#AFB6BB;" d="M11.5,13c-0.552,0-1-0.447-1-1v-1c0-0.553,0.448-1,1-1s1,0.447,1,1v1C12.5,12.553,12.052,13,11.5,13z
	"/>
<path style="fill:#AFB6BB;" d="M11.5,17c-0.552,0-1-0.447-1-1v-1c0-0.553,0.448-1,1-1s1,0.447,1,1v1C12.5,16.553,12.052,17,11.5,17z
	"/>
<g>
</g>
<g>
</g>
<g>
</g>
<g>
</g>
<g>
</g>
<g>
</g>
<g>
</g>
<g>
</g>
<g>
</g>
<g>
</g>
<g>
</g>
<g>
</g>
<g>
</g>
<g>
</g>
<g>
</g>
</svg>
