<?xml version="1.0" encoding="iso-8859-1"?>
<!-- Generator: Adobe Illustrator 19.0.0, SVG Export Plug-In . SVG Version: 6.00 Build 0)  -->
<svg version="1.1" id="Capa_1" xmlns="http://www.w3.org/2000/svg" xmlns:xlink="http://www.w3.org/1999/xlink" x="0px" y="0px"
	 viewBox="0 0 58.006 58.006" style="enable-background:new 0 0 58.006 58.006;" xml:space="preserve">
<path style="fill:#E7ECED;" d="M44.997,58.006H13.01c-1.66,0-3.006-1.346-3.006-3.006V3.006C10.003,1.346,11.349,0,13.01,0h31.987
	c1.66,0,3.006,1.346,3.006,3.006V55C48.003,56.66,46.657,58.006,44.997,58.006z"/>
<circle style="fill:#FFFFFF;" cx="29.003" cy="41.006" r="13"/>
<circle style="fill:#B1B3B4;" cx="29.003" cy="41.006" r="4"/>
<g>
	<path style="fill:#AFB6BB;" d="M30.003,32.006h-2c-0.553,0-1,0.448-1,1s0.447,1,1,1h2c0.553,0,1-0.448,1-1
		S30.556,32.006,30.003,32.006z"/>
	<path style="fill:#AFB6BB;" d="M30.003,48.006h-2c-0.553,0-1,0.448-1,1s0.447,1,1,1h2c0.553,0,1-0.448,1-1
		S30.556,48.006,30.003,48.006z"/>
	<path style="fill:#AFB6BB;" d="M38.003,40.006h-1c-0.553,0-1,0.448-1,1s0.447,1,1,1h1c0.553,0,1-0.448,1-1
		S38.556,40.006,38.003,40.006z"/>
	<path style="fill:#AFB6BB;" d="M21.003,40.006h-1c-0.553,0-1,0.448-1,1s0.447,1,1,1h1c0.553,0,1-0.448,1-1
		S21.556,40.006,21.003,40.006z"/>
</g>
<rect x="15.003" y="5.006" style="fill:#56ADF0;" width="28" height="19"/>
<line style="fill:none;stroke:#1081E0;stroke-width:2;stroke-linecap:round;stroke-miterlimit:10;" x1="18.003" y1="12.003" x2="22.003" y2="8.003"/>
<line style="fill:none;stroke:#1081E0;stroke-width:2;stroke-linecap:round;stroke-miterlimit:10;" x1="18.003" y1="17.003" x2="20.003" y2="15.003"/>
<line style="fill:none;stroke:#1081E0;stroke-width:2;stroke-linecap:round;stroke-miterlimit:10;" x1="22.003" y1="13.003" x2="22.003" y2="13.003"/>
<line style="fill:none;stroke:#1081E0;stroke-width:2;stroke-linecap:round;stroke-miterlimit:10;" x1="24.003" y1="11.003" x2="27.003" y2="8.003"/>
<g>
</g>
<g>
</g>
<g>
</g>
<g>
</g>
<g>
</g>
<g>
</g>
<g>
</g>
<g>
</g>
<g>
</g>
<g>
</g>
<g>
</g>
<g>
</g>
<g>
</g>
<g>
</g>
<g>
</g>
</svg>
