<?xml version="1.0" encoding="iso-8859-1"?>
<!-- Generator: Adobe Illustrator 19.0.0, SVG Export Plug-In . SVG Version: 6.00 Build 0)  -->
<svg version="1.1" id="Capa_1" xmlns="http://www.w3.org/2000/svg" xmlns:xlink="http://www.w3.org/1999/xlink" x="0px" y="0px"
	 viewBox="0 0 53 53" style="enable-background:new 0 0 53 53;" xml:space="preserve">
<path style="fill:#E7ECED;" d="M43.5,40h-34c-3.3,0-6-2.7-6-6V6c0-3.3,2.7-6,6-6h34c3.3,0,6,2.7,6,6v28C49.5,37.3,46.8,40,43.5,40z"
	/>
<path style="fill:#AFB6BB;" d="M43.5,40h-34c-3.3,0-6-2.7-6-6v13c0,3.3,2.7,6,6,6h34c3.3,0,6-2.7,6-6V34C49.5,37.3,46.8,40,43.5,40z
	"/>
<line style="fill:none;stroke:#E7ECED;stroke-width:2;stroke-linecap:round;stroke-miterlimit:10;" x1="11.5" y1="46" x2="41.5" y2="46"/>
<path style="fill:#AFB6BB;" d="M29.778,20.401c-0.827-0.599-1.449-1.502-1.559-2.517c-0.032-0.291-0.027-0.575,0.008-0.849
	c0.149-1.148-1.002-2.113-2.086-1.709c-0.784,0.292-1.638,0.858-2.592,1.845c-0.888,0.92-1.438,2.123-1.428,3.402
	C22.144,23.575,24.583,26,27.59,26c1.925,0,3.606-0.998,4.573-2.503c0.615-0.957,0.026-2.171-1.076-2.454
	C30.672,20.936,30.236,20.734,29.778,20.401z"/>
<g>
</g>
<g>
</g>
<g>
</g>
<g>
</g>
<g>
</g>
<g>
</g>
<g>
</g>
<g>
</g>
<g>
</g>
<g>
</g>
<g>
</g>
<g>
</g>
<g>
</g>
<g>
</g>
<g>
</g>
</svg>
