<?xml version="1.0" encoding="iso-8859-1"?>
<!-- Generator: Adobe Illustrator 19.0.0, SVG Export Plug-In . SVG Version: 6.00 Build 0)  -->
<svg version="1.1" id="Capa_1" xmlns="http://www.w3.org/2000/svg" xmlns:xlink="http://www.w3.org/1999/xlink" x="0px" y="0px"
	 viewBox="0 0 58 58" style="enable-background:new 0 0 58 58;" xml:space="preserve">
<path style="fill:#E7ECED;" d="M55,47V11.067C55,9.373,53.627,8,51.933,8H6.067C4.373,8,3,9.373,3,11.067V47H55z"/>
<rect y="47" style="fill:#AFB6BB;" width="58" height="3"/>
<rect x="6" y="11" style="fill:#546A79;" width="46" height="29"/>
<g>
	<path style="fill:#839CAA;" d="M11,21c0.256,0,0.512-0.098,0.707-0.293l4-4c0.391-0.391,0.391-1.023,0-1.414s-1.023-0.391-1.414,0
		l-4,4c-0.391,0.391-0.391,1.023,0,1.414C10.488,20.902,10.744,21,11,21z"/>
	<path style="fill:#839CAA;" d="M11,26c0.256,0,0.512-0.098,0.707-0.293l2-2c0.391-0.391,0.391-1.023,0-1.414s-1.023-0.391-1.414,0
		l-2,2c-0.391,0.391-0.391,1.023,0,1.414C10.488,25.902,10.744,26,11,26z"/>
	<path style="fill:#839CAA;" d="M14.29,20.29C14.109,20.48,14,20.73,14,21s0.109,0.52,0.29,0.71C14.479,21.89,14.74,22,15,22
		s0.52-0.11,0.71-0.29C15.89,21.52,16,21.26,16,21c0-0.26-0.11-0.52-0.29-0.71C15.34,19.92,14.66,19.92,14.29,20.29z"/>
	<path style="fill:#839CAA;" d="M16.293,19.707C16.488,19.902,16.744,20,17,20s0.512-0.098,0.707-0.293l3-3
		c0.391-0.391,0.391-1.023,0-1.414s-1.023-0.391-1.414,0l-3,3C15.902,18.684,15.902,19.316,16.293,19.707z"/>
	<path style="fill:#839CAA;" d="M19.293,20.293l-9,9c-0.391,0.391-0.391,1.023,0,1.414C10.488,30.902,10.744,31,11,31
		s0.512-0.098,0.707-0.293l9-9c0.391-0.391,0.391-1.023,0-1.414S19.684,19.902,19.293,20.293z"/>
	<path style="fill:#839CAA;" d="M21.29,18.29C21.109,18.48,21,18.74,21,19c0,0.26,0.109,0.52,0.29,0.71C21.479,19.89,21.74,20,22,20
		s0.52-0.11,0.71-0.29C22.89,19.52,23,19.26,23,19c0-0.26-0.11-0.52-0.29-0.71C22.34,17.92,21.66,17.92,21.29,18.29z"/>
	<path style="fill:#839CAA;" d="M25.707,15.293c-0.391-0.391-1.023-0.391-1.414,0l-1,1c-0.391,0.391-0.391,1.023,0,1.414
		C23.488,17.902,23.744,18,24,18s0.512-0.098,0.707-0.293l1-1C26.098,16.316,26.098,15.684,25.707,15.293z"/>
</g>
<path style="fill:#6C797A;" d="M31,44h-4c-0.553,0-1-0.448-1-1s0.447-1,1-1h4c0.553,0,1,0.448,1,1S31.553,44,31,44z"/>
<g>
</g>
<g>
</g>
<g>
</g>
<g>
</g>
<g>
</g>
<g>
</g>
<g>
</g>
<g>
</g>
<g>
</g>
<g>
</g>
<g>
</g>
<g>
</g>
<g>
</g>
<g>
</g>
<g>
</g>
</svg>
