<?xml version="1.0" encoding="iso-8859-1"?>
<!-- Generator: Adobe Illustrator 19.0.0, SVG Export Plug-In . SVG Version: 6.00 Build 0)  -->
<svg version="1.1" id="Capa_1" xmlns="http://www.w3.org/2000/svg" xmlns:xlink="http://www.w3.org/1999/xlink" x="0px" y="0px"
	 viewBox="0 0 56 56" style="enable-background:new 0 0 56 56;" xml:space="preserve">
<circle style="fill:none;stroke:#E7ECED;stroke-width:2;stroke-miterlimit:10;" cx="21.5" cy="43" r="12"/>
<path style="fill:none;stroke:#E7ECED;stroke-width:2;stroke-miterlimit:10;" d="M1.5,19v17.514v-0.973
	C1.5,46.296,10.204,55,20.959,55C33.867,55,44.5,47.556,44.5,34.649V30"/>
<circle style="fill:none;stroke:#E7ECED;stroke-width:2;stroke-miterlimit:10;" cx="21.5" cy="40" r="15"/>
<rect x="0.5" y="9" style="fill:#E7ECED;" width="4" height="11"/>
<rect x="4.5" y="11" style="fill:#AFB6BB;" width="3" height="7"/>
<rect x="42.5" y="26" style="fill:#AFB6BB;" width="4" height="5"/>
<path style="fill:#E7ECED;" d="M54.149,26H34.851c-0.746,0-1.351-0.605-1.351-1.351V6.351C33.5,5.605,34.105,5,34.851,5h19.298
	C54.895,5,55.5,5.605,55.5,6.351v18.298C55.5,25.395,54.895,26,54.149,26z"/>
<line style="fill:none;stroke:#6C797A;stroke-width:2;stroke-linecap:round;stroke-miterlimit:10;" x1="36.5" y1="1" x2="36.5" y2="5"/>
<line style="fill:none;stroke:#6C797A;stroke-width:2;stroke-linecap:round;stroke-miterlimit:10;" x1="40.5" y1="1" x2="40.5" y2="5"/>
<path style="fill:#D4D7D8;" d="M42.149,13h-7.298c-0.746,0-1.351-0.605-1.351-1.351V6.351C33.5,5.605,34.105,5,34.851,5h7.298
	C42.895,5,43.5,5.605,43.5,6.351v5.298C43.5,12.395,42.895,13,42.149,13z"/>
<g>
</g>
<g>
</g>
<g>
</g>
<g>
</g>
<g>
</g>
<g>
</g>
<g>
</g>
<g>
</g>
<g>
</g>
<g>
</g>
<g>
</g>
<g>
</g>
<g>
</g>
<g>
</g>
<g>
</g>
</svg>
