<?xml version="1.0" encoding="iso-8859-1"?>
<!-- Generator: Adobe Illustrator 19.0.0, SVG Export Plug-In . SVG Version: 6.00 Build 0)  -->
<svg version="1.1" id="Capa_1" xmlns="http://www.w3.org/2000/svg" xmlns:xlink="http://www.w3.org/1999/xlink" x="0px" y="0px"
	 viewBox="0 0 57 57" style="enable-background:new 0 0 57 57;" xml:space="preserve">
<path style="fill:#CBD4D8;" d="M38.5,17c-0.552,0-1-0.447-1-1s0.448-1,1-1h6v-2h-9c-0.552,0-1-0.447-1-1s0.448-1,1-1h9V7.385
	c0-2.434-1.183-4.587-3-5.932V6c0,0.553-0.448,1-1,1s-1-0.447-1-1V0.401c-0.633-0.216-1.303-0.346-2-0.382V5c0,0.553-0.448,1-1,1
	s-1-0.447-1-1V0h-2v4c0,0.553-0.448,1-1,1s-1-0.447-1-1V0h-2v3c0,0.553-0.448,1-1,1s-1-0.447-1-1V0h-2v4c0,0.553-0.448,1-1,1
	s-1-0.447-1-1V0h-2v5c0,0.553-0.448,1-1,1s-1-0.447-1-1V0.02c-0.697,0.036-1.367,0.166-2,0.382V6c0,0.553-0.448,1-1,1s-1-0.447-1-1
	V1.453c-1.817,1.345-3,3.498-3,5.932V11h9c0.552,0,1,0.447,1,1s-0.448,1-1,1h-9v2h6c0.552,0,1,0.447,1,1s-0.448,1-1,1h-6v2h5
	c0.552,0,1,0.447,1,1s-0.448,1-1,1h-5v2h6c0.552,0,1,0.447,1,1s-0.448,1-1,1h-6v2h8c0.552,0,1,0.447,1,1s-0.448,1-1,1h-8v7.049
	c0,1.852,1.28,3.395,3,3.823V35c0-0.553,0.448-1,1-1s1,0.447,1,1v5h2v-5c0-0.553,0.448-1,1-1s1,0.447,1,1v5h2v-5
	c0-0.553,0.448-1,1-1s1,0.447,1,1v5h2v-5c0-0.553,0.448-1,1-1s1,0.447,1,1v5h2v-5c0-0.553,0.448-1,1-1s1,0.447,1,1v5h2v-5
	c0-0.553,0.448-1,1-1s1,0.447,1,1v5h2v-5c0-0.553,0.448-1,1-1s1,0.447,1,1v4.872c1.72-0.427,3-1.97,3-3.823V29h-9
	c-0.552,0-1-0.447-1-1s0.448-1,1-1h9v-2h-6c-0.552,0-1-0.447-1-1s0.448-1,1-1h6v-2h-5c-0.552,0-1-0.447-1-1s0.448-1,1-1h5v-2H38.5z"
	/>
<path style="fill:#E0E1E2;" d="M27.5,3V0h-2v4c0,0.553-0.448,1-1,1s-1-0.447-1-1V0h-2v5c0,0.553-0.448,1-1,1s-1-0.447-1-1V0.02
	c-0.697,0.036-1.367,0.166-2,0.382V6c0,0.553-0.448,1-1,1s-1-0.447-1-1V1.453c-1.817,1.345-3,3.498-3,5.932V11h9
	c0.552,0,1,0.447,1,1s-0.448,1-1,1h-9v2h6c0.552,0,1,0.447,1,1s-0.448,1-1,1h-6v2h5c0.552,0,1,0.447,1,1s-0.448,1-1,1h-5v2h6
	c0.552,0,1,0.447,1,1s-0.448,1-1,1h-6v2h8c0.552,0,1,0.447,1,1s-0.448,1-1,1h-8v7.049c0,1.852,1.28,3.395,3,3.823V35
	c0-0.553,0.448-1,1-1s1,0.447,1,1v5h2v-5c0-0.553,0.448-1,1-1s1,0.447,1,1v5h2v-5c0-0.553,0.448-1,1-1s1,0.447,1,1v5h2v-5
	c0-0.553,0.448-1,1-1V4C27.948,4,27.5,3.553,27.5,3z"/>
<path style="fill:#6C797A;" d="M34.5,12c0,0.553,0.448,1,1,1h9v-2h-9C34.948,11,34.5,11.447,34.5,12z"/>
<path style="fill:#6C797A;" d="M37.5,16c0,0.553,0.448,1,1,1h6v-2h-6C37.948,15,37.5,15.447,37.5,16z"/>
<path style="fill:#6C797A;" d="M38.5,20c0,0.553,0.448,1,1,1h5v-2h-5C38.948,19,38.5,19.447,38.5,20z"/>
<path style="fill:#6C797A;" d="M34.5,28c0,0.553,0.448,1,1,1h9v-2h-9C34.948,27,34.5,27.447,34.5,28z"/>
<path style="fill:#6C797A;" d="M37.5,24c0,0.553,0.448,1,1,1h6v-2h-6C37.948,23,37.5,23.447,37.5,24z"/>
<path style="fill:#6C797A;" d="M22.5,12c0-0.553-0.448-1-1-1h-9v2h9C22.052,13,22.5,12.553,22.5,12z"/>
<path style="fill:#6C797A;" d="M19.5,16c0-0.553-0.448-1-1-1h-6v2h6C19.052,17,19.5,16.553,19.5,16z"/>
<path style="fill:#6C797A;" d="M18.5,20c0-0.553-0.448-1-1-1h-5v2h5C18.052,21,18.5,20.553,18.5,20z"/>
<path style="fill:#6C797A;" d="M21.5,28c0-0.553-0.448-1-1-1h-8v2h8C21.052,29,21.5,28.553,21.5,28z"/>
<path style="fill:#6C797A;" d="M19.5,24c0-0.553-0.448-1-1-1h-6v2h6C19.052,25,19.5,24.553,19.5,24z"/>
<path style="fill:#6C797A;" d="M16.5,7c0.552,0,1-0.447,1-1V0.401c-0.725,0.248-1.397,0.605-2,1.052V6C15.5,6.553,15.948,7,16.5,7z"
	/>
<path style="fill:#6C797A;" d="M20.5,6c0.552,0,1-0.447,1-1V0h-1.615c-0.13,0-0.257,0.013-0.385,0.02V5C19.5,5.553,19.948,6,20.5,6z
	"/>
<path style="fill:#6C797A;" d="M24.5,5c0.552,0,1-0.447,1-1V0h-2v4C23.5,4.553,23.948,5,24.5,5z"/>
<path style="fill:#6C797A;" d="M28.5,4c0.552,0,1-0.447,1-1V0h-2v3C27.5,3.553,27.948,4,28.5,4z"/>
<path style="fill:#6C797A;" d="M32.5,5c0.552,0,1-0.447,1-1V0h-2v4C31.5,4.553,31.948,5,32.5,5z"/>
<path style="fill:#6C797A;" d="M36.5,6c0.552,0,1-0.447,1-1V0.02C37.372,0.013,37.245,0,37.115,0H35.5v5C35.5,5.553,35.948,6,36.5,6
	z"/>
<path style="fill:#6C797A;" d="M40.5,7c0.552,0,1-0.447,1-1V1.453c-0.603-0.447-1.275-0.804-2-1.052V6C39.5,6.553,39.948,7,40.5,7z"
	/>
<path style="fill:#6C797A;" d="M40.5,34c-0.552,0-1,0.447-1,1v5h1.049c0.33,0,0.645-0.052,0.951-0.128V35
	C41.5,34.447,41.052,34,40.5,34z"/>
<path style="fill:#6C797A;" d="M36.5,34c-0.552,0-1,0.447-1,1v5h2v-5C37.5,34.447,37.052,34,36.5,34z"/>
<path style="fill:#6C797A;" d="M32.5,34c-0.552,0-1,0.447-1,1v5h2v-5C33.5,34.447,33.052,34,32.5,34z"/>
<path style="fill:#6C797A;" d="M28.5,34c-0.552,0-1,0.447-1,1v5h2v-5C29.5,34.447,29.052,34,28.5,34z"/>
<path style="fill:#6C797A;" d="M24.5,34c-0.552,0-1,0.447-1,1v5h2v-5C25.5,34.447,25.052,34,24.5,34z"/>
<path style="fill:#6C797A;" d="M20.5,34c-0.552,0-1,0.447-1,1v5h2v-5C21.5,34.447,21.052,34,20.5,34z"/>
<path style="fill:#6C797A;" d="M16.5,34c-0.552,0-1,0.447-1,1v4.872C15.806,39.948,16.121,40,16.451,40H17.5v-5
	C17.5,34.447,17.052,34,16.5,34z"/>
<path style="fill:#E0E1E2;" d="M31.119,46h-5.239c-0.762,0-1.381-0.618-1.381-1.381V40h8v4.619C32.5,45.382,31.882,46,31.119,46z"/>
<rect x="26.5" y="46" style="fill:#CBD4D8;" width="4" height="7"/>
<path style="fill:#E0E1E2;" d="M36.5,57h-16c-1.105,0-2-0.895-2-2v0c0-1.105,0.895-2,2-2h16c1.105,0,2,0.895,2,2v0
	C38.5,56.105,37.605,57,36.5,57z"/>
<circle style="fill:#E7ECED;" cx="28.5" cy="20" r="5"/>
<g>
</g>
<g>
</g>
<g>
</g>
<g>
</g>
<g>
</g>
<g>
</g>
<g>
</g>
<g>
</g>
<g>
</g>
<g>
</g>
<g>
</g>
<g>
</g>
<g>
</g>
<g>
</g>
<g>
</g>
</svg>
