<?xml version="1.0" encoding="iso-8859-1"?>
<!-- Generator: Adobe Illustrator 19.0.0, SVG Export Plug-In . SVG Version: 6.00 Build 0)  -->
<svg version="1.1" id="Capa_1" xmlns="http://www.w3.org/2000/svg" xmlns:xlink="http://www.w3.org/1999/xlink" x="0px" y="0px"
	 viewBox="0 0 58 58" style="enable-background:new 0 0 58 58;" xml:space="preserve">
<path style="fill:#CED5D8;" d="M37.917,21c-0.552,0-1-0.447-1-1s0.448-1,1-1H41v-2h-3.083c-0.552,0-1-0.447-1-1s0.448-1,1-1H41v-3
	c0-3.021-1.14-5.782-3-7.898V7c0,0.553-0.448,1-1,1s-1-0.447-1-1V3.075c0-0.237,0.094-0.446,0.232-0.618
	C35.542,1.932,34.795,1.48,34,1.112V6c0,0.553-0.448,1-1,1s-1-0.447-1-1V0.689c0-0.098,0.03-0.188,0.056-0.278
	C31.39,0.235,30.705,0.11,30,0.051V5c0,0.553-0.448,1-1,1s-1-0.447-1-1V0.051c-0.703,0.059-1.387,0.184-2.051,0.36
	C25.971,0.493,26,0.573,26,0.663V6c0,0.553-0.448,1-1,1s-1-0.447-1-1V1.112c-0.795,0.368-1.542,0.82-2.232,1.346
	C21.906,2.629,22,2.838,22,3.075V7c0,0.553-0.448,1-1,1s-1-0.447-1-1V4.102C18.14,6.218,17,8.979,17,12v3h3.083c0.552,0,1,0.447,1,1
	s-0.448,1-1,1H17v2h3.083c0.552,0,1,0.447,1,1s-0.448,1-1,1H17v2h3.083c0.552,0,1,0.447,1,1s-0.448,1-1,1H17v2h3.083
	c0.552,0,1,0.447,1,1s-0.448,1-1,1H17v3c0,3.021,1.14,5.782,3,7.898v-3.897c0-0.553,0.448-1,1-1s1,0.447,1,1v4.925
	c0,0.237-0.094,0.446-0.232,0.617c0.691,0.526,1.437,0.978,2.232,1.346v-4.887c0-0.553,0.448-1,1-1s1,0.447,1,1v5.31
	c0,0.098-0.03,0.188-0.056,0.278c0.666,0.177,1.351,0.302,2.056,0.361v-4.948c0-0.553,0.448-1,1-1s1,0.447,1,1v4.948
	c0.703-0.059,1.387-0.184,2.051-0.36C32.029,43.507,32,43.427,32,43.337v-5.336c0-0.553,0.448-1,1-1s1,0.447,1,1v4.887
	c0.795-0.368,1.541-0.82,2.232-1.346C36.094,41.371,36,41.163,36,40.926v-4.925c0-0.553,0.448-1,1-1s1,0.447,1,1v3.897
	c1.86-2.115,3-4.877,3-7.898v-3h-3.083c-0.552,0-1-0.447-1-1s0.448-1,1-1H41v-2h-3.083c-0.552,0-1-0.447-1-1s0.448-1,1-1H41v-2
	H37.917z"/>
<path style="fill:#E7ECED;" d="M21,8c0.552,0,1-0.447,1-1V3.075c0-0.237-0.094-0.446-0.232-0.618
	C21.125,2.947,20.533,3.496,20,4.102V7C20,7.553,20.448,8,21,8z"/>
<path style="fill:#E7ECED;" d="M25,7c0.552,0,1-0.447,1-1V0.663c0-0.09-0.029-0.17-0.051-0.252C25.274,0.589,24.623,0.823,24,1.112
	V6C24,6.553,24.448,7,25,7z"/>
<path style="fill:#E7ECED;" d="M29,6c0.552,0,1-0.447,1-1V0.051C29.669,0.023,29.337,0,29,0s-0.669,0.023-1,0.051V5
	C28,5.553,28.448,6,29,6z"/>
<path style="fill:#E7ECED;" d="M32,6c0,0.553,0.448,1,1,1s1-0.447,1-1V1.112c-0.622-0.288-1.271-0.521-1.944-0.7
	C32.03,0.502,32,0.591,32,0.689V6z"/>
<path style="fill:#E7ECED;" d="M36,7c0,0.553,0.448,1,1,1s1-0.447,1-1V4.102c-0.533-0.606-1.125-1.156-1.768-1.645
	C36.094,2.629,36,2.838,36,3.075V7z"/>
<path style="fill:#E7ECED;" d="M37,35.001c-0.552,0-1,0.447-1,1v4.925c0,0.237,0.094,0.446,0.232,0.617
	c0.643-0.489,1.235-1.039,1.768-1.645v-3.897C38,35.448,37.552,35.001,37,35.001z"/>
<path style="fill:#E7ECED;" d="M33,37.001c-0.552,0-1,0.447-1,1v5.336c0,0.09,0.029,0.17,0.051,0.252
	c0.675-0.179,1.326-0.412,1.949-0.701v-4.887C34,37.448,33.552,37.001,33,37.001z"/>
<path style="fill:#E7ECED;" d="M29,38.001c-0.552,0-1,0.447-1,1v4.948C28.331,43.977,28.663,44,29,44s0.669-0.023,1-0.051v-4.948
	C30,38.448,29.552,38.001,29,38.001z"/>
<path style="fill:#E7ECED;" d="M26,38.001c0-0.553-0.448-1-1-1s-1,0.447-1,1v4.887c0.622,0.288,1.271,0.521,1.944,0.7
	C25.97,43.498,26,43.409,26,43.311V38.001z"/>
<path style="fill:#E7ECED;" d="M22,36.001c0-0.553-0.448-1-1-1s-1,0.447-1,1v3.897c0.533,0.606,1.125,1.156,1.768,1.645
	C21.906,41.371,22,41.163,22,40.926V36.001z"/>
<path style="fill:#E7ECED;" d="M36.917,16c0,0.553,0.448,1,1,1H41v-2h-3.083C37.364,15,36.917,15.447,36.917,16z"/>
<path style="fill:#E7ECED;" d="M36.917,20c0,0.553,0.448,1,1,1H41v-2h-3.083C37.364,19,36.917,19.447,36.917,20z"/>
<path style="fill:#E7ECED;" d="M36.917,24c0,0.553,0.448,1,1,1H41v-2h-3.083C37.364,23,36.917,23.447,36.917,24z"/>
<path style="fill:#E7ECED;" d="M36.917,28c0,0.553,0.448,1,1,1H41v-2h-3.083C37.364,27,36.917,27.447,36.917,28z"/>
<path style="fill:#E7ECED;" d="M21.083,28c0-0.553-0.448-1-1-1H17v2h3.083C20.636,29,21.083,28.553,21.083,28z"/>
<path style="fill:#E7ECED;" d="M21.083,24c0-0.553-0.448-1-1-1H17v2h3.083C20.636,25,21.083,24.553,21.083,24z"/>
<path style="fill:#E7ECED;" d="M21.083,20c0-0.553-0.448-1-1-1H17v2h3.083C20.636,21,21.083,20.553,21.083,20z"/>
<path style="fill:#E7ECED;" d="M21.083,16c0-0.553-0.448-1-1-1H17v2h3.083C20.636,17,21.083,16.553,21.083,16z"/>
<rect x="27" y="47" style="fill:#AFB6BB;" width="4" height="7"/>
<path style="fill:#E7ECED;" d="M37,58H21c-1.105,0-2-0.895-2-2v0c0-1.105,0.895-2,2-2h16c1.105,0,2,0.895,2,2v0
	C39,57.105,38.105,58,37,58z"/>
<path style="fill:#E7ECED;" d="M29,44c-1.403,0-2.746-0.257-4-0.704v2.324C25,46.382,25.618,47,26.381,47h5.239
	C32.382,47,33,46.382,33,45.619v-2.324C31.746,43.743,30.403,44,29,44z"/>
<circle style="fill:#AFB6BB;" cx="29" cy="22" r="4"/>
<g>
</g>
<g>
</g>
<g>
</g>
<g>
</g>
<g>
</g>
<g>
</g>
<g>
</g>
<g>
</g>
<g>
</g>
<g>
</g>
<g>
</g>
<g>
</g>
<g>
</g>
<g>
</g>
<g>
</g>
</svg>
