<?xml version="1.0" encoding="iso-8859-1"?>
<!-- Generator: Adobe Illustrator 19.0.0, SVG Export Plug-In . SVG Version: 6.00 Build 0)  -->
<svg version="1.1" id="Capa_1" xmlns="http://www.w3.org/2000/svg" xmlns:xlink="http://www.w3.org/1999/xlink" x="0px" y="0px"
	 viewBox="0 0 58.2 58.2" style="enable-background:new 0 0 58.2 58.2;" xml:space="preserve">
<path style="fill:#CBD4D8;" d="M29.1,58.2c-9.098,0-16.5-7.402-16.5-16.5V16.5C12.6,7.402,20.002,0,29.1,0s16.5,7.402,16.5,16.5
	v25.2C45.6,50.798,38.198,58.2,29.1,58.2z"/>
<path style="fill:#38454F;" d="M29.1,55.2L29.1,55.2c-7.425,0-13.5-6.075-13.5-13.5V16.5C15.6,9.075,21.675,3,29.1,3h0
	c7.425,0,13.5,6.075,13.5,13.5v25.2C42.6,49.125,36.525,55.2,29.1,55.2z"/>
<path style="fill:#546A79;" d="M42.466,14.709c-2.92,0.096-5.266,3.275-5.266,7.191c0,3.976,2.418,7.2,5.4,7.2V16.5
	C42.6,15.892,42.545,15.297,42.466,14.709z"/>
<path style="fill:#546A79;" d="M15.734,14.709C15.655,15.297,15.6,15.892,15.6,16.5v12.6c2.982,0,5.4-3.224,5.4-7.2
	C21,17.984,18.654,14.805,15.734,14.709z"/>
<circle style="fill:#546A79;" cx="29.55" cy="16.05" r="2.25"/>
<path style="fill:#FFFFFF;" d="M30.412,42.635c-0.52-0.376-0.911-0.944-0.98-1.582c-0.02-0.183-0.017-0.361,0.005-0.533
	c0.094-0.721-0.63-1.328-1.311-1.074c-0.493,0.184-1.03,0.539-1.629,1.16c-0.558,0.578-0.904,1.335-0.897,2.138
	c0.014,1.886,1.548,3.41,3.437,3.41c1.21,0,2.267-0.627,2.874-1.573c0.386-0.602,0.016-1.364-0.676-1.542
	C30.974,42.971,30.701,42.844,30.412,42.635z"/>
<g>
</g>
<g>
</g>
<g>
</g>
<g>
</g>
<g>
</g>
<g>
</g>
<g>
</g>
<g>
</g>
<g>
</g>
<g>
</g>
<g>
</g>
<g>
</g>
<g>
</g>
<g>
</g>
<g>
</g>
</svg>
