<?xml version="1.0" encoding="iso-8859-1"?>
<!-- Generator: Adobe Illustrator 19.0.0, SVG Export Plug-In . SVG Version: 6.00 Build 0)  -->
<svg version="1.1" id="Capa_1" xmlns="http://www.w3.org/2000/svg" xmlns:xlink="http://www.w3.org/1999/xlink" x="0px" y="0px"
	 viewBox="0 0 58 58" style="enable-background:new 0 0 58 58;" xml:space="preserve">
<path style="fill:#E7ECED;" d="M39.765,56.489l-0.454,0.259C37.876,57.569,36.251,58,34.598,58H23.401
	c-1.653,0-3.278-0.431-4.713-1.252l-0.453-0.259c-2.726-1.558-4.506-4.361-4.756-7.49l-0.027-0.342
	c-1.047-13.084-1.047-26.231,0-39.314l0,0c0.265-3.316,2.246-6.252,5.221-7.739l0,0C20.781,0.549,23.106,0,25.463,0h7.073
	c2.358,0,4.683,0.549,6.791,1.603l0,0c2.975,1.488,4.956,4.423,5.221,7.739l0,0c1.047,13.084,1.047,26.231,0,39.314l-0.027,0.342
	C44.271,52.128,42.491,54.932,39.765,56.489z"/>
<path style="fill:#FFFFFF;" d="M29.858,48.481c-0.52-0.376-0.911-0.944-0.98-1.582c-0.02-0.183-0.017-0.361,0.005-0.533
	c0.094-0.721-0.63-1.328-1.311-1.074c-0.493,0.184-1.03,0.539-1.629,1.16c-0.558,0.578-0.904,1.335-0.897,2.138
	c0.014,1.886,1.548,3.41,3.437,3.41c1.21,0,2.267-0.627,2.874-1.573c0.386-0.602,0.016-1.364-0.676-1.542
	C30.421,48.817,30.147,48.69,29.858,48.481z"/>
<g>
</g>
<g>
</g>
<g>
</g>
<g>
</g>
<g>
</g>
<g>
</g>
<g>
</g>
<g>
</g>
<g>
</g>
<g>
</g>
<g>
</g>
<g>
</g>
<g>
</g>
<g>
</g>
<g>
</g>
</svg>
