<?xml version="1.0" encoding="iso-8859-1"?>
<!-- Generator: Adobe Illustrator 19.0.0, SVG Export Plug-In . SVG Version: 6.00 Build 0)  -->
<svg version="1.1" id="Capa_1" xmlns="http://www.w3.org/2000/svg" xmlns:xlink="http://www.w3.org/1999/xlink" x="0px" y="0px"
	 viewBox="0 0 59 59" style="enable-background:new 0 0 59 59;" xml:space="preserve">
<path style="fill:#E7ECED;" d="M29.5,59L29.5,59C22.075,59,16,52.925,16,45.5v-25C16,13.075,22.075,7,29.5,7h0
	C36.925,7,43,13.075,43,20.5v25C43,52.925,36.925,59,29.5,59z"/>
<path style="fill:#AFB6BB;" d="M42.866,18.509c-2.92,0.096-5.266,3.275-5.266,7.191c0,3.976,2.418,7.2,5.4,7.2V20.3
	C43,19.692,42.945,19.097,42.866,18.509z"/>
<path style="fill:#AFB6BB;" d="M16.134,18.509C16.055,19.097,16,19.692,16,20.3v12.6c2.982,0,5.4-3.224,5.4-7.2
	C21.4,21.784,19.054,18.605,16.134,18.509z"/>
<circle style="fill:#FFFFFF;" cx="29.75" cy="19.25" r="2.25"/>
<path style="fill:#CBD4D8;" d="M31,7h-2c0-1.654-1.346-3-3-3c-2.206,0-4-1.794-4-4h2c0,1.103,0.897,2,2,2C28.757,2,31,4.243,31,7z"
	/>
<path style="fill:#FFFFFF;" d="M31.812,49.481c-0.52-0.376-0.911-0.944-0.98-1.582c-0.02-0.183-0.017-0.361,0.005-0.533
	c0.094-0.721-0.63-1.328-1.311-1.074c-0.493,0.184-1.03,0.539-1.629,1.16C27.339,48.03,26.994,48.786,27,49.59
	c0.014,1.886,1.548,3.41,3.437,3.41c1.21,0,2.267-0.627,2.874-1.573c0.386-0.602,0.016-1.364-0.676-1.542
	C32.374,49.817,32.1,49.69,31.812,49.481z"/>
<g>
</g>
<g>
</g>
<g>
</g>
<g>
</g>
<g>
</g>
<g>
</g>
<g>
</g>
<g>
</g>
<g>
</g>
<g>
</g>
<g>
</g>
<g>
</g>
<g>
</g>
<g>
</g>
<g>
</g>
</svg>
