<?xml version="1.0" encoding="iso-8859-1"?>
<!-- Generator: Adobe Illustrator 19.0.0, SVG Export Plug-In . SVG Version: 6.00 Build 0)  -->
<svg version="1.1" id="Capa_1" xmlns="http://www.w3.org/2000/svg" xmlns:xlink="http://www.w3.org/1999/xlink" x="0px" y="0px"
	 viewBox="0 0 56 56" style="enable-background:new 0 0 56 56;" xml:space="preserve">
<path style="fill:#E7ECED;" d="M35,18c0-0.652,0.419-1.202,1-1.408V1.5H0v34h31v-6.117c0-1.04,0.843-1.883,1.883-1.883H35V18z"/>
<path style="fill:#CBD4D8;" d="M27.22,29.5H9.053c-1.451,0-2.747-0.908-3.242-2.271l0,0c-2.05-5.639-2.05-11.819,0-17.458l0,0
	C6.306,8.408,7.602,7.5,9.053,7.5H27.22c1.451,0,2.747,0.908,3.242,2.271l0,0c2.05,5.639,2.05,11.819,0,17.458l0,0
	C29.966,28.592,28.671,29.5,27.22,29.5z"/>
<path style="fill:#38454F;" d="M12.63,20.5H11.37c-0.753,0-1.37-0.616-1.37-1.37V12.87c0-0.753,0.616-1.37,1.37-1.37h1.261
	c0.753,0,1.37,0.616,1.37,1.37v6.261C14,19.884,13.384,20.5,12.63,20.5z"/>
<path style="fill:#38454F;" d="M24.63,20.5H23.37c-0.753,0-1.37-0.616-1.37-1.37V12.87c0-0.753,0.616-1.37,1.37-1.37h1.261
	c0.753,0,1.37,0.616,1.37,1.37v6.261C26,19.884,25.384,20.5,24.63,20.5z"/>
<path style="fill:#38454F;" d="M19.335,26.5h-2.671C16.298,26.5,16,26.202,16,25.835v-2.671c0-0.367,0.298-0.665,0.665-0.665h2.671
	c0.367,0,0.665,0.298,0.665,0.665v2.671C20,26.202,19.702,26.5,19.335,26.5z"/>
<path style="fill:none;stroke:#AFB6BB;stroke-width:2;stroke-linecap:round;stroke-miterlimit:10;" d="M17,48.5L17,48.5
	c0-3.3,2.7-6,6-6h1c3.3,0,6,2.7,6,6v0v1c0,2.211,1.789,4,4,4h5c2.211,0,4-1.789,4-4"/>
<path style="fill:#CBD4D8;" d="M54.151,27.5H52v2h-3v-2h-4v2h-3v-2h-4v2h-3v-2h-2.117c-1.04,0-1.883,0.843-1.883,1.883v10.881
	c0,2.892,2.344,5.236,5.236,5.236h14.528c2.892,0,5.236-2.344,5.236-5.236V29.349C56,28.328,55.172,27.5,54.151,27.5z"/>
<path style="fill:#D3AA6E;" d="M38,29.5h-3V18c0-0.828,0.672-1.5,1.5-1.5l0,0c0.828,0,1.5,0.672,1.5,1.5V29.5z"/>
<path style="fill:#D3AA6E;" d="M52,29.5h-3V18c0-0.828,0.672-1.5,1.5-1.5l0,0c0.828,0,1.5,0.672,1.5,1.5V29.5z"/>
<rect x="42" y="22.5" style="fill:#839594;" width="3" height="7"/>
<rect x="41" y="45.5" style="fill:#839594;" width="5" height="4"/>
<path style="fill:#AFB6BB;" d="M54.151,27.5H52v2h-3v-2h-4v2h-3v-2h-4v2h-3v-2h-2.117c-1.04,0-1.883,0.843-1.883,1.883v0.268
	c0,1.021,0.828,1.849,1.849,1.849H35h3h4h3h4h3h2.117c1.04,0,1.883-0.843,1.883-1.883v-0.268C56,28.328,55.172,27.5,54.151,27.5z"/>
<g>
</g>
<g>
</g>
<g>
</g>
<g>
</g>
<g>
</g>
<g>
</g>
<g>
</g>
<g>
</g>
<g>
</g>
<g>
</g>
<g>
</g>
<g>
</g>
<g>
</g>
<g>
</g>
<g>
</g>
</svg>
