<?xml version="1.0" encoding="iso-8859-1"?>
<!-- Generator: Adobe Illustrator 19.0.0, SVG Export Plug-In . SVG Version: 6.00 Build 0)  -->
<svg version="1.1" id="Capa_1" xmlns="http://www.w3.org/2000/svg" xmlns:xlink="http://www.w3.org/1999/xlink" x="0px" y="0px"
	 viewBox="0 0 58 58" style="enable-background:new 0 0 58 58;" xml:space="preserve">
<path style="fill:#E0E1E2;" d="M56.365,19H49c-0.614,0-1.19-0.336-1.455-0.89C44.971,12.724,39.48,9,33.112,9
	c-6.368,0-11.859,3.724-14.434,9.11C18.414,18.664,17.837,19,17.223,19H1.635C0.732,19,0,19.732,0,20.635V24h6c0.552,0,1,0.447,1,1
	s-0.448,1-1,1H0v4h6c0.552,0,1,0.447,1,1s-0.448,1-1,1H0v4h6c0.552,0,1,0.447,1,1s-0.448,1-1,1H0v4h6c0.552,0,1,0.447,1,1
	s-0.448,1-1,1H0v3.365C0,48.268,0.732,49,1.635,49h54.729C57.268,49,58,48.268,58,47.365l0-26.729C58,19.732,57.268,19,56.365,19z"
	/>
<g>
	<path style="fill:#AFB6BB;" d="M7,25c0-0.553-0.448-1-1-1H0v1v1h6C6.552,26,7,25.553,7,25z"/>
	<path style="fill:#AFB6BB;" d="M6,30H0v2h6c0.552,0,1-0.447,1-1S6.552,30,6,30z"/>
	<path style="fill:#AFB6BB;" d="M6,36H0v2h6c0.552,0,1-0.447,1-1S6.552,36,6,36z"/>
	<path style="fill:#AFB6BB;" d="M6,42H0v1v1h6c0.552,0,1-0.447,1-1S6.552,42,6,42z"/>
</g>
<path style="fill:#546A79;" d="M33.112,37c-6.617,0-12-5.383-12-12s5.383-12,12-12s12,5.383,12,12S39.729,37,33.112,37z"/>
<g>
	<circle style="fill:#839594;" cx="50" cy="46" r="1"/>
	<circle style="fill:#839594;" cx="54" cy="44" r="1"/>
	<circle style="fill:#839594;" cx="50" cy="42" r="1"/>
	<circle style="fill:#839594;" cx="50" cy="38" r="1"/>
	<circle style="fill:#839594;" cx="54" cy="40" r="1"/>
	<circle style="fill:#839594;" cx="54" cy="36" r="1"/>
	<circle style="fill:#839594;" cx="50" cy="34" r="1"/>
	<circle style="fill:#839594;" cx="50" cy="30" r="1"/>
	<circle style="fill:#839594;" cx="54" cy="32" r="1"/>
	<circle style="fill:#839594;" cx="54" cy="28" r="1"/>
	<circle style="fill:#839594;" cx="50" cy="26" r="1"/>
	<circle style="fill:#839594;" cx="50" cy="22" r="1"/>
	<circle style="fill:#839594;" cx="54" cy="24" r="1"/>
</g>
<path style="fill:#38454F;" d="M7,19H3v-2.402C3,16.268,3.268,16,3.598,16h2.805C6.732,16,7,16.268,7,16.598V19z"/>
<path style="fill:#38454F;" d="M14,19h-4v-2.402C10,16.268,10.268,16,10.598,16h2.805C13.732,16,14,16.268,14,16.598V19z"/>
<rect x="11" y="41" style="fill:#546A79;" width="6" height="4"/>
<rect x="21" y="41" style="fill:#546A79;" width="6" height="4"/>
<circle style="fill:#38454F;" cx="33" cy="25" r="8"/>
<g>
	<path style="fill:#FFFFFF;" d="M35.29,28.29C35.11,28.479,35,28.74,35,29s0.11,0.52,0.29,0.71C35.48,29.89,35.74,30,36,30
		c0.26,0,0.52-0.11,0.71-0.29C36.89,29.52,37,29.26,37,29s-0.11-0.521-0.29-0.71C36.34,27.92,35.67,27.92,35.29,28.29z"/>
	<path style="fill:#FFFFFF;" d="M30.29,20.29C30.11,20.479,30,20.74,30,21s0.11,0.52,0.29,0.71C30.48,21.89,30.74,22,31,22
		c0.26,0,0.52-0.11,0.71-0.29C31.89,21.52,32,21.26,32,21s-0.11-0.521-0.29-0.71C31.34,19.92,30.67,19.92,30.29,20.29z"/>
	<path style="fill:#FFFFFF;" d="M34,20c-0.552,0-1,0.447-1,1s0.448,1,1,1c1.084,0,2,1.374,2,3c0,0.553,0.448,1,1,1s1-0.447,1-1
		C38,22.243,36.206,20,34,20z"/>
</g>
<g>
</g>
<g>
</g>
<g>
</g>
<g>
</g>
<g>
</g>
<g>
</g>
<g>
</g>
<g>
</g>
<g>
</g>
<g>
</g>
<g>
</g>
<g>
</g>
<g>
</g>
<g>
</g>
<g>
</g>
</svg>
