<?xml version="1.0" encoding="iso-8859-1"?>
<!-- Generator: Adobe Illustrator 19.0.0, SVG Export Plug-In . SVG Version: 6.00 Build 0)  -->
<svg version="1.1" id="Capa_1" xmlns="http://www.w3.org/2000/svg" xmlns:xlink="http://www.w3.org/1999/xlink" x="0px" y="0px"
	 viewBox="0 0 58 58" style="enable-background:new 0 0 58 58;" xml:space="preserve">
<path style="fill:#DD352E;" d="M8,14v30.5C8,51.925,14.075,58,21.5,58h0h14h0C28.075,58,22,51.925,22,44.5V14H8z"/>
<path style="fill:#DD352E;" d="M36,23v21.5c0,5.072-2.837,9.51-7,11.816C30.932,57.386,33.147,58,35.5,58h1
	C43.925,58,50,51.925,50,44.5V23H36z"/>
<path style="fill:#38454F;" d="M23.804,14H6.196C5.536,14,5,13.464,5,12.804V6.196C5,5.536,5.536,5,6.196,5h17.607
	C24.464,5,25,5.536,25,6.196v6.607C25,13.464,24.464,14,23.804,14z"/>
<path style="fill:#546A79;" d="M20,9H10C9.447,9,9,8.553,9,8s0.447-1,1-1h10c0.553,0,1,0.447,1,1S20.553,9,20,9z"/>
<path style="fill:#546A79;" d="M20,12H10c-0.553,0-1-0.447-1-1s0.447-1,1-1h10c0.553,0,1,0.447,1,1S20.553,12,20,12z"/>
<path style="fill:#38454F;" d="M51.804,23H34.196C33.536,23,33,22.464,33,21.804v-6.607C33,14.536,33.536,14,34.196,14h17.607
	C52.464,14,53,14.536,53,15.196v6.607C53,22.464,52.464,23,51.804,23z"/>
<path style="fill:#546A79;" d="M48,18H38c-0.553,0-1-0.447-1-1s0.447-1,1-1h10c0.553,0,1,0.447,1,1S48.553,18,48,18z"/>
<path style="fill:#546A79;" d="M48,21H38c-0.553,0-1-0.447-1-1s0.447-1,1-1h10c0.553,0,1,0.447,1,1S48.553,21,48,21z"/>
<g>
	<path style="fill:#B02721;" d="M45,35c-0.553,0-1,0.447-1,1v7.787c0,3.137-1.119,6.179-3.151,8.564
		c-0.357,0.421-0.307,1.052,0.113,1.41C41.15,53.922,41.381,54,41.61,54c0.282,0,0.563-0.119,0.762-0.352
		c2.34-2.747,3.628-6.25,3.628-9.861V36C46,35.447,45.553,35,45,35z"/>
	<path style="fill:#B02721;" d="M42,36c0-0.553-0.447-1-1-1s-1,0.447-1,1v7.787c0,3.139-1.119,6.18-3.151,8.564
		c-0.358,0.42-0.309,1.051,0.112,1.409C37.149,53.922,37.38,54,37.609,54c0.282,0,0.563-0.119,0.761-0.352
		C40.711,50.902,42,47.4,42,43.787V36z"/>
</g>
<path style="fill:#546A79;" d="M13,0v2c0,0.553-0.447,1-1,1s-1-0.447-1-1V0H8v5h14V0H13z"/>
<path style="fill:#839594;" d="M12,3c0.553,0,1-0.447,1-1V0h-2v2C11,2.553,11.447,3,12,3z"/>
<path style="fill:#546A79;" d="M41,9v2c0,0.553-0.447,1-1,1s-1-0.447-1-1V9h-3v5h14V9H41z"/>
<path style="fill:#839594;" d="M40,12c0.553,0,1-0.447,1-1V9h-2v2C39,11.553,39.447,12,40,12z"/>
<path style="fill:#B02721;" d="M35.5,58c-1.836,0-3.589-0.374-5.189-1.046C23.447,56.487,18,50.768,18,43.787V23
	c0-0.553-0.447-1-1-1s-1,0.447-1,1v20.787c0,5.003,2.438,9.436,6.177,12.21C17.383,54.013,14,49.289,14,43.787V23
	c0-0.553-0.447-1-1-1s-1,0.447-1,1v20.787c0,6.494,4.097,12.034,9.835,14.213H35.5z"/>
<g>
</g>
<g>
</g>
<g>
</g>
<g>
</g>
<g>
</g>
<g>
</g>
<g>
</g>
<g>
</g>
<g>
</g>
<g>
</g>
<g>
</g>
<g>
</g>
<g>
</g>
<g>
</g>
<g>
</g>
</svg>
