<?xml version="1.0" encoding="iso-8859-1"?>
<!-- Generator: Adobe Illustrator 19.0.0, SVG Export Plug-In . SVG Version: 6.00 Build 0)  -->
<svg version="1.1" id="Capa_1" xmlns="http://www.w3.org/2000/svg" xmlns:xlink="http://www.w3.org/1999/xlink" x="0px" y="0px"
	 viewBox="0 0 58 58" style="enable-background:new 0 0 58 58;" xml:space="preserve">
<rect y="29" style="fill:#404C5E;" width="58" height="26"/>
<rect x="11" y="33" style="fill:#38454F;stroke:#283238;stroke-width:2;stroke-linecap:round;stroke-miterlimit:10;" width="6" height="18"/>
<rect x="17" y="33" style="fill:#38454F;stroke:#283238;stroke-width:2;stroke-linecap:round;stroke-miterlimit:10;" width="6" height="18"/>
<rect x="23" y="33" style="fill:#38454F;stroke:#283238;stroke-width:2;stroke-linecap:round;stroke-miterlimit:10;" width="6" height="18"/>
<rect x="29" y="33" style="fill:#38454F;stroke:#283238;stroke-width:2;stroke-linecap:round;stroke-miterlimit:10;" width="6" height="18"/>
<rect x="35" y="33" style="fill:#38454F;stroke:#283238;stroke-width:2;stroke-linecap:round;stroke-miterlimit:10;" width="6" height="18"/>
<circle style="fill:#283238;" cx="48" cy="36" r="3"/>
<path style="fill:#546A79;" d="M4,53c-0.553,0-1-0.447-1-1V32c0-0.553,0.447-1,1-1s1,0.447,1,1v20C5,52.553,4.553,53,4,53z"/>
<path style="fill:#546A79;" d="M55,53c-0.553,0-1-0.447-1-1V32c0-0.553,0.447-1,1-1s1,0.447,1,1v20C56,52.553,55.553,53,55,53z"/>
<path style="fill:#546A79;" d="M50,45h-4c-0.553,0-1-0.447-1-1s0.447-1,1-1h4c0.553,0,1,0.447,1,1S50.553,45,50,45z"/>
<path style="fill:#546A79;" d="M50,48h-4c-0.553,0-1-0.447-1-1s0.447-1,1-1h4c0.553,0,1,0.447,1,1S50.553,48,50,48z"/>
<path style="fill:#546A79;" d="M50,51h-4c-0.553,0-1-0.447-1-1s0.447-1,1-1h4c0.553,0,1,0.447,1,1S50.553,51,50,51z"/>
<rect y="3" style="fill:#38454F;" width="58" height="26"/>
<rect x="11" y="7" style="fill:#38454F;stroke:#283238;stroke-width:2;stroke-linecap:round;stroke-miterlimit:10;" width="6" height="18"/>
<rect x="17" y="7" style="fill:#38454F;stroke:#283238;stroke-width:2;stroke-linecap:round;stroke-miterlimit:10;" width="6" height="18"/>
<rect x="23" y="7" style="fill:#38454F;stroke:#283238;stroke-width:2;stroke-linecap:round;stroke-miterlimit:10;" width="6" height="18"/>
<rect x="29" y="7" style="fill:#38454F;stroke:#283238;stroke-width:2;stroke-linecap:round;stroke-miterlimit:10;" width="6" height="18"/>
<rect x="35" y="7" style="fill:#38454F;stroke:#283238;stroke-width:2;stroke-linecap:round;stroke-miterlimit:10;" width="6" height="18"/>
<circle style="fill:#283238;" cx="48" cy="10" r="3"/>
<path style="fill:#546A79;" d="M4,27c-0.553,0-1-0.447-1-1V6c0-0.553,0.447-1,1-1s1,0.447,1,1v20C5,26.553,4.553,27,4,27z"/>
<path style="fill:#546A79;" d="M55,27c-0.553,0-1-0.447-1-1V6c0-0.553,0.447-1,1-1s1,0.447,1,1v20C56,26.553,55.553,27,55,27z"/>
<path style="fill:#546A79;" d="M50,19h-4c-0.553,0-1-0.447-1-1s0.447-1,1-1h4c0.553,0,1,0.447,1,1S50.553,19,50,19z"/>
<path style="fill:#546A79;" d="M50,22h-4c-0.553,0-1-0.447-1-1s0.447-1,1-1h4c0.553,0,1,0.447,1,1S50.553,22,50,22z"/>
<path style="fill:#546A79;" d="M50,25h-4c-0.553,0-1-0.447-1-1s0.447-1,1-1h4c0.553,0,1,0.447,1,1S50.553,25,50,25z"/>
<circle style="fill:#21C6F7;" cx="48" cy="36" r="2"/>
<circle style="fill:#21C6F7;" cx="48" cy="10" r="2"/>
<g>
</g>
<g>
</g>
<g>
</g>
<g>
</g>
<g>
</g>
<g>
</g>
<g>
</g>
<g>
</g>
<g>
</g>
<g>
</g>
<g>
</g>
<g>
</g>
<g>
</g>
<g>
</g>
<g>
</g>
</svg>
