<?xml version="1.0" encoding="iso-8859-1"?>
<!-- Generator: Adobe Illustrator 19.0.0, SVG Export Plug-In . SVG Version: 6.00 Build 0)  -->
<svg version="1.1" id="Capa_1" xmlns="http://www.w3.org/2000/svg" xmlns:xlink="http://www.w3.org/1999/xlink" x="0px" y="0px"
	 viewBox="0 0 58 58" style="enable-background:new 0 0 58 58;" xml:space="preserve">
<rect x="12" style="fill:#CBD4D8;" width="34" height="58"/>
<rect x="12" style="fill:#7383BF;" width="34" height="48"/>
<circle style="fill:#546A79;" cx="22" cy="53" r="1"/>
<path style="fill:#AFB6BB;" d="M32,54h-6c-0.553,0-1-0.447-1-1s0.447-1,1-1h6c0.553,0,1,0.447,1,1S32.553,54,32,54z"/>
<path style="fill:#546A79;" d="M37,54h-1c-0.553,0-1-0.447-1-1s0.447-1,1-1h1c0.553,0,1,0.447,1,1S37.553,54,37,54z"/>
<g>
	<path style="fill:#869BDB;" d="M15,8c0.256,0,0.512-0.098,0.707-0.293l4-4c0.391-0.391,0.391-1.023,0-1.414s-1.023-0.391-1.414,0
		l-4,4c-0.391,0.391-0.391,1.023,0,1.414C14.488,7.902,14.744,8,15,8z"/>
	<path style="fill:#869BDB;" d="M15,13c0.256,0,0.512-0.098,0.707-0.293l2-2c0.391-0.391,0.391-1.023,0-1.414s-1.023-0.391-1.414,0
		l-2,2c-0.391,0.391-0.391,1.023,0,1.414C14.488,12.902,14.744,13,15,13z"/>
	<path style="fill:#869BDB;" d="M18.29,7.29C18.109,7.479,18,7.74,18,8s0.109,0.52,0.29,0.71C18.479,8.89,18.729,9,19,9
		c0.26,0,0.52-0.11,0.71-0.29C19.89,8.52,20,8.26,20,8s-0.11-0.521-0.29-0.71C19.34,6.92,18.66,6.92,18.29,7.29z"/>
	<path style="fill:#869BDB;" d="M20.293,6.707C20.488,6.902,20.744,7,21,7s0.512-0.098,0.707-0.293l3-3
		c0.391-0.391,0.391-1.023,0-1.414s-1.023-0.391-1.414,0l-3,3C19.902,5.684,19.902,6.316,20.293,6.707z"/>
	<path style="fill:#869BDB;" d="M23.293,7.293l-9,9c-0.391,0.391-0.391,1.023,0,1.414C14.488,17.902,14.744,18,15,18
		s0.512-0.098,0.707-0.293l9-9c0.391-0.391,0.391-1.023,0-1.414S23.684,6.902,23.293,7.293z"/>
	<path style="fill:#869BDB;" d="M25.29,5.29C25.109,5.479,25,5.729,25,6c0,0.27,0.109,0.52,0.29,0.71C25.479,6.89,25.74,7,26,7
		s0.52-0.11,0.71-0.29C26.89,6.52,27,6.26,27,6s-0.11-0.521-0.29-0.71C26.34,4.92,25.66,4.92,25.29,5.29z"/>
	<path style="fill:#869BDB;" d="M29.707,2.293c-0.391-0.391-1.023-0.391-1.414,0l-1,1c-0.391,0.391-0.391,1.023,0,1.414
		C27.488,4.902,27.744,5,28,5s0.512-0.098,0.707-0.293l1-1C30.098,3.316,30.098,2.684,29.707,2.293z"/>
</g>
<g>
</g>
<g>
</g>
<g>
</g>
<g>
</g>
<g>
</g>
<g>
</g>
<g>
</g>
<g>
</g>
<g>
</g>
<g>
</g>
<g>
</g>
<g>
</g>
<g>
</g>
<g>
</g>
<g>
</g>
</svg>
