<?xml version="1.0" encoding="iso-8859-1"?>
<!-- Generator: Adobe Illustrator 19.0.0, SVG Export Plug-In . SVG Version: 6.00 Build 0)  -->
<svg version="1.1" id="Capa_1" xmlns="http://www.w3.org/2000/svg" xmlns:xlink="http://www.w3.org/1999/xlink" x="0px" y="0px"
	 viewBox="0 0 58 58" style="enable-background:new 0 0 58 58;" xml:space="preserve">
<path style="fill:#CBD4D8;" d="M40,7H18l-4.212,6.425C13.27,14.461,13,15.603,13,16.761v24.478c0,1.158,0.27,2.301,0.788,3.337
	L18,51h22l4.212-6.425C44.73,43.539,45,42.397,45,41.239V16.761c0-1.158-0.27-2.301-0.788-3.337L40,7z"/>
<path style="fill:#283238;" d="M38.579,41H19.421C18.084,41,17,39.916,17,38.579V17.421C17,16.084,18.084,15,19.421,15h19.159
	C39.916,15,41,16.084,41,17.421v21.159C41,39.916,39.916,41,38.579,41z"/>
<path style="fill:#839594;" d="M30.455,48h-2.911C27.244,48,27,47.756,27,47.455v-2.911C27,44.244,27.244,44,27.545,44h2.911
	C30.756,44,31,44.244,31,44.545v2.911C31,47.756,30.756,48,30.455,48z"/>
<rect x="18" style="fill:#283238;" width="22" height="7"/>
<rect x="18" y="51" style="fill:#283238;" width="22" height="7"/>
<g>
	<path style="fill:#38454F;" d="M21,24c0.256,0,0.512-0.098,0.707-0.293l4-4c0.391-0.391,0.391-1.023,0-1.414s-1.023-0.391-1.414,0
		l-4,4c-0.391,0.391-0.391,1.023,0,1.414C20.488,23.902,20.744,24,21,24z"/>
	<path style="fill:#38454F;" d="M21,29c0.256,0,0.512-0.098,0.707-0.293l2-2c0.391-0.391,0.391-1.023,0-1.414s-1.023-0.391-1.414,0
		l-2,2c-0.391,0.391-0.391,1.023,0,1.414C20.488,28.902,20.744,29,21,29z"/>
	<path style="fill:#38454F;" d="M24.29,23.29C24.109,23.479,24,23.729,24,24c0,0.27,0.1,0.52,0.29,0.71
		C24.479,24.899,24.74,25,25,25s0.52-0.101,0.71-0.29C25.89,24.52,26,24.26,26,24s-0.11-0.521-0.29-0.71
		C25.33,22.92,24.68,22.91,24.29,23.29z"/>
	<path style="fill:#38454F;" d="M26.293,22.707C26.488,22.902,26.744,23,27,23s0.512-0.098,0.707-0.293l3-3
		c0.391-0.391,0.391-1.023,0-1.414s-1.023-0.391-1.414,0l-3,3C25.902,21.684,25.902,22.316,26.293,22.707z"/>
	<path style="fill:#38454F;" d="M29.293,23.293l-9,9c-0.391,0.391-0.391,1.023,0,1.414C20.488,33.902,20.744,34,21,34
		s0.512-0.098,0.707-0.293l9-9c0.391-0.391,0.391-1.023,0-1.414S29.684,22.902,29.293,23.293z"/>
	<path style="fill:#38454F;" d="M31.29,21.29C31.109,21.479,31,21.74,31,22s0.109,0.52,0.29,0.71C31.479,22.89,31.74,23,32,23
		s0.52-0.11,0.71-0.29C32.89,22.52,33,22.26,33,22s-0.11-0.521-0.29-0.7C32.34,20.92,31.66,20.92,31.29,21.29z"/>
	<path style="fill:#38454F;" d="M35.707,18.293c-0.391-0.391-1.023-0.391-1.414,0l-1,1c-0.391,0.391-0.391,1.023,0,1.414
		C33.488,20.902,33.744,21,34,21s0.512-0.098,0.707-0.293l1-1C36.098,19.316,36.098,18.684,35.707,18.293z"/>
</g>
<g>
</g>
<g>
</g>
<g>
</g>
<g>
</g>
<g>
</g>
<g>
</g>
<g>
</g>
<g>
</g>
<g>
</g>
<g>
</g>
<g>
</g>
<g>
</g>
<g>
</g>
<g>
</g>
<g>
</g>
</svg>
