<?xml version="1.0" encoding="iso-8859-1"?>
<!-- Generator: Adobe Illustrator 19.0.0, SVG Export Plug-In . SVG Version: 6.00 Build 0)  -->
<svg version="1.1" id="Capa_1" xmlns="http://www.w3.org/2000/svg" xmlns:xlink="http://www.w3.org/1999/xlink" x="0px" y="0px"
	 viewBox="0 0 58 58" style="enable-background:new 0 0 58 58;" xml:space="preserve">
<g>
	<polygon style="fill:#BFA380;" points="15.5,47.623 15.5,58 39.5,58 39.5,47.623 39.5,43.973 15.5,43.973 	"/>
	<polygon style="fill:#BFA380;" points="15.5,0 15.5,8.377 15.5,12.027 39.5,12.027 39.5,8.377 39.5,0 	"/>
</g>
<polyline style="fill:#AFB6BB;" points="47.251,31 51.5,31 51.5,25 47.251,25 "/>
<circle style="fill:#E7ECED;stroke:#283238;stroke-width:2;stroke-linecap:round;stroke-miterlimit:10;" cx="27.5" cy="28" r="20"/>
<g>
	<path style="fill:#FFFFFF;" d="M16.5,21c0.256,0,0.512-0.098,0.707-0.293l4-4c0.391-0.391,0.391-1.023,0-1.414
		s-1.023-0.391-1.414,0l-4,4c-0.391,0.391-0.391,1.023,0,1.414C15.988,20.902,16.244,21,16.5,21z"/>
	<path style="fill:#FFFFFF;" d="M16.5,26c0.256,0,0.512-0.098,0.707-0.293l2-2c0.391-0.391,0.391-1.023,0-1.414
		s-1.023-0.391-1.414,0l-2,2c-0.391,0.391-0.391,1.023,0,1.414C15.988,25.902,16.244,26,16.5,26z"/>
	<path style="fill:#FFFFFF;" d="M19.79,20.29c-0.181,0.189-0.29,0.45-0.29,0.71s0.109,0.52,0.29,0.71C19.979,21.89,20.24,22,20.5,22
		s0.52-0.11,0.71-0.29c0.18-0.19,0.29-0.45,0.29-0.71s-0.11-0.521-0.29-0.71C20.84,19.92,20.16,19.92,19.79,20.29z"/>
	<path style="fill:#FFFFFF;" d="M21.793,19.707C21.988,19.902,22.244,20,22.5,20s0.512-0.098,0.707-0.293l3-3
		c0.391-0.391,0.391-1.023,0-1.414s-1.023-0.391-1.414,0l-3,3C21.402,18.684,21.402,19.316,21.793,19.707z"/>
	<path style="fill:#FFFFFF;" d="M24.793,20.293l-9,9c-0.391,0.391-0.391,1.023,0,1.414C15.988,30.902,16.244,31,16.5,31
		s0.512-0.098,0.707-0.293l9-9c0.391-0.391,0.391-1.023,0-1.414S25.184,19.902,24.793,20.293z"/>
	<path style="fill:#FFFFFF;" d="M26.79,18.29c-0.181,0.189-0.29,0.45-0.29,0.71s0.109,0.52,0.29,0.71C26.979,19.89,27.24,20,27.5,20
		s0.52-0.11,0.71-0.29c0.18-0.19,0.29-0.45,0.29-0.71s-0.11-0.521-0.29-0.71C27.84,17.92,27.16,17.92,26.79,18.29z"/>
	<path style="fill:#FFFFFF;" d="M31.207,15.293c-0.391-0.391-1.023-0.391-1.414,0l-1,1c-0.391,0.391-0.391,1.023,0,1.414
		C28.988,17.902,29.244,18,29.5,18s0.512-0.098,0.707-0.293l1-1C31.598,16.316,31.598,15.684,31.207,15.293z"/>
</g>
<path style="fill:#283238;" d="M13.229,42c3.629,3.699,8.679,6,14.271,6s10.642-2.301,14.271-6H13.229z"/>
<g>
</g>
<g>
</g>
<g>
</g>
<g>
</g>
<g>
</g>
<g>
</g>
<g>
</g>
<g>
</g>
<g>
</g>
<g>
</g>
<g>
</g>
<g>
</g>
<g>
</g>
<g>
</g>
<g>
</g>
</svg>
