<?xml version="1.0" encoding="iso-8859-1"?>
<!-- Generator: Adobe Illustrator 19.0.0, SVG Export Plug-In . SVG Version: 6.00 Build 0)  -->
<svg version="1.1" id="Capa_1" xmlns="http://www.w3.org/2000/svg" xmlns:xlink="http://www.w3.org/1999/xlink" x="0px" y="0px"
	 viewBox="0 0 58 58" style="enable-background:new 0 0 58 58;" xml:space="preserve">
<rect y="5.5" style="fill:#38454F;" width="58" height="38"/>
<path style="fill:#61B872;" d="M13.962,21.5h-2.924C10.465,21.5,10,21.035,10,20.462v-2.924c0-0.573,0.465-1.038,1.038-1.038h2.924
	c0.573,0,1.038,0.465,1.038,1.038v2.924C15,21.035,14.535,21.5,13.962,21.5z"/>
<path style="fill:#48A0DC;" d="M24.962,21.5h-2.924C21.465,21.5,21,21.035,21,20.462v-2.924c0-0.573,0.465-1.038,1.038-1.038h2.924
	c0.573,0,1.038,0.465,1.038,1.038v2.924C26,21.035,25.535,21.5,24.962,21.5z"/>
<path style="fill:#EBBA16;" d="M35.962,21.5h-2.924C32.465,21.5,32,21.035,32,20.462v-2.924c0-0.573,0.465-1.038,1.038-1.038h2.924
	c0.573,0,1.038,0.465,1.038,1.038v2.924C37,21.035,36.535,21.5,35.962,21.5z"/>
<path style="fill:#BF4D90;" d="M46.962,21.5h-2.924C43.465,21.5,43,21.035,43,20.462v-2.924c0-0.573,0.465-1.038,1.038-1.038h2.924
	c0.573,0,1.038,0.465,1.038,1.038v2.924C48,21.035,47.535,21.5,46.962,21.5z"/>
<path style="fill:#DD352E;" d="M13.962,32.5h-2.924C10.465,32.5,10,32.035,10,31.462v-2.924c0-0.573,0.465-1.038,1.038-1.038h2.924
	c0.573,0,1.038,0.465,1.038,1.038v2.924C15,32.035,14.535,32.5,13.962,32.5z"/>
<path style="fill:#A4E869;" d="M24.962,32.5h-2.924C21.465,32.5,21,32.035,21,31.462v-2.924c0-0.573,0.465-1.038,1.038-1.038h2.924
	c0.573,0,1.038,0.465,1.038,1.038v2.924C26,32.035,25.535,32.5,24.962,32.5z"/>
<path style="fill:#50508A;" d="M35.962,32.5h-2.924C32.465,32.5,32,32.035,32,31.462v-2.924c0-0.573,0.465-1.038,1.038-1.038h2.924
	c0.573,0,1.038,0.465,1.038,1.038v2.924C37,32.035,36.535,32.5,35.962,32.5z"/>
<path style="fill:#BE7C6D;" d="M46.962,32.5h-2.924C43.465,32.5,43,32.035,43,31.462v-2.924c0-0.573,0.465-1.038,1.038-1.038h2.924
	c0.573,0,1.038,0.465,1.038,1.038v2.924C48,32.035,47.535,32.5,46.962,32.5z"/>
<polygon style="fill:#AFB6BB;" points="30,49.5 30,43.5 28,43.5 28,49.5 15,49.5 15,52.5 43,52.5 43,49.5 "/>
<g>
</g>
<g>
</g>
<g>
</g>
<g>
</g>
<g>
</g>
<g>
</g>
<g>
</g>
<g>
</g>
<g>
</g>
<g>
</g>
<g>
</g>
<g>
</g>
<g>
</g>
<g>
</g>
<g>
</g>
</svg>
