<?xml version="1.0" encoding="iso-8859-1"?>
<!-- Generator: Adobe Illustrator 19.0.0, SVG Export Plug-In . SVG Version: 6.00 Build 0)  -->
<svg version="1.1" id="Capa_1" xmlns="http://www.w3.org/2000/svg" xmlns:xlink="http://www.w3.org/1999/xlink" x="0px" y="0px"
	 viewBox="0 0 57 57" style="enable-background:new 0 0 57 57;" xml:space="preserve">
<circle style="fill:none;stroke:#6C797A;stroke-width:2;stroke-miterlimit:10;" cx="27" cy="44" r="12"/>
<path style="fill:none;stroke:#6C797A;stroke-width:2;stroke-miterlimit:10;" d="M7,20v17.514v-0.973C7,47.296,15.704,56,26.459,56
	C39.367,56,50,48.556,50,35.649V31"/>
<circle style="fill:none;stroke:#6C797A;stroke-width:2;stroke-miterlimit:10;" cx="27" cy="41" r="15"/>
<rect x="47" y="20" style="fill:#A4E869;" width="6" height="7"/>
<rect x="48" y="27" style="fill:#839594;" width="4" height="5"/>
<path style="fill:#D3AA6E;" d="M52,20h-4v-7c0-1.105,0.895-2,2-2h0c1.105,0,2,0.895,2,2V20z"/>
<rect x="4" y="9" style="fill:#A4E869;" width="6" height="7"/>
<rect x="5" y="16" style="fill:#839594;" width="4" height="5"/>
<path style="fill:#D3AA6E;" d="M9,9H5V2c0-1.105,0.895-2,2-2h0c1.105,0,2,0.895,2,2V9z"/>
<g>
</g>
<g>
</g>
<g>
</g>
<g>
</g>
<g>
</g>
<g>
</g>
<g>
</g>
<g>
</g>
<g>
</g>
<g>
</g>
<g>
</g>
<g>
</g>
<g>
</g>
<g>
</g>
<g>
</g>
</svg>
