<?xml version="1.0" encoding="iso-8859-1"?>
<!-- Generator: Adobe Illustrator 19.0.0, SVG Export Plug-In . SVG Version: 6.00 Build 0)  -->
<svg version="1.1" id="Capa_1" xmlns="http://www.w3.org/2000/svg" xmlns:xlink="http://www.w3.org/1999/xlink" x="0px" y="0px"
	 viewBox="0 0 58 58" style="enable-background:new 0 0 58 58;" xml:space="preserve">
<path style="fill:#283238;" d="M39.581,0H4.419C3.359,0,2.5,0.859,2.5,1.919V4h5c0.552,0,1,0.447,1,1s-0.448,1-1,1h-5v2h5
	c0.552,0,1,0.447,1,1s-0.448,1-1,1h-5v2h5c0.552,0,1,0.447,1,1s-0.448,1-1,1h-5v2h5c0.552,0,1,0.447,1,1s-0.448,1-1,1h-5v31.202
	C2.5,50.195,3.305,51,4.298,51H16.5V5.919C16.5,4.859,17.359,4,18.419,4H41.5V1.919C41.5,0.859,40.641,0,39.581,0z"/>
<g>
	<path style="fill:#546A79;" d="M8.5,5c0-0.553-0.448-1-1-1h-5v2h5C8.052,6,8.5,5.553,8.5,5z"/>
	<path style="fill:#546A79;" d="M7.5,8h-5v2h5c0.552,0,1-0.447,1-1S8.052,8,7.5,8z"/>
	<path style="fill:#546A79;" d="M7.5,12h-5v2h5c0.552,0,1-0.447,1-1S8.052,12,7.5,12z"/>
	<path style="fill:#546A79;" d="M7.5,16h-5v2h5c0.552,0,1-0.447,1-1S8.052,16,7.5,16z"/>
</g>
<line style="fill:none;stroke:#1081E0;stroke-width:2;stroke-linecap:round;stroke-miterlimit:10;" x1="20.5" y1="57" x2="24.5" y2="57"/>
<path style="fill:#546A79;" d="M16.5,17.023c-5.841,2.221-10,7.856-10,14.477s4.159,12.256,10,14.477V17.023z"/>
<path style="fill:#38454F;" d="M53.581,4H18.419C17.359,4,16.5,4.859,16.5,5.919V8h5c0.552,0,1,0.447,1,1s-0.448,1-1,1h-5v2h5
	c0.552,0,1,0.447,1,1s-0.448,1-1,1h-5v2h5c0.552,0,1,0.447,1,1s-0.448,1-1,1h-5v2h5c0.552,0,1,0.447,1,1s-0.448,1-1,1h-5v31.202
	c0,0.993,0.805,1.798,1.798,1.798h35.404c0.993,0,1.798-0.805,1.798-1.798V5.919C55.5,4.859,54.641,4,53.581,4z"/>
<g>
	<path style="fill:#283238;" d="M22.5,9c0-0.553-0.448-1-1-1h-5v2h5C22.052,10,22.5,9.553,22.5,9z"/>
	<path style="fill:#283238;" d="M21.5,12h-5v2h5c0.552,0,1-0.447,1-1S22.052,12,21.5,12z"/>
	<path style="fill:#283238;" d="M21.5,16h-5v2h5c0.552,0,1-0.447,1-1S22.052,16,21.5,16z"/>
	<path style="fill:#283238;" d="M21.5,20h-5v2h5c0.552,0,1-0.447,1-1S22.052,20,21.5,20z"/>
</g>
<path style="fill:#283238;" d="M36,20c4.434,0,8.422,1.871,11.247,4.855c2.54-1.47,4.253-4.21,4.253-7.355
	c0-4.694-3.806-8.5-8.5-8.5s-8.5,3.806-8.5,8.5c0,0.891,0.138,1.749,0.393,2.556C35.26,20.03,35.626,20,36,20z"/>
<path style="fill:#546A79;" d="M43.515,21.948c2.239-0.259,3.985-2.139,3.985-4.448c0-2.485-2.015-4.5-4.5-4.5s-4.5,2.015-4.5,4.5
	c0,1.131,0.432,2.152,1.12,2.943C40.999,20.773,42.308,21.277,43.515,21.948z"/>
<rect x="19.5" y="55" style="fill:#AFB6BB;" width="6" height="3"/>
<rect x="5.5" y="51" style="fill:#AFB6BB;" width="6" height="3"/>
<rect x="46.5" y="55" style="fill:#AFB6BB;" width="6" height="3"/>
<circle style="fill:#546A79;" cx="36" cy="35.5" r="15.5"/>
<circle style="fill:#283238;" cx="36" cy="35.5" r="4.5"/>
<g>
</g>
<g>
</g>
<g>
</g>
<g>
</g>
<g>
</g>
<g>
</g>
<g>
</g>
<g>
</g>
<g>
</g>
<g>
</g>
<g>
</g>
<g>
</g>
<g>
</g>
<g>
</g>
<g>
</g>
</svg>
