<?xml version="1.0" encoding="iso-8859-1"?>
<!-- Generator: Adobe Illustrator 19.0.0, SVG Export Plug-In . SVG Version: 6.00 Build 0)  -->
<svg version="1.1" id="Capa_1" xmlns="http://www.w3.org/2000/svg" xmlns:xlink="http://www.w3.org/1999/xlink" x="0px" y="0px"
	 viewBox="0 0 58 58" style="enable-background:new 0 0 58 58;" xml:space="preserve">
<path style="fill:#AFB6BB;" d="M55.911,50H2.089C0.935,50,0,49.065,0,47.911V10.089C0,8.935,0.935,8,2.089,8h53.822
	C57.065,8,58,8.935,58,10.089v37.822C58,49.065,57.065,50,55.911,50z"/>
<circle style="fill:#E7ECED;" cx="4" cy="46" r="1"/>
<circle style="fill:#E7ECED;" cx="54" cy="12" r="1"/>
<circle style="fill:#E7ECED;" cx="54" cy="46" r="1"/>
<ellipse transform="matrix(0.9155 -0.4022 0.4022 0.9155 -11.8809 17.8393)" style="fill:#48A0DC;stroke:#FFFFFF;stroke-width:2;stroke-miterlimit:10;" cx="36.54" cy="37.212" rx="7.449" ry="4.74"/>
<path style="fill:#E7ECED;" d="M8,32H0V10.089C0,8.935,0.935,8,2.089,8H32v0C32,21.255,21.255,32,8,32z"/>
<polygon style="fill:#283238;" points="58,42 54,42 52,39 52,18 58,18 "/>
<g>
	<rect x="54" y="20" style="fill:#D3AA6E;" width="4" height="2"/>
	<rect x="54" y="23" style="fill:#D3AA6E;" width="4" height="2"/>
	<rect x="54" y="26" style="fill:#D3AA6E;" width="4" height="2"/>
	<rect x="54" y="29" style="fill:#D3AA6E;" width="4" height="2"/>
	<rect x="55" y="38" style="fill:#D3AA6E;" width="3" height="2"/>
	<rect x="54" y="35" style="fill:#D3AA6E;" width="4" height="2"/>
</g>
<rect x="3" y="25" style="fill:#6C797A;" width="2" height="2"/>
<rect x="3" y="22" style="fill:#6C797A;" width="2" height="2"/>
<rect x="3" y="19" style="fill:#6C797A;" width="2" height="2"/>
<rect x="3" y="16" style="fill:#6C797A;" width="2" height="2"/>
<rect x="3" y="13" style="fill:#6C797A;" width="2" height="2"/>
<rect x="9" y="13" style="fill:#6C797A;" width="13" height="2"/>
<rect x="9" y="16" style="fill:#6C797A;" width="10" height="2"/>
<rect x="9" y="19" style="fill:#6C797A;" width="11" height="2"/>
<rect x="9" y="22" style="fill:#6C797A;" width="4" height="2"/>
<g>
</g>
<g>
</g>
<g>
</g>
<g>
</g>
<g>
</g>
<g>
</g>
<g>
</g>
<g>
</g>
<g>
</g>
<g>
</g>
<g>
</g>
<g>
</g>
<g>
</g>
<g>
</g>
<g>
</g>
</svg>
