<?xml version="1.0" encoding="iso-8859-1"?>
<!-- Generator: Adobe Illustrator 19.0.0, SVG Export Plug-In . SVG Version: 6.00 Build 0)  -->
<svg version="1.1" id="Capa_1" xmlns="http://www.w3.org/2000/svg" xmlns:xlink="http://www.w3.org/1999/xlink" x="0px" y="0px"
	 viewBox="0 0 58 58" style="enable-background:new 0 0 58 58;" xml:space="preserve">
<path style="fill:#38454F;" d="M54.132,10.5H44v23.427c0,0.316-0.256,0.573-0.573,0.573h-3.855C39.256,34.5,39,34.244,39,33.927
	V10.5H3.868C1.732,10.5,0,12.232,0,14.368v37.264C0,53.768,1.732,55.5,3.868,55.5h50.264c2.136,0,3.868-1.732,3.868-3.868V14.368
	C58,12.232,56.268,10.5,54.132,10.5z"/>
<line style="fill:none;stroke:#000000;stroke-width:2;stroke-linecap:round;stroke-miterlimit:10;" x1="54" y1="31.5" x2="54" y2="36.5"/>
<path style="fill:#546A79;" d="M8,22.5H5c-0.553,0-1-0.448-1-1s0.447-1,1-1h3c0.553,0,1,0.448,1,1S8.553,22.5,8,22.5z"/>
<path style="fill:#546A79;" d="M8,26.5H5c-0.553,0-1-0.448-1-1s0.447-1,1-1h3c0.553,0,1,0.448,1,1S8.553,26.5,8,26.5z"/>
<path style="fill:#546A79;" d="M8,41.5H5c-0.553,0-1-0.448-1-1s0.447-1,1-1h3c0.553,0,1,0.448,1,1S8.553,41.5,8,41.5z"/>
<path style="fill:#546A79;" d="M8,45.5H5c-0.553,0-1-0.448-1-1s0.447-1,1-1h3c0.553,0,1,0.448,1,1S8.553,45.5,8,45.5z"/>
<circle style="fill:#546A79;" cx="6.5" cy="33" r="3.5"/>
<circle style="fill:#38454F;" cx="6.5" cy="33" r="1.5"/>
<path style="fill:#222B30;" d="M44,17.5v16.427c0,0.316-0.256,0.573-0.573,0.573h-3.855C39.256,34.5,39,34.244,39,33.927V17.5H13v31
	h37v-31H44z"/>
<path style="fill:#38454F;" d="M40,7.5V4c0-0.825,0.675-1.5,1.5-1.5l0,0C42.325,2.5,43,3.175,43,4v3.5H40z"/>
<path style="fill:#546A79;" d="M43.428,34.5h-3.855C39.256,34.5,39,34.244,39,33.928V7.5h5v26.428
	C44,34.244,43.744,34.5,43.428,34.5z"/>
<rect x="41" y="38.5" style="fill:#839594;" width="1" height="1.998"/>
<path style="fill:#38454F;" d="M42,38.5h-1l-1.771-3.542c-0.105-0.211,0.048-0.458,0.283-0.458h3.975
	c0.235,0,0.389,0.248,0.283,0.458L42,38.5z"/>
<g>
</g>
<g>
</g>
<g>
</g>
<g>
</g>
<g>
</g>
<g>
</g>
<g>
</g>
<g>
</g>
<g>
</g>
<g>
</g>
<g>
</g>
<g>
</g>
<g>
</g>
<g>
</g>
<g>
</g>
</svg>
