<?xml version="1.0" encoding="iso-8859-1"?>
<!-- Generator: Adobe Illustrator 19.0.0, SVG Export Plug-In . SVG Version: 6.00 Build 0)  -->
<svg version="1.1" id="Capa_1" xmlns="http://www.w3.org/2000/svg" xmlns:xlink="http://www.w3.org/1999/xlink" x="0px" y="0px"
	 viewBox="0 0 58 58" style="enable-background:new 0 0 58 58;" xml:space="preserve">
<path style="fill:#38454F;" d="M57,18c-0.552,0-1-0.448-1-1s0.448-1,1-1h1v-1h-1c-0.552,0-1-0.448-1-1s0.448-1,1-1h1V8.519
	C58,7.68,57.32,7,56.481,7H1.519C0.68,7,0,7.68,0,8.519V13h1c0.552,0,1,0.448,1,1s-0.448,1-1,1H0v1h1c0.552,0,1,0.448,1,1
	s-0.448,1-1,1H0v1h1c0.552,0,1,0.448,1,1s-0.448,1-1,1H0v1h1c0.552,0,1,0.448,1,1s-0.448,1-1,1H0v1h1c0.552,0,1,0.448,1,1
	s-0.448,1-1,1H0v1h1c0.552,0,1,0.448,1,1s-0.448,1-1,1H0v1h1c0.552,0,1,0.448,1,1s-0.448,1-1,1H0v1h1c0.552,0,1,0.448,1,1
	s-0.448,1-1,1H0v1h1c0.552,0,1,0.448,1,1s-0.448,1-1,1H0v1h1c0.552,0,1,0.448,1,1s-0.448,1-1,1H0v1h1c0.552,0,1,0.448,1,1
	s-0.448,1-1,1H0v4.481C0,50.32,0.68,51,1.519,51h54.963C57.32,51,58,50.32,58,49.481V45h-1c-0.552,0-1-0.448-1-1s0.448-1,1-1h1v-1
	h-1c-0.552,0-1-0.448-1-1s0.448-1,1-1h1v-1h-1c-0.552,0-1-0.448-1-1s0.448-1,1-1h1v-1h-1c-0.552,0-1-0.448-1-1s0.448-1,1-1h1v-1h-1
	c-0.552,0-1-0.448-1-1s0.448-1,1-1h1v-1h-1c-0.552,0-1-0.448-1-1s0.448-1,1-1h1v-1h-1c-0.552,0-1-0.448-1-1s0.448-1,1-1h1v-1h-1
	c-0.552,0-1-0.448-1-1s0.448-1,1-1h1v-1h-1c-0.552,0-1-0.448-1-1s0.448-1,1-1h1v-1H57z"/>
<path style="fill:#AFB6BB;" d="M2,14c0-0.552-0.448-1-1-1H0v2h1C1.552,15,2,14.552,2,14z"/>
<path style="fill:#AFB6BB;" d="M2,17c0-0.552-0.448-1-1-1H0v2h1C1.552,18,2,17.552,2,17z"/>
<path style="fill:#AFB6BB;" d="M2,20c0-0.552-0.448-1-1-1H0v2h1C1.552,21,2,20.552,2,20z"/>
<path style="fill:#AFB6BB;" d="M2,23c0-0.552-0.448-1-1-1H0v2h1C1.552,24,2,23.552,2,23z"/>
<path style="fill:#AFB6BB;" d="M2,26c0-0.552-0.448-1-1-1H0v2h1C1.552,27,2,26.552,2,26z"/>
<path style="fill:#AFB6BB;" d="M2,29c0-0.552-0.448-1-1-1H0v2h1C1.552,30,2,29.552,2,29z"/>
<path style="fill:#AFB6BB;" d="M2,32c0-0.552-0.448-1-1-1H0v2h1C1.552,33,2,32.552,2,32z"/>
<path style="fill:#AFB6BB;" d="M2,35c0-0.552-0.448-1-1-1H0v2h1C1.552,36,2,35.552,2,35z"/>
<path style="fill:#AFB6BB;" d="M2,38c0-0.552-0.448-1-1-1H0v2h1C1.552,39,2,38.552,2,38z"/>
<path style="fill:#AFB6BB;" d="M2,41c0-0.552-0.448-1-1-1H0v2h1C1.552,42,2,41.552,2,41z"/>
<path style="fill:#AFB6BB;" d="M2,44c0-0.552-0.448-1-1-1H0v2h1C1.552,45,2,44.552,2,44z"/>
<path style="fill:#AFB6BB;" d="M56,14c0,0.552,0.448,1,1,1h1v-2h-1C56.448,13,56,13.448,56,14z"/>
<path style="fill:#AFB6BB;" d="M56,17c0,0.552,0.448,1,1,1h1v-2h-1C56.448,16,56,16.448,56,17z"/>
<path style="fill:#AFB6BB;" d="M56,20c0,0.552,0.448,1,1,1h1v-2h-1C56.448,19,56,19.448,56,20z"/>
<path style="fill:#AFB6BB;" d="M56,23c0,0.552,0.448,1,1,1h1v-2h-1C56.448,22,56,22.448,56,23z"/>
<path style="fill:#AFB6BB;" d="M56,26c0,0.552,0.448,1,1,1h1v-2h-1C56.448,25,56,25.448,56,26z"/>
<path style="fill:#AFB6BB;" d="M56,29c0,0.552,0.448,1,1,1h1v-2h-1C56.448,28,56,28.448,56,29z"/>
<path style="fill:#AFB6BB;" d="M56,32c0,0.552,0.448,1,1,1h1v-2h-1C56.448,31,56,31.448,56,32z"/>
<path style="fill:#AFB6BB;" d="M56,35c0,0.552,0.448,1,1,1h1v-2h-1C56.448,34,56,34.448,56,35z"/>
<path style="fill:#AFB6BB;" d="M56,38c0,0.552,0.448,1,1,1h1v-2h-1C56.448,37,56,37.448,56,38z"/>
<path style="fill:#AFB6BB;" d="M56,41c0,0.552,0.448,1,1,1h1v-2h-1C56.448,40,56,40.448,56,41z"/>
<path style="fill:#AFB6BB;" d="M56,44c0,0.552,0.448,1,1,1h1v-2h-1C56.448,43,56,43.448,56,44z"/>
<rect x="4" y="10" style="fill:#546A79;" width="50" height="38"/>
<g>
	<path style="fill:#839CAA;" d="M8,19c0.256,0,0.512-0.098,0.707-0.293l4-4c0.391-0.391,0.391-1.023,0-1.414s-1.023-0.391-1.414,0
		l-4,4c-0.391,0.391-0.391,1.023,0,1.414C7.488,18.902,7.744,19,8,19z"/>
	<path style="fill:#839CAA;" d="M8,24c0.256,0,0.512-0.098,0.707-0.293l2-2c0.391-0.391,0.391-1.023,0-1.414s-1.023-0.391-1.414,0
		l-2,2c-0.391,0.391-0.391,1.023,0,1.414C7.488,23.902,7.744,24,8,24z"/>
	<path style="fill:#839CAA;" d="M11.29,18.29C11.11,18.48,11,18.74,11,19c0,0.26,0.11,0.52,0.29,0.71C11.48,19.89,11.74,20,12,20
		c0.26,0,0.52-0.11,0.71-0.29C12.89,19.52,13,19.26,13,19c0-0.26-0.11-0.52-0.29-0.71C12.33,17.92,11.67,17.92,11.29,18.29z"/>
	<path style="fill:#839CAA;" d="M13.293,17.707C13.488,17.902,13.744,18,14,18s0.512-0.098,0.707-0.293l3-3
		c0.391-0.391,0.391-1.023,0-1.414s-1.023-0.391-1.414,0l-3,3C12.902,16.684,12.902,17.316,13.293,17.707z"/>
	<path style="fill:#839CAA;" d="M16.293,18.293l-9,9c-0.391,0.391-0.391,1.023,0,1.414C7.488,28.902,7.744,29,8,29
		s0.512-0.098,0.707-0.293l9-9c0.391-0.391,0.391-1.023,0-1.414S16.684,17.902,16.293,18.293z"/>
	<path style="fill:#839CAA;" d="M18.29,16.29C18.11,16.48,18,16.73,18,17s0.11,0.52,0.29,0.71C18.48,17.89,18.74,18,19,18
		c0.26,0,0.52-0.11,0.71-0.29C19.89,17.52,20,17.26,20,17c0-0.26-0.11-0.52-0.29-0.71C19.34,15.92,18.66,15.92,18.29,16.29z"/>
	<path style="fill:#839CAA;" d="M22.707,13.293c-0.391-0.391-1.023-0.391-1.414,0l-1,1c-0.391,0.391-0.391,1.023,0,1.414
		C20.488,15.902,20.744,16,21,16s0.512-0.098,0.707-0.293l1-1C23.098,14.316,23.098,13.684,22.707,13.293z"/>
</g>
<g>
</g>
<g>
</g>
<g>
</g>
<g>
</g>
<g>
</g>
<g>
</g>
<g>
</g>
<g>
</g>
<g>
</g>
<g>
</g>
<g>
</g>
<g>
</g>
<g>
</g>
<g>
</g>
<g>
</g>
</svg>
