<?xml version="1.0" encoding="iso-8859-1"?>
<!-- Generator: Adobe Illustrator 19.0.0, SVG Export Plug-In . SVG Version: 6.00 Build 0)  -->
<svg version="1.1" id="Capa_1" xmlns="http://www.w3.org/2000/svg" xmlns:xlink="http://www.w3.org/1999/xlink" x="0px" y="0px"
	 viewBox="0 0 58 58" style="enable-background:new 0 0 58 58;" xml:space="preserve">
<path style="fill:#38454F;" d="M48,11v21.428C48,32.744,47.744,33,47.427,33h-3.855C43.256,33,43,32.744,43,32.428V11H0v44h58V11H48
	z"/>
<rect x="4" y="15" style="fill:#222B30;" width="5" height="10"/>
<rect x="12" y="15" style="fill:#222B30;" width="5" height="35.881"/>
<rect x="4" y="41" style="fill:#222B30;" width="5" height="10"/>
<rect x="4" y="28" style="fill:#222B30;" width="5" height="10"/>
<path style="fill:#222B30;" d="M48,15v17.428C48,32.744,47.744,33,47.427,33h-3.855C43.256,33,43,32.744,43,32.428V15H20v36h34V15
	H48z"/>
<path style="fill:#38454F;" d="M44,8V4.5C44,3.675,44.675,3,45.5,3l0,0C46.325,3,47,3.675,47,4.5V8H44z"/>
<path style="fill:#546A79;" d="M47.428,35h-3.855C43.256,35,43,34.744,43,34.428V8h5v26.428C48,34.744,47.744,35,47.428,35z"/>
<rect x="45" y="39" style="fill:#839594;" width="1" height="1.998"/>
<path style="fill:#38454F;" d="M46,39h-1l-1.771-3.542C43.124,35.248,43.277,35,43.512,35h3.975c0.235,0,0.389,0.248,0.283,0.458
	L46,39z"/>
<g>
</g>
<g>
</g>
<g>
</g>
<g>
</g>
<g>
</g>
<g>
</g>
<g>
</g>
<g>
</g>
<g>
</g>
<g>
</g>
<g>
</g>
<g>
</g>
<g>
</g>
<g>
</g>
<g>
</g>
</svg>
