<?xml version="1.0" encoding="iso-8859-1"?>
<!-- Generator: Adobe Illustrator 19.0.0, SVG Export Plug-In . SVG Version: 6.00 Build 0)  -->
<svg version="1.1" id="Capa_1" xmlns="http://www.w3.org/2000/svg" xmlns:xlink="http://www.w3.org/1999/xlink" x="0px" y="0px"
	 viewBox="0 0 58 58" style="enable-background:new 0 0 58 58;" xml:space="preserve">
<path style="fill:#38454F;" d="M54.822,49H3.178C1.423,49,0,47.577,0,45.822V12.178C0,10.423,1.423,9,3.178,9h51.644
	C56.577,9,58,10.423,58,12.178v33.644C58,47.577,56.577,49,54.822,49z"/>
<rect x="4" y="13" style="fill:#546A79;" width="50" height="30"/>
<path style="fill:#FFFFFF;" d="M31,47h-4c-0.552,0-1-0.448-1-1s0.448-1,1-1h4c0.552,0,1,0.448,1,1S31.552,47,31,47z"/>
<g>
	<path style="fill:#839CAA;" d="M8,22c0.256,0,0.512-0.098,0.707-0.293l4-4c0.391-0.391,0.391-1.023,0-1.414s-1.023-0.391-1.414,0
		l-4,4c-0.391,0.391-0.391,1.023,0,1.414C7.488,21.902,7.744,22,8,22z"/>
	<path style="fill:#839CAA;" d="M8,27c0.256,0,0.512-0.098,0.707-0.293l2-2c0.391-0.391,0.391-1.023,0-1.414s-1.023-0.391-1.414,0
		l-2,2c-0.391,0.391-0.391,1.023,0,1.414C7.488,26.902,7.744,27,8,27z"/>
	<path style="fill:#839CAA;" d="M11.29,21.29C11.11,21.48,11,21.73,11,22s0.11,0.52,0.29,0.71C11.48,22.89,11.74,23,12,23
		c0.26,0,0.52-0.11,0.71-0.29C12.89,22.52,13,22.27,13,22c0-0.26-0.11-0.52-0.29-0.71C12.33,20.92,11.66,20.92,11.29,21.29z"/>
	<path style="fill:#839CAA;" d="M13.293,20.707C13.488,20.902,13.744,21,14,21s0.512-0.098,0.707-0.293l3-3
		c0.391-0.391,0.391-1.023,0-1.414s-1.023-0.391-1.414,0l-3,3C12.902,19.684,12.902,20.316,13.293,20.707z"/>
	<path style="fill:#839CAA;" d="M16.293,21.293l-9,9c-0.391,0.391-0.391,1.023,0,1.414C7.488,31.902,7.744,32,8,32
		s0.512-0.098,0.707-0.293l9-9c0.391-0.391,0.391-1.023,0-1.414S16.684,20.902,16.293,21.293z"/>
	<path style="fill:#839CAA;" d="M18.29,19.29C18.11,19.48,18,19.74,18,20c0,0.26,0.11,0.52,0.29,0.71C18.48,20.89,18.74,21,19,21
		c0.26,0,0.52-0.11,0.71-0.29C19.89,20.52,20,20.26,20,20c0-0.26-0.11-0.52-0.29-0.71C19.34,18.92,18.67,18.92,18.29,19.29z"/>
	<path style="fill:#839CAA;" d="M22.707,16.293c-0.391-0.391-1.023-0.391-1.414,0l-1,1c-0.391,0.391-0.391,1.023,0,1.414
		C20.488,18.902,20.744,19,21,19s0.512-0.098,0.707-0.293l1-1C23.098,17.316,23.098,16.684,22.707,16.293z"/>
</g>
<g>
</g>
<g>
</g>
<g>
</g>
<g>
</g>
<g>
</g>
<g>
</g>
<g>
</g>
<g>
</g>
<g>
</g>
<g>
</g>
<g>
</g>
<g>
</g>
<g>
</g>
<g>
</g>
<g>
</g>
</svg>
