<?xml version="1.0" encoding="iso-8859-1"?>
<!-- Generator: Adobe Illustrator 19.0.0, SVG Export Plug-In . SVG Version: 6.00 Build 0)  -->
<svg version="1.1" id="Capa_1" xmlns="http://www.w3.org/2000/svg" xmlns:xlink="http://www.w3.org/1999/xlink" x="0px" y="0px"
	 viewBox="0 0 60 60" style="enable-background:new 0 0 60 60;" xml:space="preserve">
<path style="fill:#38454F;stroke:#38454F;stroke-width:2;stroke-linecap:round;stroke-miterlimit:10;" d="M55.502,45.25H4.498
	C2.566,45.25,1,43.684,1,41.752V11.748C1,9.816,2.566,8.25,4.498,8.25h51.003C57.434,8.25,59,9.816,59,11.748v30.003
	C59,43.684,57.434,45.25,55.502,45.25z"/>
<rect x="25" y="45.25" style="fill:none;stroke:#38454F;stroke-width:2;stroke-linecap:round;stroke-miterlimit:10;" width="10" height="4"/>
<path style="fill:none;stroke:#38454F;stroke-width:2;stroke-linecap:round;stroke-miterlimit:10;" d="M18,51.75L18,51.75
	c0-1.375,1.125-2.5,2.5-2.5h19c1.375,0,2.5,1.125,2.5,2.5v0"/>
<rect x="2" y="11.25" style="fill:#283238;" width="56" height="31"/>
<g>
	<path style="fill:#546A79;" d="M5,20.25c0.256,0,0.512-0.098,0.707-0.293l4-4c0.391-0.391,0.391-1.023,0-1.414
		s-1.023-0.391-1.414,0l-4,4c-0.391,0.391-0.391,1.023,0,1.414C4.488,20.152,4.744,20.25,5,20.25z"/>
	<path style="fill:#546A79;" d="M5,25.25c0.256,0,0.512-0.098,0.707-0.293l2-2c0.391-0.391,0.391-1.023,0-1.414
		s-1.023-0.391-1.414,0l-2,2c-0.391,0.391-0.391,1.023,0,1.414C4.488,25.152,4.744,25.25,5,25.25z"/>
	<path style="fill:#546A79;" d="M8.29,19.54C8.109,19.73,8,19.99,8,20.25c0,0.26,0.109,0.52,0.29,0.71
		c0.189,0.18,0.45,0.29,0.71,0.29s0.52-0.11,0.71-0.29C9.89,20.77,10,20.51,10,20.25c0-0.26-0.11-0.52-0.29-0.71
		C9.33,19.17,8.66,19.17,8.29,19.54z"/>
	<path style="fill:#546A79;" d="M10.293,18.957c0.195,0.195,0.451,0.293,0.707,0.293s0.512-0.098,0.707-0.293l3-3
		c0.391-0.391,0.391-1.023,0-1.414s-1.023-0.391-1.414,0l-3,3C9.902,17.934,9.902,18.566,10.293,18.957z"/>
	<path style="fill:#546A79;" d="M13.293,19.543l-9,9c-0.391,0.391-0.391,1.023,0,1.414C4.488,30.152,4.744,30.25,5,30.25
		s0.512-0.098,0.707-0.293l9-9c0.391-0.391,0.391-1.023,0-1.414S13.684,19.152,13.293,19.543z"/>
	<path style="fill:#546A79;" d="M15.29,17.54C15.109,17.73,15,17.99,15,18.25c0,0.26,0.109,0.52,0.29,0.71
		c0.189,0.18,0.439,0.29,0.71,0.29c0.27,0,0.52-0.11,0.71-0.29c0.18-0.19,0.29-0.45,0.29-0.71c0-0.26-0.11-0.52-0.29-0.71
		C16.34,17.17,15.67,17.17,15.29,17.54z"/>
	<path style="fill:#546A79;" d="M19.707,14.543c-0.391-0.391-1.023-0.391-1.414,0l-1,1c-0.391,0.391-0.391,1.023,0,1.414
		c0.195,0.195,0.451,0.293,0.707,0.293s0.512-0.098,0.707-0.293l1-1C20.098,15.566,20.098,14.934,19.707,14.543z"/>
</g>
<g>
</g>
<g>
</g>
<g>
</g>
<g>
</g>
<g>
</g>
<g>
</g>
<g>
</g>
<g>
</g>
<g>
</g>
<g>
</g>
<g>
</g>
<g>
</g>
<g>
</g>
<g>
</g>
<g>
</g>
</svg>
