<?xml version="1.0" encoding="iso-8859-1"?>
<!-- Generator: Adobe Illustrator 19.0.0, SVG Export Plug-In . SVG Version: 6.00 Build 0)  -->
<svg version="1.1" id="Capa_1" xmlns="http://www.w3.org/2000/svg" xmlns:xlink="http://www.w3.org/1999/xlink" x="0px" y="0px"
	 viewBox="0 0 60 60" style="enable-background:new 0 0 60 60;" xml:space="preserve">
<rect x="5" y="51.5" style="fill:#BFA380;" width="50" height="3"/>
<path style="fill:#CFC6A8;stroke:#6B5B4B;stroke-width:2;stroke-miterlimit:10;" d="M57.726,51.5H2.274C1.57,51.5,1,50.93,1,50.226
	V7.774C1,7.07,1.57,6.5,2.274,6.5h55.452C58.43,6.5,59,7.07,59,7.774v42.452C59,50.93,58.43,51.5,57.726,51.5z"/>
<rect x="48" y="30.5" style="fill:#AFB6BB;" width="4" height="4"/>
<rect x="52" y="30.5" style="fill:#E7ECED;" width="4" height="4"/>
<path style="fill:#6B5B4B;" d="M55,23.5h-6c-0.553,0-1-0.447-1-1s0.447-1,1-1h6c0.553,0,1,0.447,1,1S55.553,23.5,55,23.5z"/>
<path style="fill:#6B5B4B;" d="M55,20.5h-6c-0.553,0-1-0.447-1-1s0.447-1,1-1h6c0.553,0,1,0.447,1,1S55.553,20.5,55,20.5z"/>
<path style="fill:#6B5B4B;" d="M55,17.5h-6c-0.553,0-1-0.447-1-1s0.447-1,1-1h6c0.553,0,1,0.447,1,1S55.553,17.5,55,17.5z"/>
<path style="fill:#6B5B4B;" d="M55,14.5h-6c-0.553,0-1-0.447-1-1s0.447-1,1-1h6c0.553,0,1,0.447,1,1S55.553,14.5,55,14.5z"/>
<path style="fill:#546A79;" d="M53,41.5c0-0.553,0.447-1,1-1h1.859c-0.446-1.722-1.997-3-3.859-3c-2.209,0-4,1.791-4,4
	c0,2.209,1.791,4,4,4c1.862,0,3.412-1.278,3.859-3H54C53.447,42.5,53,42.053,53,41.5z"/>
<path style="fill:#E7ECED;" d="M55.859,40.5H54c-0.553,0-1,0.447-1,1s0.447,1,1,1h1.859c0.083-0.321,0.141-0.653,0.141-1
	S55.942,40.821,55.859,40.5z"/>
<path style="fill:#283238;" d="M8.455,10.5C6.547,10.5,5,12.047,5,13.955v30.089C5,45.953,6.547,47.5,8.455,47.5H24v-37H8.455z"/>
<path style="fill:#283238;" d="M41.545,10.5H26v37h15.545c1.908,0,3.455-1.547,3.455-3.455V13.955
	C45,12.047,43.453,10.5,41.545,10.5z"/>
<rect x="24" y="10.5" style="fill:#546A79;" width="2" height="37"/>
<path style="fill:#546A79;" d="M9,43.5c-0.553,0-1-0.447-1-1v-7c0-0.553,0.447-1,1-1s1,0.447,1,1v7C10,43.053,9.553,43.5,9,43.5z"/>
<path style="fill:#546A79;" d="M41,23.5c-0.553,0-1-0.447-1-1v-7c0-0.553,0.447-1,1-1s1,0.447,1,1v7C42,23.053,41.553,23.5,41,23.5z
	"/>
<circle style="fill:#FFFFFF;" cx="37" cy="22.5" r="1"/>
<g>
</g>
<g>
</g>
<g>
</g>
<g>
</g>
<g>
</g>
<g>
</g>
<g>
</g>
<g>
</g>
<g>
</g>
<g>
</g>
<g>
</g>
<g>
</g>
<g>
</g>
<g>
</g>
<g>
</g>
</svg>
