<?xml version="1.0" encoding="iso-8859-1"?>
<!-- Generator: Adobe Illustrator 19.0.0, SVG Export Plug-In . SVG Version: 6.00 Build 0)  -->
<svg version="1.1" id="Capa_1" xmlns="http://www.w3.org/2000/svg" xmlns:xlink="http://www.w3.org/1999/xlink" x="0px" y="0px"
	 viewBox="0 0 54.839 54.839" style="enable-background:new 0 0 54.839 54.839;" xml:space="preserve">
<path style="fill:#D3AA6E;" d="M37.466,17.373l1.415-1.415l-1.415-1.414l3.536-3.535l1.414,1.414l0.708-0.707l-1.415-1.414
	l3.537-3.537l1.414,1.416l1.414-1.415c-0.391-0.391-0.391-1.023,0-1.414l-2.828-2.828l0,0l-4.243,4.242
	c-0.195,0.195-0.451,0.293-0.707,0.293s-0.512-0.098-0.707-0.293c-0.391-0.391-0.391-1.023,0-1.414l4.243-4.242l0,0l-0.894-0.894
	c-0.288-0.288-0.754-0.288-1.042,0l-11.5,11.5l7.07,7.07C37.076,18.395,37.076,17.763,37.466,17.373z"/>
<path style="fill:#D3AA6E;" d="M54.623,11.902l-0.893-0.893l0,0l-4.243,4.242c-0.195,0.195-0.451,0.293-0.707,0.293
	s-0.512-0.098-0.707-0.293c-0.391-0.391-0.391-1.023,0-1.414l4.243-4.242l0,0l-2.122-2.122l-3.536,3.536l-1.413-1.413
	c0,0-0.001-0.001-0.001-0.001l-0.707,0.707l1.414,1.414l-3.536,3.535l-1.414-1.414l-0.707,0.707l1.414,1.414l-2.829,2.829
	c-0.195,0.195-0.451,0.293-0.707,0.293c-0.255,0-0.51-0.097-0.706-0.292l5.655,5.655l11.5-11.5
	C54.911,12.656,54.911,12.19,54.623,11.902z"/>
<polygon style="fill:#F4D75D;" points="37.466,18.787 37.468,18.788 37.465,18.786 "/>
<path style="fill:#F2DD86;" d="M45.245,9.596l1.413,1.413l3.536-3.536l-2.121-2.121c-0.39,0.391-0.39,1.023,0,1.414L46.659,8.18
	l-1.414-1.416l-3.537,3.537l1.415,1.414l-0.708,0.707l-1.414-1.414l-3.536,3.535l1.415,1.414l-1.415,1.415
	c-0.39,0.39-0.39,1.022-0.001,1.413l0.002,0.002c0.195,0.195,0.45,0.292,0.706,0.292c0.256,0,0.512-0.098,0.707-0.293l2.829-2.829
	l-1.414-1.414l0.707-0.707l1.414,1.414l3.536-3.535l-1.414-1.414l0.707-0.707C45.244,9.595,45.245,9.595,45.245,9.596z"/>
<path style="fill:#F2DD86;" d="M39.588,5.352c-0.391,0.391-0.391,1.023,0,1.414c0.195,0.195,0.451,0.293,0.707,0.293
	s0.512-0.098,0.707-0.293l4.243-4.242l0,0L43.83,1.109l0,0L39.588,5.352z"/>
<path style="fill:#F2DD86;" d="M48.073,13.837c-0.391,0.391-0.391,1.023,0,1.414c0.195,0.195,0.451,0.293,0.707,0.293
	s0.512-0.098,0.707-0.293l4.243-4.242l0,0l-1.414-1.414l0,0L48.073,13.837z"/>
<path style="fill:#38454F;" d="M24.94,10.1L7.414,27.626c-1.367,1.367-1.367,3.583,0,4.95l0,0c1.367,1.367,1.367,3.583,0,4.95
	l-1.227,1.227c-0.689,0.689-0.689,1.806,0,2.496l7.404,7.404c0.689,0.689,1.806,0.689,2.496,0l1.227-1.227
	c1.367-1.367,3.583-1.367,4.95,0l0,0c1.367,1.367,3.583,1.367,4.95,0l17.526-17.526c1.06-1.06,1.06-2.779,0-3.839L28.779,10.1
	C27.719,9.04,26,9.04,24.94,10.1z"/>
<path style="fill:#546A79;" d="M8.475,43.536l-7.889,7.889c-0.781,0.781-0.781,2.047,0,2.828s2.047,0.781,2.828,0l7.889-7.889
	L8.475,43.536z"/>
<g>
</g>
<g>
</g>
<g>
</g>
<g>
</g>
<g>
</g>
<g>
</g>
<g>
</g>
<g>
</g>
<g>
</g>
<g>
</g>
<g>
</g>
<g>
</g>
<g>
</g>
<g>
</g>
<g>
</g>
</svg>
