<?xml version="1.0" encoding="iso-8859-1"?>
<!-- Generator: Adobe Illustrator 19.0.0, SVG Export Plug-In . SVG Version: 6.00 Build 0)  -->
<svg version="1.1" id="Capa_1" xmlns="http://www.w3.org/2000/svg" xmlns:xlink="http://www.w3.org/1999/xlink" x="0px" y="0px"
	 viewBox="0 0 56.205 56.205" style="enable-background:new 0 0 56.205 56.205;" xml:space="preserve">
<rect x="27.441" y="5.764" transform="matrix(0.7071 0.7071 -0.7071 0.7071 23.1986 -23.4792)" style="fill:#CBD4D8;" width="25" height="21"/>
<path style="fill:#E7ECED;" d="M27.273,48.143L8.061,28.931c-1.138-1.138-1.138-2.984,0-4.122l10.727-10.727
	c1.138-1.138,2.984-1.138,4.122,0l19.212,19.212c1.138,1.138,1.138,2.984,0,4.122L31.396,48.143
	C30.257,49.282,28.412,49.282,27.273,48.143z"/>
<rect x="10.278" y="36.927" transform="matrix(0.7071 0.7071 -0.7071 0.7071 34.0356 2.6838)" style="fill:#CBD4D8;" width="7" height="11"/>
<rect x="33.759" y="8.167" transform="matrix(0.7071 0.7071 -0.7071 0.7071 19.0166 -22.5754)" style="fill:#AFB6BB;" width="6" height="7"/>
<rect x="41.537" y="15.946" transform="matrix(0.7071 0.7071 -0.7071 0.7071 26.7948 -25.7972)" style="fill:#AFB6BB;" width="6" height="7"/>
<rect x="10.278" y="36.927" transform="matrix(0.7071 0.7071 -0.7071 0.7071 34.0356 2.6838)" style="fill:#CBD4D8;" width="7" height="11"/>
<path style="fill:#E7ECED;" d="M8.475,44.901l-7.889,7.889c-0.781,0.781-0.781,2.047,0,2.828s2.047,0.781,2.828,0l7.889-7.889
	L8.475,44.901z"/>
<g>
</g>
<g>
</g>
<g>
</g>
<g>
</g>
<g>
</g>
<g>
</g>
<g>
</g>
<g>
</g>
<g>
</g>
<g>
</g>
<g>
</g>
<g>
</g>
<g>
</g>
<g>
</g>
<g>
</g>
</svg>
