<svg height="522.94925pt" viewBox="0 0 522.94925 522.94925" width="522.94925pt" xmlns="http://www.w3.org/2000/svg"><path d="m457.582031 522.949219h-392.214843c-36.097657 0-65.367188-29.269531-65.367188-65.367188v-392.214843c0-36.097657 29.269531-65.367188 65.367188-65.367188h392.214843c36.097657 0 65.367188 29.269531 65.367188 65.367188v392.214843c0 36.097657-29.269531 65.367188-65.367188 65.367188zm0 0" fill="#ffcb5a"/><g fill="#fff"><path d="m408.554688 179.765625h-65.371094c-9.019532 0-16.339844 7.320313-16.339844 16.339844s7.320312 16.34375 16.339844 16.34375h16.34375v114.394531c0 9.019531 7.320312 16.339844 16.34375 16.339844 9.019531 0 16.339844-7.320313 16.339844-16.339844v-114.394531h16.34375c9.019531 0 16.339843-7.324219 16.339843-16.34375s-7.320312-16.339844-16.339843-16.339844zm0 0"/><path d="m137.308594 180.710938c-23.273438 4.527343-39.253906 26.3125-39.253906 50.007812v96.125c0 9.019531 7.320312 16.339844 16.339843 16.339844 9.023438 0 16.34375-7.320313 16.34375-16.339844v-16.34375h32.683594v16.34375c0 9.019531 7.320313 16.339844 16.34375 16.339844 9.019531 0 16.339844-7.320313 16.339844-16.339844v-98.054688c0-30.230468-27.503907-54.15625-58.796875-48.078124zm-6.570313 97.105468v-49.027344c0-9.019531 7.335938-16.339843 16.339844-16.339843 9.007813 0 16.34375 7.320312 16.34375 16.339843v49.027344zm0 0"/><path d="m245.132812 179.765625c-9.019531 0-16.34375 7.320313-16.34375 16.339844v147.078125h81.710938c9.023438 0 16.34375-7.320313 16.34375-16.339844s-7.320312-16.34375-16.34375-16.34375h-49.023438v-114.394531c0-9.019531-7.324218-16.339844-16.34375-16.339844zm0 0"/></g></svg>