<svg height="522.94925pt" viewBox="0 0 522.94925 522.94925" width="522.94925pt" xmlns="http://www.w3.org/2000/svg"><path d="m441.238281 261.476562h-359.527343c-45.054688 0-81.710938-36.65625-81.710938-81.710937 0-37.539063 25.851562-69.832031 61.59375-78.886719 25.167969-60.726562 84.621094-100.878906 150.855469-100.878906 48.699219 0 94.472656 21.652344 125.375 58.636719 11.71875-6.324219 24.628906-9.609375 38.046875-9.609375 32.992187 0 62.246094 19.855468 74.910156 49.582031 40.578125 4.738281 72.167969 39.320313 72.167969 81.15625 0 45.054687-36.65625 81.710937-81.710938 81.710937zm0 0" fill="#e4edfb"/><path d="m65.367188 163.421875h392.214843v163.421875h-392.214843zm0 0" fill="#77959e"/><path d="m424.894531 522.949219h-326.839843c-18.058594 0-32.6875-14.625-32.6875-32.683594v-245.132813h392.214843v245.132813c0 18.058594-14.628906 32.683594-32.6875 32.683594zm0 0" fill="#d7dee2"/><path d="m98.054688 196.105469h32.683593v32.683593h-32.683593zm0 0" fill="#fff"/><path d="m163.421875 196.105469h32.683594v32.683593h-32.683594zm0 0" fill="#fff"/><path d="m408.554688 228.789062h-163.421876c-9.019531 0-16.34375-7.320312-16.34375-16.339843 0-9.023438 7.324219-16.34375 16.34375-16.34375h163.421876c9.019531 0 16.339843 7.320312 16.339843 16.34375 0 9.019531-7.320312 16.339843-16.339843 16.339843zm0 0" fill="#62808c"/><g fill="#77959e"><path d="m173 441.238281-49.027344-49.027343 49.027344-49.027344c6.371094-6.371094 16.734375-6.371094 23.105469 0 6.375 6.375 6.375 16.734375 0 23.109375l-25.917969 25.917969 25.917969 25.917968c6.375 6.375 6.375 16.734375 0 23.109375-6.371094 6.375-16.734375 6.375-23.105469 0zm0 0"/><path d="m326.84375 441.238281c-6.375-6.375-6.375-16.734375 0-23.109375l25.917969-25.917968-25.917969-25.917969c-6.375-6.375-6.375-16.734375 0-23.109375 6.371094-6.371094 16.734375-6.371094 23.105469 0l49.027343 49.027344-49.027343 49.027343c-6.371094 6.375-16.734375 6.375-23.105469 0zm0 0"/><path d="m245.132812 441.238281c-8.5625-2.859375-13.1875-12.109375-10.34375-20.671875l22.355469-67.050781c2.859375-8.566406 12.109375-13.191406 20.671875-10.332031 8.5625 2.863281 13.1875 12.113281 10.328125 20.675781l-22.355469 67.050781c-2.84375 8.5625-12.09375 13.1875-20.65625 10.328125zm0 0"/></g></svg>