<svg height="522.94925pt" viewBox="0 0 522.94925 522.94925" width="522.94925pt" xmlns="http://www.w3.org/2000/svg"><path d="m457.582031 490.265625h-424.898437c-18.058594 0-32.683594-14.625-32.683594-32.683594v-424.898437c0-18.058594 14.625-32.683594 32.683594-32.683594h424.898437c18.058594 0 32.683594 14.625 32.683594 32.683594v424.898437c0 18.058594-14.625 32.683594-32.683594 32.683594zm0 0" fill="#e76e54"/><path d="m490.265625 522.949219h-392.210937c-18.058594 0-32.6875-14.625-32.6875-32.683594v-392.210937c0-18.058594 14.628906-32.6875 32.6875-32.6875h392.210937c18.058594 0 32.683594 14.628906 32.683594 32.6875v392.210937c0 18.058594-14.625 32.683594-32.683594 32.683594zm0 0" fill="#ffcb5a"/><g fill="#fff"><path d="m153.648438 197.054688c-23.269532 4.527343-39.253907 26.308593-39.253907 50.007812v96.121094c0 9.023437 7.320313 16.34375 16.34375 16.34375 9.019531 0 16.339844-7.320313 16.339844-16.34375v-32.683594h32.6875v32.683594c0 9.023437 7.320313 16.34375 16.339844 16.34375s16.34375-7.320313 16.34375-16.34375v-98.050782c0-30.234374-27.503907-54.160156-58.800781-48.078124zm-6.570313 80.761718v-32.683594c0-9.019531 7.324219-16.34375 16.34375-16.34375s16.34375 7.324219 16.34375 16.34375v32.683594zm0 0"/><path d="m261.476562 359.527344c-9.023437 0-16.34375-7.320313-16.34375-16.34375v-147.078125h39.203126c27.292968 0 52.132812 18.449219 57.609374 45.1875 7.53125 36.753906-20.496093 69.207031-55.957031 69.207031h-8.171875v32.683594c0 9.023437-7.320312 16.34375-16.339844 16.34375zm16.339844-81.710938h8.171875c13.515625 0 24.511719-10.996094 24.511719-24.511718 0-13.515626-10.996094-24.515626-24.511719-24.515626h-8.171875zm0 0"/><path d="m392.210938 359.527344c-9.019532 0-16.339844-7.320313-16.339844-16.34375v-147.078125h39.203125c27.292969 0 52.132812 18.449219 57.605469 45.1875 7.535156 36.753906-20.492188 69.207031-55.953126 69.207031h-8.171874v32.683594c0 9.023437-7.320313 16.34375-16.34375 16.34375zm16.34375-81.710938h8.171874c13.511719 0 24.511719-10.996094 24.511719-24.511718 0-13.515626-11-24.515626-24.511719-24.515626h-8.171874zm0 0"/></g></svg>