<svg height="522.94925pt" viewBox="0 0 522.94925 522.94925" width="522.94925pt" xmlns="http://www.w3.org/2000/svg"><path d="m457.582031 522.949219h-392.214843c-36.097657 0-65.367188-29.269531-65.367188-65.367188v-392.214843c0-36.097657 29.269531-65.367188 65.367188-65.367188h392.214843c36.097657 0 65.367188 29.269531 65.367188 65.367188v392.214843c0 36.097657-29.269531 65.367188-65.367188 65.367188zm0 0" fill="#9575cd"/><path d="m457.582031 375.871094h-301.824219l-95.324218-114.394532 95.324218-114.398437h301.824219zm0 0" fill="#7e57c2"/><path d="m338.398438 232.171875-23.109376-23.105469-29.300781 29.300782-29.300781-29.300782-23.109375 23.105469 29.300781 29.304687-29.300781 29.300782 23.109375 23.105468 29.300781-29.300781 29.300781 29.300781 23.109376-23.105468-29.304688-29.300782zm0 0" fill="#fff"/></svg>