<svg height="512pt" viewBox="0 0 512 512" width="512pt" xmlns="http://www.w3.org/2000/svg"><path d="m0 96v384c0 17.679688 14.320312 32 32 32h448c17.679688 0 32-14.320312 32-32v-384zm0 0" fill="#e4edfb"/><path d="m0 0h512v128h-512zm0 0" fill="#77959e"/><path d="m64 48h32v32h-32zm0 0" fill="#fff"/><path d="m128 48h32v32h-32zm0 0" fill="#fff"/><path d="m432 80h-224c-8.832031 0-16-7.167969-16-16s7.167969-16 16-16h224c8.832031 0 16 7.167969 16 16s-7.167969 16-16 16zm0 0" fill="#62808c"/><path d="m448 480-64-42.671875-64 42.671875v-157.902344h128zm0 0" fill="#e76e54"/><path d="m480 274.097656c0 53.019532-42.980469 96-96 96s-96-42.980468-96-96c0-53.019531 42.980469-96 96-96s96 42.980469 96 96zm0 0" fill="#ffcb5a"/></svg>