<svg height="508.116pt" viewBox="0 0 508.116 508.116" width="508.116pt" xmlns="http://www.w3.org/2000/svg"><path d="m256 128c0 70.691406-57.308594 128-128 128s-128-57.308594-128-128 57.308594-128 128-128 128 57.308594 128 128zm0 0" fill="#ffcb5a"/><path d="m224 128c0 53.019531-42.980469 96-96 96s-96-42.980469-96-96 42.980469-96 96-96 96 42.980469 96 96zm0 0" fill="#fba61f"/><path d="m426.191406 494.0625-105.3125-105.308594-50.621094 75.949219-152.785156-347.230469 347.230469 152.785156-75.949219 50.621094 105.308594 105.3125c18.738281 18.738282 18.738281 49.136719 0 67.871094-18.75 18.738281-49.132812 18.738281-67.871094 0zm0 0" fill="#48c8ef"/><path d="m117.472656 117.472656 152.785156 347.230469 50.621094-75.949219 105.3125 105.308594c18.738282 18.738281 49.136719 18.738281 67.871094 0zm0 0" fill="#24b2d3"/></svg>