<svg height="508.116pt" viewBox="0 0 508.116 508.116" width="508.116pt" xmlns="http://www.w3.org/2000/svg"><path d="m426.191406 494.0625-105.3125-105.308594-50.621094 75.949219-152.785156-347.230469 347.230469 152.785156-75.949219 50.621094 105.308594 105.3125c18.738281 18.738282 18.738281 49.136719 0 67.871094-18.75 18.738281-49.132812 18.738281-67.871094 0zm0 0" fill="#48c8ef"/><g fill="#e76e54"><path d="m69.503906 92.128906-22.640625-22.640625c-6.238281-6.242187-6.238281-16.382812 0-22.625 6.242188-6.238281 16.382813-6.238281 22.625 0l22.640625 22.640625c6.238282 6.238282 6.238282 16.382813 0 22.625-6.257812 6.238282-16.386718 6.238282-22.625 0zm0 0"/><path d="m48 176h-32c-8.832031 0-16-7.167969-16-16s7.167969-16 16-16h32c8.832031 0 16 7.167969 16 16s-7.167969 16-16 16zm0 0"/><path d="m46.863281 273.136719c-6.238281-6.242188-6.238281-16.382813 0-22.625l22.640625-22.640625c6.238282-6.238282 16.382813-6.238282 22.625 0 6.238282 6.242187 6.238282 16.386718 0 22.625l-22.640625 22.640625c-6.257812 6.253906-16.382812 6.253906-22.625 0zm0 0"/><path d="m160 64c-8.832031 0-16-7.167969-16-16v-32c0-8.832031 7.167969-16 16-16s16 7.167969 16 16v32c0 8.832031-7.167969 16-16 16zm0 0"/><path d="m227.871094 92.128906c-6.238282-6.242187-6.238282-16.386718 0-22.625l22.640625-22.640625c6.242187-6.238281 16.382812-6.238281 22.625 0 6.238281 6.242188 6.238281 16.382813 0 22.625l-22.640625 22.640625c-6.238282 6.238282-16.367188 6.238282-22.625 0zm0 0"/></g><path d="m117.472656 117.472656 152.785156 347.230469 50.621094-75.949219 105.3125 105.308594c18.738282 18.738281 49.136719 18.738281 67.871094 0zm0 0" fill="#24b2d3"/></svg>