<svg height="522.94925pt" viewBox="0 0 522.94925 522.94925" width="522.94925pt" xmlns="http://www.w3.org/2000/svg"><path d="m442.871094 357.894531-364.378906-.328125c-45.480469-9.167968-78.492188-49.582031-78.492188-96.089844 0-36.214843 20.296875-69.210937 51.789062-86.140624-1.832031-9.316407-2.761718-18.777344-2.761718-28.257813 0-81.105469 65.972656-147.078125 147.078125-147.078125 58.765625 0 110.636719 34.089844 134.089843 86.484375 9.640626-3.171875 19.460938-4.773437 29.332032-4.773437 50.367187 0 91.992187 38.175781 97.449218 87.105468 38.910157 13.464844 65.972657 50.5625 65.972657 92.660156 0 46.507813-33.011719 86.921876-78.492188 96.105469zm0 0" fill="#e4edfb"/><path d="m424.894531 522.949219h-326.839843c-18.058594 0-32.6875-14.625-32.6875-32.683594v-196.105469c0-18.058594 14.628906-32.683594 32.6875-32.683594h326.839843c18.058594 0 32.6875 14.625 32.6875 32.683594v196.105469c0 18.058594-14.628906 32.683594-32.6875 32.683594zm0 0" fill="#80deea"/><g fill="#fff"><path d="m164.910156 439.148438-39.109375-46.9375 39.109375-46.933594c5.785156-6.929688 16.078125-7.878906 23.023438-2.09375 6.929687 5.785156 7.878906 16.082031 2.09375 23.027344l-21.671875 26 21.671875 26c5.785156 6.929687 4.835937 17.242187-2.09375 23.027343-6.929688 5.785157-17.238282 4.855469-23.023438-2.089843zm0 0"/><path d="m335.015625 441.238281c-6.945313-5.785156-7.878906-16.097656-2.09375-23.027343l21.671875-26-21.671875-26c-5.785156-6.929688-4.851563-17.242188 2.09375-23.027344 6.929687-5.785156 17.238281-4.835938 23.023437 2.09375l39.109376 46.933594-39.109376 46.9375c-5.785156 6.945312-16.09375 7.875-23.023437 2.089843zm0 0"/><path d="m236.960938 441.238281c-8.074219-4.035156-11.339844-13.859375-7.304688-21.929687l34.402344-68.816406c4.035156-8.074219 13.855468-11.34375 21.929687-7.308594 8.074219 4.039062 11.339844 13.859375 7.304688 21.933594l-34.402344 68.816406c-4.035156 8.074218-13.855469 11.339844-21.929687 7.304687zm0 0"/></g></svg>