<svg height="522pt" viewBox="0 -65 522.94925 522" width="522pt" xmlns="http://www.w3.org/2000/svg"><path d="m424.894531 392.6875h-310.5c-63.082031 0-114.394531-51.332031-114.394531-114.394531 0-38.242188 18.988281-73.558594 50.253906-94.722657-.820312-6.617187-1.226562-13.203124-1.226562-19.675781 0-90.109375 73.308594-163.417969 163.421875-163.417969 78.964843 0 145.003906 55.121094 160.136719 130.816407 42.945312-1.632813 78.75 29.710937 84.257812 70.648437 38.976562 13.433594 66.105469 50.5625 66.105469 92.691406 0 54.078126-43.976563 98.054688-98.054688 98.054688zm0 0" fill="#e4edfb"/><g fill="#48c8ef"><path d="m148.566406 308.882812-39.105468-46.933593 39.105468-46.933594c5.785156-6.929687 16.097656-7.878906 23.027344-2.09375s7.859375 16.082031 2.089844 23.011719l-21.667969 26.015625 21.667969 26c5.785156 6.929687 4.839844 17.242187-2.089844 23.011719-6.929688 5.800781-17.242188 4.851562-23.027344-2.078126zm0 0"/><path d="m318.671875 310.976562c-6.929687-5.785156-7.859375-16.082031-2.089844-23.011718l21.667969-26.015625-21.667969-26c-5.785156-6.945313-4.839843-17.242188 2.089844-23.027344s17.242187-4.851563 23.027344 2.09375l39.105469 46.933594-39.105469 46.933593c-5.785157 6.929688-16.097657 7.878907-23.027344 2.09375zm0 0"/><path d="m220.621094 310.976562c-8.074219-4.039062-11.34375-13.859374-7.308594-21.933593l34.402344-68.816407c4.035156-8.070312 13.859375-11.339843 21.929687-7.304687 8.074219 4.039063 11.34375 13.859375 7.304688 21.933594l-34.398438 68.816406c-4.035156 8.070313-13.859375 11.339844-21.929687 7.304687zm0 0"/></g></svg>