<svg height="512pt" viewBox="0 0 512 512" width="512pt" xmlns="http://www.w3.org/2000/svg"><path d="m432 320h-336c-52.945312 0-96-43.054688-96-96 0-41.121094 26.398438-77.390625 64.382812-90.65625 5.472657-74.449219 67.792969-133.34375 143.617188-133.34375 49.710938 0 95.089844 25.246094 121.425781 66.734375 7.40625-1.804687 14.957031-2.734375 22.574219-2.734375 52.945312 0 96 43.054688 96 96 0 .527344 0 1.070312-.015625 1.601562 36.480469 7.421876 64.015625 39.757813 64.015625 78.398438 0 44.113281-35.886719 80-80 80zm0 0" fill="#80deea"/><g fill="#57565c"><path d="m208 288h32v48h-32zm0 0"/><path d="m272 288h32v48h-32zm0 0"/><path d="m208 464h32v48h-32zm0 0"/><path d="m272 464h32v48h-32zm0 0"/><path d="m144 416h48v32h-48zm0 0"/><path d="m144 352h48v32h-48zm0 0"/><path d="m320 416h48v32h-48zm0 0"/><path d="m320 352h48v32h-48zm0 0"/></g><path d="m304 480h-96c-17.679688 0-32-14.320312-32-32v-96c0-17.679688 14.320312-32 32-32h96c17.679688 0 32 14.320312 32 32v96c0 17.679688-14.320312 32-32 32zm0 0" fill="#62808c"/><path d="m224 448h64c8.832031 0 16-7.167969 16-16v-64c0-8.832031-7.167969-16-16-16h-64c-8.832031 0-16 7.167969-16 16v64c0 8.832031 7.167969 16 16 16zm0 0" fill="#d7dee2"/><path d="m240 160h32v32h-32zm0 0" fill="#fff"/><path d="m240 96h32v32h-32zm0 0" fill="#fff"/></svg>