<svg height="514pt" viewBox="0 -1 514.672 514" width="514pt" xmlns="http://www.w3.org/2000/svg"><path d="m480 464.335938h-448v-256c0-26.464844 21.535156-48 48-48h352c26.464844 0 48 21.535156 48 48zm0 0" fill="#e4edfb"/><path d="m64 416.335938h384v-208c0-8.816407-7.167969-16-16-16h-352c-8.832031 0-16 7.183593-16 16zm0 0" fill="#48c8ef"/><path d="m482.671875 512.335938h-450.671875c-17.679688 0-32-14.320313-32-32v-32h514.671875v32c0 17.679687-14.320313 32-32 32zm0 0" fill="#d7e1f2"/><g fill="#fff"><path d="m240 240.335938h32v32h-32zm0 0"/><path d="m176 352.335938h32v32h-32zm0 0"/><path d="m304 288.335938h32v32h-32zm0 0"/><path d="m240 144.335938h32v64h-32zm0 0"/><path d="m304 160.335938h32v96h-32zm0 0"/><path d="m176 160.335938h32v160h-32zm0 0"/></g><path d="m328 176.335938h-136c-35.296875 0-64-28.703126-64-64 0-33.199219 25.40625-60.574219 57.777344-63.695313 14.832031-29.3125 44.957031-48.304687 78.222656-48.304687 41.441406 0 76.433594 28.6875 85.425781 68.320312 20.574219 8.480469 34.574219 28.6875 34.574219 51.679688 0 30.878906-25.121094 56-56 56zm0 0" fill="#80deea"/><path d="m328 144.335938h-136c-29.726562 0-54.558594-20.464844-61.726562-47.984376-1.328126 5.136719-2.273438 10.433594-2.273438 15.984376 0 35.296874 28.703125 64 64 64h136c30.878906 0 56-25.121094 56-56 0-5.695313-.863281-11.214844-2.480469-16.433594-6.785156 23.265625-28.078125 40.433594-53.519531 40.433594zm0 0" fill="#4dd0e1"/></svg>