<svg height="512pt" viewBox="0 0 512 512" width="512pt" xmlns="http://www.w3.org/2000/svg"><path d="m0 96v384c0 17.679688 14.320312 32 32 32h448c17.679688 0 32-14.320312 32-32v-384zm0 0" fill="#e4edfb"/><path d="m0 0h512v128h-512zm0 0" fill="#77959e"/><path d="m64 48h32v32h-32zm0 0" fill="#fff"/><path d="m128 48h32v32h-32zm0 0" fill="#fff"/><path d="m432 80h-224c-8.832031 0-16-7.167969-16-16s7.167969-16 16-16h224c8.832031 0 16 7.167969 16 16s-7.167969 16-16 16zm0 0" fill="#62808c"/><path d="m384 448h-240c-44.113281 0-80-35.886719-80-80 0-32.207031 19.375-60.816406 48.367188-73.265625 4.738281-57.4375 52.992187-102.734375 111.632812-102.734375 43.566406 0 82.847656 25.34375 101.183594 64.160156 36.914062 2.367188 67.074218 29.886719 73.535156 65.550782 28.226562 6.65625 49.28125 32.066406 49.28125 62.289062 0 35.296875-28.703125 64-64 64zm0 0" fill="#80deea"/><path d="m384 416h-240c-38.480469 0-70.671875-27.328125-78.273438-63.585938-1.023437 5.089844-1.726562 10.257813-1.726562 15.585938 0 44.113281 35.886719 80 80 80h240c35.296875 0 64-28.703125 64-64 0-5.566406-.929688-10.863281-2.273438-16.015625-7.132812 27.535156-31.984374 48.015625-61.726562 48.015625zm0 0" fill="#4dd0e1"/></svg>