<svg height="512pt" viewBox="0 0 512 512" width="512pt" xmlns="http://www.w3.org/2000/svg"><path d="m512 96v384c0 17.679688-14.320312 32-32 32h-448c-17.679688 0-32-14.320312-32-32v-384zm0 0" fill="#e4edfb"/><path d="m0 0h512v128h-512zm0 0" fill="#77959e"/><path d="m64 48h32v32h-32zm0 0" fill="#fff"/><path d="m128 48h32v32h-32zm0 0" fill="#fff"/><path d="m432 80h-224c-8.832031 0-16-7.167969-16-16s7.167969-16 16-16h224c8.832031 0 16 7.167969 16 16s-7.167969 16-16 16zm0 0" fill="#62808c"/><path d="m352 288h-192c-8.832031 0-16-7.167969-16-16s7.167969-16 16-16h192c8.832031 0 16 7.167969 16 16s-7.167969 16-16 16zm0 0" fill="#24b2d3"/><path d="m336 384h-192c-8.832031 0-16-7.167969-16-16s7.167969-16 16-16h192c8.832031 0 16 7.167969 16 16s-7.167969 16-16 16zm0 0" fill="#24b2d3"/><g fill="#48c8ef"><path d="m176 432c-8.640625-1.855469-14.160156-10.351562-12.304688-18.992188l41.296876-192.703124c1.855468-8.65625 10.367187-14.160157 19.007812-12.304688s14.144531 10.351562 12.289062 18.992188l-41.296874 192.703124c-1.839844 8.65625-10.351563 14.160157-18.992188 12.304688zm0 0"/><path d="m272 432c-8.640625-1.855469-14.160156-10.351562-12.304688-18.992188l41.296876-192.703124c1.855468-8.65625 10.367187-14.160157 19.007812-12.304688s14.144531 10.351562 12.289062 18.992188l-41.296874 192.703124c-1.839844 8.65625-10.351563 14.160157-18.992188 12.304688zm0 0"/></g></svg>