<svg height="522.94925pt" viewBox="0 0 522.94925 522.94925" width="522.94925pt" xmlns="http://www.w3.org/2000/svg"><path d="m179.765625 408.554688h163.417969v98.050781h-163.417969zm0 0" fill="#d7e1f2"/><path d="m375.871094 522.949219h-228.792969c-9.019531 0-16.339844-7.320313-16.339844-16.34375 0-9.019531 7.320313-16.339844 16.339844-16.339844h228.792969c9.019531 0 16.339844 7.320313 16.339844 16.339844 0 9.023437-7.320313 16.34375-16.339844 16.34375zm0 0" fill="#e4edfb"/><path d="m522.949219 32.683594c0-18.058594-14.625-32.683594-32.683594-32.683594h-457.582031c-18.058594 0-32.683594 14.625-32.683594 32.683594v326.84375h522.949219zm0 0" fill="#80deea"/><path d="m0 343.183594v65.371094c0 18.058593 14.625 32.683593 32.683594 32.683593h457.582031c18.058594 0 32.683594-14.625 32.683594-32.683593v-65.371094zm0 0" fill="#e4edfb"/><path d="m245.132812 375.871094h32.683594v32.683594h-32.683594zm0 0" fill="#77959e"/><g fill="#fff"><path d="m424.894531 98.054688h32.6875v32.683593h-32.6875zm0 0"/><path d="m375.871094 130.738281h-32.6875c-9.019532 0-16.339844-7.320312-16.339844-16.34375 0-9.019531 7.320312-16.339843 16.339844-16.339843h32.6875c9.019531 0 16.339844 7.320312 16.339844 16.339843 0 9.023438-7.320313 16.34375-16.339844 16.34375zm0 0"/><path d="m277.816406 130.738281h-65.367187c-9.023438 0-16.34375-7.320312-16.34375-16.34375 0-9.019531 7.320312-16.339843 16.34375-16.339843h65.367187c9.019532 0 16.34375 7.320312 16.34375 16.339843 0 9.023438-7.324218 16.34375-16.34375 16.34375zm0 0"/><path d="m147.078125 130.738281h-65.367187c-9.019532 0-16.34375-7.320312-16.34375-16.34375 0-9.019531 7.324218-16.339843 16.34375-16.339843h65.367187c9.023437 0 16.34375 7.320312 16.34375 16.339843 0 9.023438-7.320313 16.34375-16.34375 16.34375zm0 0"/><path d="m441.238281 196.105469h-32.683593c-9.019532 0-16.34375-7.320313-16.34375-16.339844 0-9.023437 7.324218-16.34375 16.34375-16.34375h32.683593c9.019531 0 16.34375 7.320313 16.34375 16.34375 0 9.019531-7.324219 16.339844-16.34375 16.339844zm0 0"/><path d="m343.183594 196.105469h-65.367188c-9.019531 0-16.339844-7.320313-16.339844-16.339844 0-9.023437 7.320313-16.34375 16.339844-16.34375h65.367188c9.023437 0 16.34375 7.320313 16.34375 16.34375 0 9.019531-7.320313 16.339844-16.34375 16.339844zm0 0"/><path d="m212.449219 196.105469h-32.683594c-9.023437 0-16.34375-7.320313-16.34375-16.339844 0-9.023437 7.320313-16.34375 16.34375-16.34375h32.683594c9.019531 0 16.339843 7.320313 16.339843 16.34375 0 9.019531-7.320312 16.339844-16.339843 16.339844zm0 0"/><path d="m114.394531 196.105469h-32.683593c-9.019532 0-16.34375-7.320313-16.34375-16.339844 0-9.023437 7.324218-16.34375 16.34375-16.34375h32.683593c9.023438 0 16.34375 7.320313 16.34375 16.34375 0 9.019531-7.320312 16.339844-16.34375 16.339844zm0 0"/><path d="m424.894531 228.789062h32.6875v32.6875h-32.6875zm0 0"/><path d="m359.527344 228.789062h32.683594v32.6875h-32.683594zm0 0"/><path d="m310.5 261.476562h-65.367188c-9.019531 0-16.34375-7.324218-16.34375-16.34375 0-9.019531 7.324219-16.34375 16.34375-16.34375h65.367188c9.023438 0 16.34375 7.324219 16.34375 16.34375 0 9.019532-7.320312 16.34375-16.34375 16.34375zm0 0"/><path d="m179.765625 261.476562h-98.054687c-9.019532 0-16.34375-7.324218-16.34375-16.34375 0-9.019531 7.324218-16.34375 16.34375-16.34375h98.054687c9.019531 0 16.339844 7.324219 16.339844 16.34375 0 9.019532-7.320313 16.34375-16.339844 16.34375zm0 0"/></g></svg>