<svg height="522.94925pt" viewBox="0 0 522.94925 522.94925" width="522.94925pt" xmlns="http://www.w3.org/2000/svg"><path d="m490.265625 490.265625h-457.582031v-277.816406c0-27.03125 21.996094-49.027344 49.027344-49.027344h359.527343c27.03125 0 49.027344 21.996094 49.027344 49.027344zm0 0" fill="#e4edfb"/><path d="m65.367188 424.894531h392.214843v-212.445312c0-9.023438-7.324219-16.34375-16.34375-16.34375h-359.527343c-9.019532 0-16.34375 7.320312-16.34375 16.34375zm0 0" fill="#48c8ef"/><path d="m424.894531 457.582031h-326.839843v-424.898437c0-18.058594 14.625-32.683594 32.683593-32.683594h261.472657c18.058593 0 32.683593 14.625 32.683593 32.683594zm0 0" fill="#ecce93"/><path d="m490.265625 522.949219h-457.582031c-18.058594 0-32.683594-14.625-32.683594-32.683594v-32.683594h522.949219v32.683594c0 18.058594-14.625 32.683594-32.683594 32.683594zm0 0" fill="#bfc9d1"/><path d="m326.84375 147.078125h32.683594v32.6875h-32.683594zm0 0" fill="#fff"/><path d="m277.816406 179.765625h-32.683594c-9.019531 0-16.34375-7.324219-16.34375-16.34375s7.324219-16.34375 16.34375-16.34375h32.683594c9.019532 0 16.34375 7.324219 16.34375 16.34375s-7.324218 16.34375-16.34375 16.34375zm0 0" fill="#e5bd76"/><path d="m163.421875 147.078125h32.683594v32.6875h-32.683594zm0 0" fill="#fff"/><path d="m343.183594 245.132812h-65.367188c-9.019531 0-16.339844-7.320312-16.339844-16.34375 0-9.019531 7.320313-16.339843 16.339844-16.339843h65.367188c9.023437 0 16.34375 7.320312 16.34375 16.339843 0 9.023438-7.320313 16.34375-16.34375 16.34375zm0 0" fill="#e5bd76"/><path d="m212.449219 245.132812h-32.683594c-9.023437 0-16.34375-7.320312-16.34375-16.34375 0-9.019531 7.320313-16.339843 16.34375-16.339843h32.683594c9.019531 0 16.339843 7.320312 16.339843 16.339843 0 9.023438-7.320312 16.34375-16.339843 16.34375zm0 0" fill="#e5bd76"/><path d="m326.84375 343.183594h32.683594v32.6875h-32.683594zm0 0" fill="#fff"/><path d="m277.816406 375.871094h-32.683594c-9.019531 0-16.34375-7.324219-16.34375-16.34375 0-9.019532 7.324219-16.34375 16.34375-16.34375h32.683594c9.019532 0 16.34375 7.324218 16.34375 16.34375 0 9.019531-7.324218 16.34375-16.34375 16.34375zm0 0" fill="#e5bd76"/><path d="m163.421875 343.183594h32.683594v32.6875h-32.683594zm0 0" fill="#fff"/><path d="m326.84375 277.816406h32.683594v32.683594h-32.683594zm0 0" fill="#fff"/><path d="m261.476562 277.816406h32.683594v32.683594h-32.683594zm0 0" fill="#fff"/><g fill="#e5bd76"><path d="m212.449219 310.5h-32.683594c-9.023437 0-16.34375-7.320312-16.34375-16.339844 0-9.023437 7.320313-16.34375 16.34375-16.34375h32.683594c9.019531 0 16.339843 7.320313 16.339843 16.34375 0 9.019532-7.320312 16.339844-16.339843 16.339844zm0 0"/><path d="m343.183594 114.394531h-32.683594c-9.019531 0-16.339844-7.320312-16.339844-16.339843 0-9.023438 7.320313-16.34375 16.339844-16.34375h32.683594c9.023437 0 16.34375 7.320312 16.34375 16.34375 0 9.019531-7.320313 16.339843-16.34375 16.339843zm0 0"/><path d="m245.132812 114.394531h-65.367187c-9.023437 0-16.34375-7.320312-16.34375-16.339843 0-9.023438 7.320313-16.34375 16.34375-16.34375h65.367187c9.019532 0 16.34375 7.320312 16.34375 16.34375 0 9.019531-7.324218 16.339843-16.34375 16.339843zm0 0"/><path d="m98.054688 424.894531h326.839843v32.6875h-326.839843zm0 0"/></g></svg>