<svg height="522.94925pt" viewBox="0 0 522.94925 522.94925" width="522.94925pt" xmlns="http://www.w3.org/2000/svg"><path d="m490.265625 490.265625h-457.582031v-277.816406c0-27.03125 21.996094-49.027344 49.027344-49.027344h359.527343c27.03125 0 49.027344 21.996094 49.027344 49.027344zm0 0" fill="#e4edfb"/><path d="m65.367188 424.894531h392.214843v-212.445312c0-9.023438-7.324219-16.34375-16.34375-16.34375h-359.527343c-9.019532 0-16.34375 7.320312-16.34375 16.34375zm0 0" fill="#48c8ef"/><path d="m424.894531 457.582031h-326.839843v-424.898437c0-18.058594 14.625-32.683594 32.683593-32.683594h261.472657c18.058593 0 32.683593 14.625 32.683593 32.683594zm0 0" fill="#ecce93"/><path d="m179.765625 228.789062c-6.375-6.371093-6.375-16.734374 0-23.105468l42.257813-42.261719-42.257813-42.261719c-6.375-6.371094-6.375-16.734375 0-23.105468 6.371094-6.375 16.734375-6.375 23.105469 0l65.371094 65.367187-65.371094 65.367187c-6.371094 6.375-16.734375 6.375-23.105469 0zm0 0" fill="#fff"/><g fill="#e5bd76"><path d="m343.183594 310.5h-163.417969c-9.023437 0-16.34375-7.320312-16.34375-16.339844 0-9.023437 7.320313-16.34375 16.34375-16.34375h163.417969c9.023437 0 16.34375 7.320313 16.34375 16.34375 0 9.019532-7.320313 16.339844-16.34375 16.339844zm0 0"/><path d="m343.183594 375.871094h-163.417969c-9.023437 0-16.34375-7.324219-16.34375-16.34375 0-9.019532 7.320313-16.34375 16.34375-16.34375h163.417969c9.023437 0 16.34375 7.324218 16.34375 16.34375 0 9.019531-7.320313 16.34375-16.34375 16.34375zm0 0"/><path d="m343.183594 245.132812h-32.683594c-9.019531 0-16.339844-7.320312-16.339844-16.34375 0-9.019531 7.320313-16.339843 16.339844-16.339843h32.683594c9.023437 0 16.34375 7.320312 16.34375 16.339843 0 9.023438-7.320313 16.34375-16.34375 16.34375zm0 0"/><path d="m343.183594 179.765625h-32.683594c-9.019531 0-16.339844-7.324219-16.339844-16.34375s7.320313-16.34375 16.339844-16.34375h32.683594c9.023437 0 16.34375 7.324219 16.34375 16.34375s-7.320313 16.34375-16.34375 16.34375zm0 0"/><path d="m343.183594 114.394531h-32.683594c-9.019531 0-16.339844-7.320312-16.339844-16.339843 0-9.023438 7.320313-16.34375 16.339844-16.34375h32.683594c9.023437 0 16.34375 7.320312 16.34375 16.34375 0 9.019531-7.320313 16.339843-16.34375 16.339843zm0 0"/><path d="m98.054688 424.894531h326.839843v32.6875h-326.839843zm0 0"/></g><path d="m490.265625 522.949219h-457.582031c-18.058594 0-32.683594-14.625-32.683594-32.683594v-32.683594h522.949219v32.683594c0 18.058594-14.625 32.683594-32.683594 32.683594zm0 0" fill="#bfc9d1"/></svg>