<svg height="522pt" viewBox="0 0 522 522.95908" width="522pt" xmlns="http://www.w3.org/2000/svg"><g fill="#9575cd"><path d="m229.269531 196.117188h-130.738281c-54.074219 0-98.050781-43.976563-98.050781-98.054688 0-54.074219 43.976562-98.0507812 98.050781-98.0507812 54.078125 0 98.054688 43.9765622 98.054688 98.0507812v65.367188h32.683593zm-130.738281-163.421876c-36.050781 0-65.367188 29.316407-65.367188 65.367188s29.316407 65.367188 65.367188 65.367188h65.371094v-65.367188c0-36.050781-29.320313-65.367188-65.371094-65.367188zm0 0"/><path d="m343.664062 294.167969c-9.019531 0-16.339843-7.320313-16.339843-16.339844v-175.515625c0-55.742188 44.660156-103.59375 100.386719-102.2851562 52.214843 1.2226562 94.460937 43.4687502 95.683593 95.6835942 1.324219 55.742187-46.523437 100.40625-102.269531 100.40625h-61.117188v81.710937c0 9.019531-7.320312 16.339844-16.34375 16.339844zm16.34375-130.738281h65.367188c36.050781 0 65.371094-29.316407 65.371094-65.367188s-29.320313-65.367188-65.371094-65.367188-65.367188 29.316407-65.367188 65.367188zm0 0"/><path d="m425.375 522.960938c-54.074219 0-98.050781-43.980469-98.050781-98.054688v-65.367188h-32.6875v-32.6875h130.738281c54.078125 0 98.054688 43.976563 98.054688 98.054688 0 54.074219-43.976563 98.054688-98.054688 98.054688zm-65.367188-163.421876v65.367188c0 36.050781 29.316407 65.367188 65.367188 65.367188s65.371094-29.316407 65.371094-65.367188-29.320313-65.367188-65.371094-65.367188zm0 0"/><path d="m96.195312 522.925781c-52.214843-1.226562-94.457031-43.46875-95.683593-95.683593-1.324219-55.726563 46.527343-100.390626 102.269531-100.390626h61.121094v-81.710937c0-9.019531 7.320312-16.339844 16.339844-16.339844 9.023437 0 16.34375 7.320313 16.34375 16.339844v175.515625c0 55.742188-44.664063 103.59375-100.390626 102.269531zm2.335938-163.386719c-36.050781 0-65.367188 29.316407-65.367188 65.367188s29.316407 65.367188 65.367188 65.367188 65.371094-29.316407 65.371094-65.367188v-65.367188zm0 0"/><path d="m261.953125 163.429688h32.683594v32.6875h-32.683594zm0 0"/><path d="m229.269531 326.851562h32.683594v32.6875h-32.683594zm0 0"/></g></svg>