<svg height="516pt" viewBox="0 -3 516.16725 516" width="516pt" xmlns="http://www.w3.org/2000/svg"><path d="m309.847656 509.207031-309.683594-178.75 191.609376-112.125 324.394531 171.707031zm0 0" fill="#ceed5f"/><path d="m309.847656 411.15625-309.847656-178.851562 205.226562-118.546876 309.894532 178.835938zm0 0" fill="#80deea"/><path d="m257.550781 65.453125h32.6875v196.105469h-32.6875zm0 0" fill="#dd523c"/><g fill="#e76e54"><path d="m257.550781.0820312h32.6875v32.6874998h-32.6875zm0 0"/><path d="m273.894531 284.667969-65.367187-65.371094c-6.375-6.371094-6.375-16.734375 0-23.105469 6.371094-6.375 16.734375-6.375 23.105468 0l42.261719 42.257813 42.261719-42.257813c6.371094-6.375 16.734375-6.375 23.105469 0 6.375 6.371094 6.375 16.734375 0 23.105469zm0 0"/></g></svg>