<svg height="512pt" viewBox="0 0 512 512" width="512pt" xmlns="http://www.w3.org/2000/svg"><path d="m512 96v384c0 17.679688-14.320312 32-32 32h-448c-17.679688 0-32-14.320312-32-32v-384zm0 0" fill="#e4edfb"/><path d="m0 0h512v128h-512zm0 0" fill="#77959e"/><path d="m64 48h32v32h-32zm0 0" fill="#fff"/><path d="m128 48h32v32h-32zm0 0" fill="#fff"/><path d="m432 80h-224c-8.832031 0-16-7.167969-16-16s7.167969-16 16-16h224c8.832031 0 16 7.167969 16 16s-7.167969 16-16 16zm0 0" fill="#62808c"/><path d="m344.800781 296.800781-151.199219 151.199219h-67.839843v-67.839844l151.199219-151.199218zm0 0" fill="#e76e54"/><path d="m289.679688 215.089844-23.503907 23.503906 68.945313 68.941406 23.503906-23.503906c18.75-18.75 18.75-49.136719 0-67.886719l-1.074219-1.074219c-18.71875-18.734374-49.117187-18.734374-67.871093.019532zm0 0" fill="#fff"/><path d="m193.617188 448.910156h-68.800782v-68.78125zm0 0" fill="#ecce93"/></svg>