<svg height="510.07162pt" viewBox="0 0 510.07162 510.07162" width="510.07162pt" xmlns="http://www.w3.org/2000/svg"><path d="m451.476562 81.703125-23.109374-23.109375 53.816406-53.8125c6.375-6.375 16.734375-6.375 23.109375 0 6.371093 6.371094 6.371093 16.734375 0 23.105469zm0 0" fill="#d7dee2"/><path d="m4.78125 505.292969c-6.375-6.375-6.375-16.734375 0-23.109375l53.8125-53.816406 23.109375 23.109374-53.816406 53.816407c-6.386719 6.371093-16.734375 6.371093-23.105469 0zm0 0" fill="#d7dee2"/><path d="m393.707031 231.917969-115.554687-115.554688 57.769531-57.769531c31.914063-31.914062 83.65625-31.914062 115.554687 0 31.898438 31.917969 31.898438 83.640625 0 115.554688zm0 0" fill="#dd523c"/><path d="m58.578125 451.476562c-31.898437-31.914062-31.898437-83.640624 0-115.554687l57.785156-57.785156 115.554688 115.554687-57.769531 57.769532c-31.914063 31.933593-83.652344 31.933593-115.570313.015624zm0 0" fill="#81c784"/><path d="m208.8125 231.917969c-6.375-6.371094-6.375-16.734375 0-23.105469l46.230469-46.234375 23.109375 23.109375-46.234375 46.230469c-6.386719 6.390625-16.734375 6.390625-23.105469 0zm0 0" fill="#d7dee2"/><path d="m278.136719 301.257812c-6.390625-6.386718-6.375-16.734374 0-23.105468l46.230469-46.214844 23.109374 23.105469-46.234374 46.214843c-6.371094 6.375-16.71875 6.375-23.105469 0zm0 0" fill="#d7dee2"/><path d="m208.8125 139.480469 69.320312-69.320313 161.777344 161.777344-69.320312 69.320312zm0 0" fill="#e76e54"/><path d="m70.144531 278.140625 69.320313-69.320313 161.777344 161.777344-69.320313 69.320313zm0 0" fill="#a5d6a7"/></svg>