<svg height="512pt" viewBox="0 0 512 512" width="512pt" xmlns="http://www.w3.org/2000/svg"><path d="m176 400h160v96h-160zm0 0" fill="#d7e1f2"/><path d="m512 368h-512v-272c0-17.679688 14.320312-32 32-32h448c17.679688 0 32 14.320312 32 32zm0 0" fill="#80deea"/><path d="m512 192h-160v-160c0-17.679688 14.320312-32 32-32h96c17.679688 0 32 14.320312 32 32zm0 0" fill="#48c8ef"/><path d="m352 176v48c0 17.679688 14.320312 32 32 32h96c17.679688 0 32-14.320312 32-32v-48zm0 0" fill="#e4edfb"/><g fill="#fff"><path d="m310.625 208h-150.625c-8.832031 0-16-7.167969-16-16s7.167969-16 16-16h73.375l-20.6875-20.6875 22.625-22.625zm0 0"/><path d="m148.6875 315.3125-75.3125-75.3125h150.625c8.832031 0 16 7.167969 16 16s-7.167969 16-16 16h-73.375l20.6875 20.6875zm0 0"/><path d="m80 176h32v32h-32zm0 0"/><path d="m272 240h32v32h-32zm0 0"/></g><path d="m368 512h-224c-8.832031 0-16-7.167969-16-16s7.167969-16 16-16h224c8.832031 0 16 7.167969 16 16s-7.167969 16-16 16zm0 0" fill="#e4edfb"/><path d="m480 432h-448c-17.679688 0-32-14.320312-32-32v-48h512v48c0 17.679688-14.320312 32-32 32zm0 0" fill="#e4edfb"/></svg>