<svg height="512pt" viewBox="0 0 512 512" width="512pt" xmlns="http://www.w3.org/2000/svg"><path d="m512 96v384c0 17.679688-14.320312 32-32 32h-448c-17.679688 0-32-14.320312-32-32v-384zm0 0" fill="#e4edfb"/><path d="m304 432h-96c-17.679688 0-32-14.320312-32-32v-17.777344c-34.382812-35.152344-43.695312-90.78125-14.894531-137.789062 15.789062-25.777344 42.238281-44.175782 71.886719-50.128906 71.761718-14.382813 135.007812 40.414062 135.007812 109.695312 0 29.230469-11.585938 57.34375-32 78.238281v17.761719c0 17.679688-14.320312 32-32 32zm0 0" fill="#a5d6a7"/><path d="m240 432h-32v-32c0-8.832031 7.167969-16 16-16s16 7.167969 16 16zm0 0" fill="#81c784"/><path d="m304 432h-32v-32c0-8.832031 7.167969-16 16-16s16 7.167969 16 16zm0 0" fill="#81c784"/><path d="m0 0h512v128h-512zm0 0" fill="#77959e"/><path d="m64 48h32v32h-32zm0 0" fill="#fff"/><path d="m128 48h32v32h-32zm0 0" fill="#fff"/><path d="m432 80h-224c-8.832031 0-16-7.167969-16-16s7.167969-16 16-16h224c8.832031 0 16 7.167969 16 16s-7.167969 16-16 16zm0 0" fill="#62808c"/><g fill="#fff"><path d="m208 288h32v32h-32zm0 0"/><path d="m272 288h32v32h-32zm0 0"/></g></svg>