<svg height="504pt" viewBox="0 -50 504.624 504" width="504pt" xmlns="http://www.w3.org/2000/svg"><path d="m254.320312 403.496094-254.320312-252.304688 94.304688-150.878906h316.03125l94.289062 150.878906zm0 0" fill="#c6c5ca"/><path d="m156.320312 151.191406 104-150.878906h-164.945312l58.800781 150.878906zm0 0" fill="#e4edfb"/><path d="m352.800781 151.191406 57.070313-150.878906h-149.550782zm0 0" fill="#e4edfb"/><g fill="#d7e1f2"><path d="m352.800781 151.191406-92.480469-150.878906-104 150.878906zm0 0"/><path d="m504.625 151.191406-94.289062-150.878906h-.464844l-57.070313 150.878906zm0 0"/><path d="m95.375.3125h-1.070312l-94.304688 150.878906h154.175781zm0 0"/></g><path d="m0 151.191406 253.902344 252.304688 250.722656-252.304688zm0 0" fill="#d7dee2"/><path d="m352.800781 151.191406h-198.625l100.144531 252.304688zm0 0" fill="#bfc9d1"/></svg>