<svg height="512pt" viewBox="0 0 512 512" width="512pt" xmlns="http://www.w3.org/2000/svg"><path d="m0 96v384c0 17.679688 14.320312 32 32 32h448c17.679688 0 32-14.320312 32-32v-384zm0 0" fill="#e4edfb"/><path d="m0 0h512v128h-512zm0 0" fill="#77959e"/><path d="m64 48h32v32h-32zm0 0" fill="#fff"/><path d="m128 48h32v32h-32zm0 0" fill="#fff"/><path d="m432 80h-224c-8.832031 0-16-7.167969-16-16s7.167969-16 16-16h224c8.832031 0 16 7.167969 16 16s-7.167969 16-16 16zm0 0" fill="#62808c"/><path d="m400 432h-288c-17.679688 0-32-14.320312-32-32v-160c0-17.679688 14.320312-32 32-32h288c17.679688 0 32 14.320312 32 32v160c0 17.679688-14.320312 32-32 32zm0 0" fill="#ecce93"/><path d="m256 336 164.976562-119.984375c-5.632812-4.925781-12.914062-8.015625-20.976562-8.015625h-288c-8.0625 0-15.34375 3.089844-20.976562 8.015625zm0 0" fill="#e5bd76"/></svg>