<svg height="522.94925pt" viewBox="0 0 522.94925 522.94925" width="522.94925pt" xmlns="http://www.w3.org/2000/svg"><path d="m457.582031 522.949219h-392.214843c-36.097657 0-65.367188-29.269531-65.367188-65.367188v-392.214843c0-36.097657 29.269531-65.367188 65.367188-65.367188h392.214843c36.097657 0 65.367188 29.269531 65.367188 65.367188v392.214843c0 36.097657-29.269531 65.367188-65.367188 65.367188zm0 0" fill="#48c8ef"/><path d="m384.039062 457.582031h-245.128906c-31.589844 0-57.199218-25.609375-57.199218-57.199219 0-31.589843 25.609374-57.199218 57.199218-57.199218h245.128906c31.589844 0 57.199219 25.609375 57.199219 57.199218 0 31.589844-25.609375 57.199219-57.199219 57.199219zm0 0" fill="#24b2d3"/><path d="m408.554688 287.621094h-294.160157c-13.464843 0-21.144531-15.378906-13.074219-26.144532l160.15625-190.664062 160.152344 190.664062c8.070313 10.765626.390625 26.144532-13.074218 26.144532zm0 0" fill="#fff"/></svg>