<svg height="512pt" viewBox="0 0 512 512" width="512pt" xmlns="http://www.w3.org/2000/svg"><path d="m0 96v384c0 17.679688 14.320312 32 32 32h448c17.679688 0 32-14.320312 32-32v-384zm0 0" fill="#e4edfb"/><path d="m0 0h512v128h-512zm0 0" fill="#77959e"/><path d="m64 48h32v32h-32zm0 0" fill="#fff"/><path d="m128 48h32v32h-32zm0 0" fill="#fff"/><path d="m432 80h-224c-8.832031 0-16-7.167969-16-16s7.167969-16 16-16h224c8.832031 0 16 7.167969 16 16s-7.167969 16-16 16zm0 0" fill="#62808c"/><path d="m262.449219 192.160156c-38.609375-1.886718-75.585938 13.457032-101.472657 42.160156-25.871093 28.671876-37.328124 67.214844-31.425781 105.710938 8.066407 52.609375 50.144531 96.066406 102.304688 105.710938 7.984375 1.472656 16 2.210937 23.953125 2.210937 17.183594 0 34.128906-3.394531 49.839844-10 8.925781-3.761719 12.351562-14.753906 7.34375-23.058594-4.082032-6.78125-12.511719-9.488281-19.792969-6.382812-16.65625 7.074219-34.847657 9.199219-53.4375 6.144531-34.335938-5.664062-63.921875-30.191406-74.738281-63.28125-11.136719-34.078125-3.34375-70.078125 19.695312-95.613281 19.425781-21.539063 47.183594-33.007813 76.144531-31.648438 50.257813 2.496094 91.136719 47.34375 91.136719 100v11.886719c0 8.816406-7.183594 16-16 16s-16-7.183594-16-16v-12.976562c0-35.136719-27.007812-65.984376-62.113281-66.992188-41.085938-1.183594-73.886719 36.578125-64.160157 79.023438 5.074219 22.082031 22.371094 40.289062 44.195313 46.417968 23.820313 6.6875 46.09375-.402344 61.503906-14.738281 10.335938 12.289063 26.511719 19.539063 44.398438 16.640625 23.664062-3.839844 40.175781-25.839844 40.175781-49.808594v-9.453125c0-70.625-53.390625-128.578125-121.550781-131.953125zm-6.449219 159.839844c-17.648438 0-32-14.351562-32-32s14.351562-32 32-32 32 14.351562 32 32-14.351562 32-32 32zm0 0" fill="#9575cd"/></svg>