<svg height="522.94925pt" viewBox="0 0 522.94925 522.94925" width="522.94925pt" xmlns="http://www.w3.org/2000/svg"><path d="m457.582031 522.949219h-392.214843c-36.097657 0-65.367188-29.269531-65.367188-65.367188v-392.214843c0-36.097657 29.269531-65.367188 65.367188-65.367188h392.214843c36.097657 0 65.367188 29.269531 65.367188 65.367188v392.214843c0 36.097657-29.269531 65.367188-65.367188 65.367188zm0 0" fill="#aa854b"/><g fill="#fff"><path d="m441.238281 179.765625h-32.683593v81.710937h-271.050782l25.917969-25.921874c6.375-6.371094 6.375-16.734376 0-23.105469-6.375-6.375-16.734375-6.375-23.109375 0l-65.367188 65.367187 65.367188 65.367188c6.375 6.375 16.734375 6.375 23.109375 0 6.375-6.371094 6.375-16.734375 0-23.105469l-25.917969-25.917969h303.734375zm0 0"/><path d="m408.554688 114.394531h32.683593v32.683594h-32.683593zm0 0"/></g></svg>