<svg height="512pt" viewBox="0 0 512 512" width="512pt" xmlns="http://www.w3.org/2000/svg"><path d="m512 96v384c0 17.679688-14.320312 32-32 32h-448c-17.679688 0-32-14.320312-32-32v-384zm0 0" fill="#e4edfb"/><path d="m0 0h512v128h-512zm0 0" fill="#77959e"/><path d="m64 48h32v32h-32zm0 0" fill="#fff"/><path d="m128 48h32v32h-32zm0 0" fill="#fff"/><path d="m432 80h-224c-8.832031 0-16-7.167969-16-16s7.167969-16 16-16h224c8.832031 0 16 7.167969 16 16s-7.167969 16-16 16zm0 0" fill="#62808c"/><g fill="#fba61f"><path d="m201.375 288-68.6875-68.6875 22.625-22.625 68.6875 68.6875c6.238281 6.242188 6.238281 16.386719 0 22.625s-16.382812 6.238281-22.625 0zm0 0"/><path d="m155.3125 443.3125-22.625-22.625 68.6875-68.6875c6.242188-6.238281 16.386719-6.238281 22.625 0s6.238281 16.382812 0 22.625zm0 0"/><path d="m288 288c-6.238281-6.238281-6.238281-16.382812 0-22.625l68.6875-68.6875 22.625 22.625-68.6875 68.6875c-6.242188 6.238281-16.386719 6.238281-22.625 0zm0 0"/><path d="m356.6875 443.3125-68.6875-68.6875c-6.238281-6.242188-6.238281-16.386719 0-22.625s16.382812-6.238281 22.625 0l68.6875 68.6875zm0 0"/></g><path d="m160 272h-32v-80h80v32h-48zm0 0" fill="#ffcb5a"/><path d="m208 448h-80v-80h32v48h48zm0 0" fill="#ffcb5a"/><path d="m384 272h-32v-48h-48v-32h80zm0 0" fill="#ffcb5a"/><path d="m384 448h-80v-32h48v-48h32zm0 0" fill="#ffcb5a"/></svg>