<svg height="512pt" viewBox="0 0 512 512" width="512pt" xmlns="http://www.w3.org/2000/svg"><path d="m0 96v384c0 17.679688 14.320312 32 32 32h448c17.679688 0 32-14.320312 32-32v-384zm0 0" fill="#e4edfb"/><path d="m256 432c-40.542969 0-79.824219-10.238281-113.617188-29.617188-32.847656-18.832031-58.894531-45.3125-75.292968-76.527343l-3.074219-5.855469 3.074219-5.839844c16.398437-31.214844 42.429687-57.695312 75.292968-76.527344 33.792969-19.394531 73.074219-29.632812 113.617188-29.632812s79.824219 10.238281 113.632812 29.617188c32.847657 18.847656 58.878907 45.3125 75.296876 76.527343l3.054687 5.855469-3.074219 5.839844c-16.398437 31.230468-42.429687 57.695312-75.292968 76.527344-33.792969 19.394531-73.074219 29.632812-113.617188 29.632812zm0 0" fill="#fff"/><path d="m0 0h512v128h-512zm0 0" fill="#77959e"/><path d="m64 48h32v32h-32zm0 0" fill="#fff"/><path d="m128 48h32v32h-32zm0 0" fill="#fff"/><path d="m432 80h-224c-8.832031 0-16-7.167969-16-16s7.167969-16 16-16h224c8.832031 0 16 7.167969 16 16s-7.167969 16-16 16zm0 0" fill="#62808c"/><path d="m336 320c0 44.183594-35.816406 80-80 80s-80-35.816406-80-80 35.816406-80 80-80 80 35.816406 80 80zm0 0" fill="#57565c"/><path d="m256 368c-38.640625 0-70.945312-27.535156-78.382812-64-1.058594 5.167969-1.617188 10.527344-1.617188 16 0 44.113281 35.886719 80 80 80s80-35.886719 80-80c0-5.472656-.558594-10.832031-1.617188-16-7.4375 36.464844-39.742187 64-78.382812 64zm0 0" fill="#2d2d30"/><path d="m272 272h32v32h-32zm0 0" fill="#fff"/></svg>