<svg height="512pt" viewBox="-25 0 512 512" width="512pt" xmlns="http://www.w3.org/2000/svg"><path d="m340.183594 185.15625h-202.644532l102.941407-114.394531h80.890625l43.195312 58.324219zm0 0" fill="#916e40"/><path d="m109.429688 136.128906-40.855469-70.761718 113.238281-65.367188 40.855469 70.761719-28.304688 16.34375-24.515625-42.457031-56.609375 32.683593 24.515625 42.457031zm0 0" fill="#62808c"/><path d="m345.820312 512h-261.472656c-18.058594 0-32.6875-14.625-32.6875-32.683594v-277.816406l81.238282-49.027344h245.605468v326.84375c0 18.058594-14.640625 32.683594-32.683594 32.683594zm0 0" fill="#d7dee2"/><g fill="#77959e"><path d="m133.371094 446.632812c-9.019532 0-16.339844-7.324218-16.339844-16.34375v-163.421874c0-9.019532 7.320312-16.34375 16.339844-16.34375 9.023437 0 16.34375 7.324218 16.34375 16.34375v163.421874c0 9.019532-7.320313 16.34375-16.34375 16.34375zm0 0"/><path d="m215.082031 446.632812c-9.019531 0-16.339843-7.324218-16.339843-16.34375v-196.105468c0-9.019532 7.320312-16.34375 16.339843-16.34375 9.023438 0 16.34375 7.324218 16.34375 16.34375v196.105468c0 9.019532-7.320312 16.34375-16.34375 16.34375zm0 0"/><path d="m296.792969 381.261719c-9.019531 0-16.339844-7.320313-16.339844-16.339844v-130.738281c0-9.019532 7.320313-16.34375 16.339844-16.34375 9.023437 0 16.34375 7.324218 16.34375 16.34375v130.738281c0 9.019531-7.320313 16.339844-16.34375 16.339844zm0 0"/><path d="m37.066406 272.261719-32.683594-56.609375c-9.019531-15.640625-3.675781-35.628906 11.964844-44.648438l283.0625-163.421875c15.636719-9.019531 35.625-3.675781 44.644532 11.964844l32.683593 56.609375zm0 0"/></g><path d="m419.933594 512h-82.855469l-43.960937-65.925781 62.476562-83.292969 84.601562 21.144531 21.703126 65.125zm0 0" fill="#e76e54"/><path d="m361.050781 475.050781-42.195312-63.292969-25.738281 34.316407 43.960937 65.925781h82.855469l24.625-36.949219zm0 0" fill="#dd523c"/></svg>