<svg height="512pt" viewBox="0 0 512 512" width="512pt" xmlns="http://www.w3.org/2000/svg"><path d="m0 96v384c0 17.679688 14.320312 32 32 32h448c17.679688 0 32-14.320312 32-32v-384zm0 0" fill="#e4edfb"/><path d="m0 0h512v128h-512zm0 0" fill="#77959e"/><path d="m64 48h32v32h-32zm0 0" fill="#fff"/><path d="m128 48h32v32h-32zm0 0" fill="#fff"/><path d="m432 80h-224c-8.832031 0-16-7.167969-16-16s7.167969-16 16-16h224c8.832031 0 16 7.167969 16 16s-7.167969 16-16 16zm0 0" fill="#62808c"/><path d="m96 400c-7.359375-4.894531-9.34375-14.832031-4.433594-22.191406l65.953125-98.929688 62.992188 62.992188 62.59375-109.550782 64.972656 48.71875 45.746094-68.625c4.894531-7.324218 14.816406-9.308593 22.175781-4.414062s9.34375 14.832031 4.433594 22.191406l-64.496094 96.753906-63.027344-47.28125-65.40625 114.449219-65.007812-65.007812-44.304688 66.445312c-4.910156 7.359375-14.832031 9.34375-22.191406 4.449219zm0 0" fill="#e76e54"/></svg>