<svg height="512pt" viewBox="0 0 512 512" width="512pt" xmlns="http://www.w3.org/2000/svg"><path d="m0 96v384c0 17.679688 14.320312 32 32 32h448c17.679688 0 32-14.320312 32-32v-384zm0 0" fill="#e4edfb"/><path d="m0 0h512v128h-512zm0 0" fill="#77959e"/><path d="m64 48h32v32h-32zm0 0" fill="#fff"/><path d="m128 48h32v32h-32zm0 0" fill="#fff"/><path d="m432 80h-224c-8.832031 0-16-7.167969-16-16s7.167969-16 16-16h224c8.832031 0 16 7.167969 16 16s-7.167969 16-16 16zm0 0" fill="#62808c"/><path d="m345.375 432-90.511719-90.511719 22.625-22.625 90.511719 90.511719c6.257812 6.242188 6.257812 16.386719 0 22.625-6.238281 6.238281-16.382812 6.257812-22.625 0zm0 0" fill="#62808c"/><path d="m186.976562 386.734375-45.265624-45.246094c-12.496094-12.496093-12.496094-32.753906 0-45.265625l90.511718-90.511718c12.496094-12.496094 32.753906-12.496094 45.25 0l45.261719 45.25c12.496094 12.496093 12.496094 32.75 0 45.261718l-90.511719 90.511719c-12.480468 12.496094-32.75 12.496094-45.246094 0zm0 0" fill="#aa854b"/></svg>