<svg height="522pt" viewBox="-196 0 522 522.94925" width="522pt" xmlns="http://www.w3.org/2000/svg"><g fill="#aa854b"><path d="m131.210938 65.367188c0 36.105468-29.265626 65.371093-65.367188 65.371093s-65.367188-29.265625-65.367188-65.371093c0-36.101563 29.265626-65.367188 65.367188-65.367188s65.367188 29.265625 65.367188 65.367188zm0 0"/><path d="m131.210938 261.476562c0 36.101563-29.265626 65.367188-65.367188 65.367188s-65.367188-29.265625-65.367188-65.367188c0-36.105468 29.265626-65.371093 65.367188-65.371093s65.367188 29.265625 65.367188 65.371093zm0 0"/><path d="m131.210938 457.582031c0 36.101563-29.265626 65.367188-65.367188 65.367188s-65.367188-29.265625-65.367188-65.367188c0-36.105469 29.265626-65.371093 65.367188-65.371093s65.367188 29.265624 65.367188 65.371093zm0 0"/></g><path d="m49.5 245.132812h32.683594v32.683594h-32.683594zm0 0" fill="#fff"/><path d="m49.5 441.238281h32.683594v32.683594h-32.683594zm0 0" fill="#fff"/><path d="m49.5 49.027344h32.683594v32.683594h-32.683594zm0 0" fill="#fff"/></svg>