<svg height="512pt" viewBox="0 0 512 512" width="512pt" xmlns="http://www.w3.org/2000/svg"><path d="m512 96v384c0 17.679688-14.320312 32-32 32h-448c-17.679688 0-32-14.320312-32-32v-384zm0 0" fill="#e4edfb"/><path d="m0 0h512v128h-512zm0 0" fill="#77959e"/><path d="m64 48h32v32h-32zm0 0" fill="#fff"/><path d="m128 48h32v32h-32zm0 0" fill="#fff"/><path d="m432 80h-224c-8.832031 0-16-7.167969-16-16s7.167969-16 16-16h224c8.832031 0 16 7.167969 16 16s-7.167969 16-16 16zm0 0" fill="#62808c"/><g fill="#9575cd"><path d="m64 265.375v38.625h-32v-38.625h-32v118.625h32v-48h32v48h32v-118.625zm0 0"/><path d="m224 265.375h-96v32h32v86.625h32v-86.625h32zm0 0"/><path d="m384 384h-32v-80l-32 32-32-32v80h-32v-118.625h38.625l25.375 25.378906 25.375-25.378906h38.625zm0 0"/><path d="m512 384h-96v-118.625h32v86.625h64zm0 0"/></g></svg>