<svg height="512pt" viewBox="0 0 512 512" width="512pt" xmlns="http://www.w3.org/2000/svg"><path d="m512 96v384c0 17.679688-14.320312 32-32 32h-448c-17.679688 0-32-14.320312-32-32v-384zm0 0" fill="#e4edfb"/><path d="m0 0h512v128h-512zm0 0" fill="#77959e"/><path d="m64 48h32v32h-32zm0 0" fill="#fff"/><path d="m128 48h32v32h-32zm0 0" fill="#fff"/><path d="m432 80h-224c-8.832031 0-16-7.167969-16-16s7.167969-16 16-16h224c8.832031 0 16 7.167969 16 16s-7.167969 16-16 16zm0 0" fill="#62808c"/><g fill="#9575cd"><path d="m440 240h-40v160h32v-48h8c30.878906 0 56-25.121094 56-56s-25.121094-56-56-56zm0 80h-8v-48h8c13.230469 0 24 10.769531 24 24s-10.769531 24-24 24zm0 0"/><path d="m80 304h-32v-64h-32v160h32v-64h32v64h32v-160h-32zm0 0"/><path d="m144 272h32v128h32v-128h32v-32h-96zm0 0"/><path d="m272 272h32v128h32v-128h32v-32h-96zm0 0"/></g></svg>