<svg height="522.94925pt" viewBox="0 0 522.94925 522.94925" width="522.94925pt" xmlns="http://www.w3.org/2000/svg"><path d="m522.949219 261.476562c0 144.40625-117.066407 261.472657-261.472657 261.472657-144.410156 0-261.476562-117.066407-261.476562-261.472657 0-144.410156 117.066406-261.476562 261.476562-261.476562 144.40625 0 261.472657 117.066406 261.472657 261.476562zm0 0" fill="#80deea"/><path d="m150.183594 283.375 45.921875 15.359375v93.476563h-160.804688c-22.390625-38.402344-35.300781-83.179688-35.300781-130.734376 0-61.773437 21.570312-118.644531 57.523438-163.421874h181.398437l44.941406 89.878906-122.894531 52.625zm0 0" fill="#ceed5f"/><path d="m375.871094 130.738281h32.683594v32.683594h-32.683594zm0 0" fill="#fff"/><path d="m310.5 130.738281h32.683594v32.683594h-32.683594zm0 0" fill="#fff"/><path d="m522.949219 261.476562c0 69.453126-27.453125 132.859376-71.90625 179.761719h-189.566407v-98.054687h71.738282l14.054687-49.023438h53.113281l49.027344-65.371094h71.414063c1.472656 10.625 2.125 21.574219 2.125 32.6875zm0 0" fill="#ceed5f"/></svg>