<svg height="512pt" viewBox="0 0 512 512" width="512pt" xmlns="http://www.w3.org/2000/svg"><path d="m512 96v384c0 17.679688-14.320312 32-32 32h-448c-17.679688 0-32-14.320312-32-32v-384zm0 0" fill="#e4edfb"/><path d="m0 0h512v128h-512zm0 0" fill="#77959e"/><path d="m64 48h32v32h-32zm0 0" fill="#fff"/><path d="m128 48h32v32h-32zm0 0" fill="#fff"/><path d="m432 80h-224c-8.832031 0-16-7.167969-16-16s7.167969-16 16-16h224c8.832031 0 16 7.167969 16 16s-7.167969 16-16 16zm0 0" fill="#62808c"/><g fill="#48c8ef"><path d="m80 352c0 8.832031-7.167969 16-16 16s-16-7.167969-16-16v-16h-32v14.113281c0 23.214844 15.648438 44.542969 38.433594 48.957031 30.636718 5.953126 57.566406-17.46875 57.566406-47.070312v-96c0-8.832031-7.167969-16-16-16s-16 7.167969-16 16zm0 0"/><path d="m336 329.375-16 16-16-16v-73.375c0-8.832031-7.167969-16-16-16s-16 7.167969-16 16v86.625l48 48 48-48v-86.625c0-8.832031-7.167969-16-16-16s-16 7.167969-16 16zm0 0"/><path d="m438.433594 240.929688c-22.785156 4.429687-38.433594 25.757812-38.433594 48.957031v94.113281c0 8.832031 7.167969 16 16 16s16-7.167969 16-16v-16h32v16c0 8.832031 7.167969 16 16 16s16-7.167969 16-16v-96c0-29.601562-26.929688-53.023438-57.566406-47.070312zm-6.433594 95.070312v-48c0-8.832031 7.167969-16 16-16s16 7.167969 16 16v48zm0 0"/><path d="m182.433594 240.929688c-22.785156 4.429687-38.433594 25.757812-38.433594 48.957031v94.113281c0 8.832031 7.167969 16 16 16s16-7.167969 16-16v-16h32v16c0 8.832031 7.167969 16 16 16s16-7.167969 16-16v-96c0-29.601562-26.929688-53.023438-57.566406-47.070312zm-6.433594 95.070312v-48c0-8.832031 7.167969-16 16-16s16 7.167969 16 16v48zm0 0"/></g></svg>