<svg height="522pt" viewBox="-147 0 522 522.94925" width="522pt" xmlns="http://www.w3.org/2000/svg"><path d="m114.871094 179.765625v245.128906h-65.371094c-9.019531 0-16.339844 7.324219-16.339844 16.34375s7.320313 16.34375 16.339844 16.34375h65.371094v32.683594h-98.054688c-9.019531 0-16.339844 7.320313-16.339844 16.339844 0 9.023437 7.320313 16.34375 16.339844 16.34375h130.738282v-343.183594zm0 0" fill="#fba61f"/><path d="m229.265625 98.054688c0 54.152343-43.902344 98.050781-98.054687 98.050781-54.152344 0-98.050782-43.898438-98.050782-98.050781 0-54.15625 43.898438-98.054688 98.050782-98.054688 54.152343 0 98.054687 43.898438 98.054687 98.054688zm0 0" fill="#ffcb5a"/><path d="m114.871094 32.683594h32.683594v32.683594h-32.683594zm0 0" fill="#fff"/></svg>