<svg height="522.94925pt" viewBox="0 0 522.94925 522.94925" width="522.94925pt" xmlns="http://www.w3.org/2000/svg"><path d="m522.949219 522.949219h-522.949219v-261.472657h130.738281v-261.476562h261.472657v261.476562h130.738281zm0 0" fill="#d7dee2"/><g fill="#7e57c2"><path d="m170.1875 408.554688h-114.394531v-32.683594h114.394531c9.019531 0 16.34375 7.320312 16.34375 16.339844 0 9.023437-7.324219 16.34375-16.34375 16.34375zm0 0"/><path d="m467.15625 408.554688h-114.394531c-9.019531 0-16.34375-7.320313-16.34375-16.34375 0-9.019532 7.324219-16.339844 16.34375-16.339844h114.394531zm0 0"/><path d="m261.476562 186.53125c-9.023437 0-16.34375-7.324219-16.34375-16.34375v-114.394531h32.683594v114.394531c0 9.019531-7.320312 16.34375-16.339844 16.34375zm0 0"/></g><path d="m81.710938 441.238281-49.027344-49.027343 49.027344-49.027344c6.375-6.371094 16.734374-6.371094 23.109374 0 6.371094 6.375 6.371094 16.734375 0 23.109375l-25.921874 25.917969 25.921874 25.917968c6.371094 6.375 6.371094 16.734375 0 23.109375-6.375 6.375-16.734374 6.375-23.109374 0zm0 0" fill="#9575cd"/><path d="m418.128906 441.238281c-6.371094-6.375-6.371094-16.734375 0-23.109375l25.921875-25.917968-25.921875-25.917969c-6.371094-6.375-6.371094-16.734375 0-23.109375 6.375-6.371094 16.734375-6.371094 23.109375 0l49.027344 49.027344-49.027344 49.027343c-6.375 6.375-16.734375 6.375-23.109375 0zm0 0" fill="#9575cd"/><path d="m287.394531 104.820312-25.917969-25.921874-25.921874 25.921874c-6.371094 6.371094-16.734376 6.371094-23.105469 0-6.375-6.375-6.375-16.734374 0-23.109374l49.027343-49.027344 49.023438 49.027344c6.375 6.375 6.375 16.734374 0 23.109374-6.371094 6.386719-16.734375 6.386719-23.105469 0zm0 0" fill="#9575cd"/><path d="m392.210938 228.789062h-261.472657v32.6875h114.394531v261.472657h32.683594v-261.472657h114.394532zm0 0" fill="#bfc9d1"/></svg>