<svg height="512pt" viewBox="0 -29 512 511" width="512pt" xmlns="http://www.w3.org/2000/svg"><path d="m480 453.179688h-448c-17.679688 0-32-14.320313-32-32v-224c0-17.679688 14.320312-32 32-32h448c17.679688 0 32 14.320312 32 32v224c0 17.664062-14.320312 32-32 32zm0 0" fill="#e4edfb"/><g fill="#77959e"><path d="m80 357.179688h32v32h-32zm0 0"/><path d="m336 357.179688h32v32h-32zm0 0"/><path d="m400 357.179688h32v32h-32zm0 0"/><path d="m288 389.179688h-128c-8.832031 0-16-7.167969-16-16 0-8.832032 7.167969-16 16-16h128c8.832031 0 16 7.167968 16 16 0 8.832031-7.167969 16-16 16zm0 0"/><path d="m128 325.179688h-32c-8.832031 0-16-7.167969-16-16 0-8.832032 7.167969-16 16-16h32c8.832031 0 16 7.167968 16 16 0 8.832031-7.167969 16-16 16zm0 0"/><path d="m304 293.179688h32v32h-32zm0 0"/><path d="m416 325.179688h-32c-8.832031 0-16-7.167969-16-16 0-8.832032 7.167969-16 16-16h32c8.832031 0 16 7.167968 16 16 0 8.832031-7.167969 16-16 16zm0 0"/><path d="m80 229.179688h32v32h-32zm0 0"/><path d="m144 229.179688h32v32h-32zm0 0"/><path d="m176 293.179688h32v32h-32zm0 0"/><path d="m208 229.179688h32v32h-32zm0 0"/><path d="m240 293.179688h32v32h-32zm0 0"/><path d="m272 229.179688h32v32h-32zm0 0"/><path d="m336 229.179688h32v32h-32zm0 0"/><path d="m400 229.179688h32v32h-32zm0 0"/></g><path d="m137.375 133.179688-64-64 64-64c6.242188-6.238282 16.386719-6.238282 22.625 0 6.238281 6.242187 6.238281 16.382812 0 22.625l-41.375 41.375 41.375 41.375c6.238281 6.242187 6.238281 16.386718 0 22.625-6.238281 6.242187-16.382812 6.242187-22.625 0zm0 0" fill="#e76e54"/><path d="m352 133.179688c-6.238281-6.238282-6.238281-16.382813 0-22.625l41.375-41.375-41.375-41.375c-6.238281-6.242188-6.238281-16.382813 0-22.625 6.238281-6.238282 16.382812-6.238282 22.625 0l64 64-64 64c-6.242188 6.242187-16.386719 6.242187-22.625 0zm0 0" fill="#e76e54"/><path d="m224 133.179688c-7.902344-3.953126-11.121094-13.566407-7.167969-21.472657l49.695313-99.375c3.953125-7.902343 13.570312-11.105469 21.472656-7.152343 7.902344 3.953124 11.105469 13.566406 7.152344 21.457031l-49.695313 99.375c-3.9375 7.921875-13.554687 11.121093-21.457031 7.167969zm0 0" fill="#e76e54"/></svg>