<svg height="512pt" viewBox="0 0 512 512" width="512pt" xmlns="http://www.w3.org/2000/svg"><path d="m0 96v384c0 17.679688 14.320312 32 32 32h448c17.679688 0 32-14.320312 32-32v-384zm0 0" fill="#e4edfb"/><path d="m0 0h512v128h-512zm0 0" fill="#77959e"/><path d="m64 48h32v32h-32zm0 0" fill="#fff"/><path d="m128 48h32v32h-32zm0 0" fill="#fff"/><path d="m432 80h-224c-8.832031 0-16-7.167969-16-16s7.167969-16 16-16h224c8.832031 0 16 7.167969 16 16s-7.167969 16-16 16zm0 0" fill="#62808c"/><path d="m406.625 448c8.832031 0 16-7.167969 16-16v-224c0-8.832031-7.167969-16-16-16s-16 7.167969-16 16v224c0 8.832031 7.167969 16 16 16zm0 0" fill="#48c8ef"/><path d="m118.625 336h224c8.832031 0 16-7.167969 16-16s-7.167969-16-16-16h-224zm0 0" fill="#dd523c"/><path d="m182.625 384c6.238281-6.238281 6.238281-16.382812 0-22.625l-41.378906-41.375 41.378906-41.375c6.238281-6.242188 6.238281-16.386719 0-22.625-6.242188-6.238281-16.386719-6.238281-22.625 0l-64 64 64 64c6.238281 6.238281 16.382812 6.238281 22.625 0zm0 0" fill="#e76e54"/></svg>