<svg height="508.116pt" viewBox="0 0 508.116 508.116" width="508.116pt" xmlns="http://www.w3.org/2000/svg"><path d="m426.191406 494.0625-159.4375-159.4375 67.871094-67.871094 159.4375 159.4375c18.738281 18.738282 18.738281 49.136719 0 67.871094-18.75 18.738281-49.132812 18.738281-67.871094 0zm0 0" fill="#d7dee2"/><path d="m210.761719 278.625 67.882812-67.882812 101.019531 101.019531-67.882812 67.882812zm0 0" fill="#62808c"/><path d="m176 352c-47.007812 0-91.199219-18.320312-124.449219-51.550781-33.246093-33.25-51.550781-77.441407-51.550781-124.449219s18.304688-91.199219 51.550781-124.449219c33.25-33.230469 77.441407-51.550781 124.449219-51.550781s91.199219 18.320312 124.449219 51.550781c33.246093 33.25 51.550781 77.457031 51.550781 124.449219s-18.304688 91.199219-51.550781 124.449219c-33.25 33.230469-77.441407 51.550781-124.449219 51.550781zm0 0" fill="#77959e"/><path d="m176 32c-38.464844 0-74.625 14.992188-101.824219 42.175781-27.199219 27.199219-42.175781 63.359375-42.175781 101.824219s14.976562 74.625 42.175781 101.824219c27.199219 27.183593 63.359375 42.175781 101.824219 42.175781s74.625-14.992188 101.824219-42.175781c27.199219-27.199219 42.175781-63.359375 42.175781-101.824219s-14.976562-74.625-42.175781-101.824219c-27.199219-27.183593-63.359375-42.175781-101.824219-42.175781zm0 0" fill="#80deea"/><path d="m119.425781 119.441406-22.625-22.625c8.894531-8.894531 19.070313-16.160156 30.253907-21.585937l13.96875 28.785156c-7.96875 3.871094-15.230469 9.054687-21.597657 15.425781zm113.132813 0c-17.328125-17.363281-41.710938-25.808594-66.03125-22.882812l-3.808594-31.773438c34.210938-4.144531 68.210938 7.726563 92.496094 32.03125zm0 0" fill="#fff"/></svg>