<svg height="512pt" viewBox="0 0 512 512" width="512pt" xmlns="http://www.w3.org/2000/svg"><path d="m512 96v384c0 17.679688-14.320312 32-32 32h-480v-416zm0 0" fill="#e4edfb"/><path d="m0 0h512v128h-512zm0 0" fill="#77959e"/><path d="m64 48h32v32h-32zm0 0" fill="#fff"/><path d="m128 48h32v32h-32zm0 0" fill="#fff"/><path d="m432 80h-224c-8.832031 0-16-7.167969-16-16s7.167969-16 16-16h224c8.832031 0 16 7.167969 16 16s-7.167969 16-16 16zm0 0" fill="#62808c"/><path d="m16 416h160c8.832031 0 16 7.167969 16 16v64c0 8.832031-7.167969 16-16 16h-160c-8.832031 0-16-7.167969-16-16v-64c0-8.832031 7.167969-16 16-16zm0 0" fill="#9575cd"/><path d="m408.976562 219.3125-114.753906 114.734375-22.621094-22.621094 114.75-114.738281zm-137.375 137.375-22.625 22.625-22.625-22.625 22.625-22.625zm0 0" fill="#24b2d3"/><path d="m413.664062 192h-90.511718c-8.832032 0-16 7.167969-16 16s7.167968 16 16 16h58.511718v58.511719c0 8.832031 7.167969 16 16 16 8.832032 0 16-7.167969 16-16zm0 0" fill="#48c8ef"/></svg>