<svg height="512pt" viewBox="0 0 512 512" width="512pt" xmlns="http://www.w3.org/2000/svg"><path d="m0 96v384c0 17.679688 14.320312 32 32 32h480v-416zm0 0" fill="#e4edfb"/><path d="m0 0h512v128h-512zm0 0" fill="#77959e"/><path d="m64 48h32v32h-32zm0 0" fill="#fff"/><path d="m128 48h32v32h-32zm0 0" fill="#fff"/><path d="m432 80h-224c-8.832031 0-16-7.167969-16-16s7.167969-16 16-16h224c8.832031 0 16 7.167969 16 16s-7.167969 16-16 16zm0 0" fill="#62808c"/><path d="m496 512h-160c-8.832031 0-16-7.167969-16-16v-64c0-8.832031 7.167969-16 16-16h160c8.832031 0 16 7.167969 16 16v64c0 8.832031-7.167969 16-16 16zm0 0" fill="#9575cd"/><path d="m249.375 368-103.4375-103.425781 22.621094-22.621094 103.441406 103.421875c6.257812 6.242188 6.257812 16.386719 0 22.625-6.238281 6.238281-16.382812 6.257812-22.625 0zm-126.0625-126.0625-22.625-22.625 22.625-22.625 22.625 22.625zm0 0" fill="#24b2d3"/><path d="m288 384h-90.511719c-8.832031 0-16-7.167969-16-16s7.167969-16 16-16h58.511719v-58.511719c0-8.832031 7.167969-16 16-16s16 7.167969 16 16zm0 0" fill="#48c8ef"/></svg>