<svg height="512pt" viewBox="-25 0 512 512" width="512pt" xmlns="http://www.w3.org/2000/svg"><path d="m374.625 416h-288v-384c0-17.679688 14.320312-32 32-32h224c17.679688 0 32 14.320312 32 32zm0 0" fill="#80deea"/><path d="m86.625 400v80c0 17.679688 14.320312 32 32 32h224c17.679688 0 32-14.320312 32-32v-80zm0 0" fill="#e4edfb"/><path d="m214.625 432h32v32h-32zm0 0" fill="#77959e"/><g fill="#62808c"><path d="m80 304-80-80 80-80c6.238281-6.238281 16.382812-6.238281 22.625 0 6.238281 6.238281 6.238281 16.382812 0 22.625l-57.378906 57.375 57.378906 57.375c6.238281 6.242188 6.238281 16.386719 0 22.625-6.242188 6.238281-16.386719 6.238281-22.625 0zm0 0"/><path d="m358.625 304c-6.242188-6.238281-6.242188-16.382812 0-22.625l57.375-57.375-57.375-57.375c-6.242188-6.242188-6.242188-16.386719 0-22.625 6.238281-6.238281 16.382812-6.238281 22.621094 0l80 80-80 80c-6.238282 6.238281-16.382813 6.238281-22.621094 0zm0 0"/><path d="m182.625 304c-7.585938-4.542969-10.03125-14.367188-5.488281-21.953125l79.535156-132.558594c4.542969-7.585937 14.367187-10.03125 21.953125-5.488281 7.566406 4.542969 10.03125 14.367188 5.488281 21.953125l-79.539062 132.558594c-4.542969 7.585937-14.367188 10.03125-21.949219 5.488281zm0 0"/></g></svg>