<svg height="512pt" viewBox="0 0 512 512" width="512pt" xmlns="http://www.w3.org/2000/svg"><path d="m480 512h-320c-17.679688 0-32-14.320312-32-32v-352h384v352c0 17.679688-14.320312 32-32 32zm0 0" fill="#48c8ef"/><path d="m432 464h-320c-17.679688 0-32-14.320312-32-32v-352h384v352c0 17.679688-14.320312 32-32 32zm0 0" fill="#d7dee2"/><path d="m0 0h384v160h-384zm0 0" fill="#77959e"/><path d="m48 48h32v32h-32zm0 0" fill="#fff"/><path d="m112 48h32v32h-32zm0 0" fill="#fff"/><path d="m320 80h-128c-8.832031 0-16-7.167969-16-16s7.167969-16 16-16h128c8.832031 0 16 7.167969 16 16s-7.167969 16-16 16zm0 0" fill="#62808c"/><path d="m352 384h-320c-17.679688 0-32-14.320312-32-32v-224h384v224c0 17.679688-14.320312 32-32 32zm0 0" fill="#e4edfb"/></svg>