<svg height="522.94925pt" viewBox="0 0 522.94925 522.94925" width="522.94925pt" xmlns="http://www.w3.org/2000/svg"><path d="m522.949219 261.476562c0 144.40625-117.066407 261.472657-261.472657 261.472657-144.410156 0-261.476562-117.066407-261.476562-261.472657 0-144.410156 117.066406-261.476562 261.476562-261.476562 144.40625 0 261.472657 117.066406 261.472657 261.476562zm0 0" fill="#77959e"/><path d="m310.5 392.210938h-98.050781v-114.738282c-20.363281-15.34375-32.683594-39.480468-32.683594-65.023437 0-45.054688 36.652344-81.710938 81.710937-81.710938 45.054688 0 81.707032 36.65625 81.707032 81.710938 0 25.542969-12.320313 49.679687-32.683594 65.023437zm0 0" fill="#ffcb5a"/><path d="m245.132812 359.527344h32.683594v-100.175782l8.121094-4.722656c15.378906-8.957031 24.5625-24.726562 24.5625-42.179687 0-27.03125-21.996094-49.027344-49.023438-49.027344-27.03125 0-49.027343 21.996094-49.027343 49.027344 0 17.453125 9.183593 33.222656 24.5625 42.179687l8.121093 4.722656zm0 0" fill="#fba61f"/></svg>