<svg height="522pt" viewBox="0 -98 522.94925 522" width="522pt" xmlns="http://www.w3.org/2000/svg"><path d="m490.265625 327.316406h-294.160156v-163.421875h294.160156c18.058594 0 32.683594 14.628907 32.683594 32.6875v98.050781c0 18.058594-14.625 32.683594-32.683594 32.683594zm0 0" fill="#80deea"/><path d="m196.105469 147.554688h-32.683594v-65.371094c0-27.027344-21.996094-49.023438-49.027344-49.023438s-49.027343 21.996094-49.027343 49.023438v65.371094h-32.683594v-65.371094c0-45.054688 36.65625-81.707032 81.710937-81.707032 45.054688 0 81.710938 36.652344 81.710938 81.707032zm0 0" fill="#d7dee2"/><g fill="#fff"><path d="m277.816406 229.265625h32.683594v32.683594h-32.683594zm0 0"/><path d="m343.183594 229.265625h32.6875v32.683594h-32.6875zm0 0"/><path d="m408.554688 229.265625h32.683593v32.683594h-32.683593zm0 0"/></g><path d="m0 131.210938h228.789062v196.105468h-228.789062zm0 0" fill="#e76e54"/><path d="m98.054688 212.921875h32.683593v32.683594h-32.683593zm0 0" fill="#fff"/></svg>