<svg height="512pt" viewBox="0 0 512 512" width="512pt" xmlns="http://www.w3.org/2000/svg"><path d="m512 96v384c0 17.679688-14.320312 32-32 32h-448c-17.679688 0-32-14.320312-32-32v-384zm0 0" fill="#e4edfb"/><path d="m0 0h512v128h-512zm0 0" fill="#77959e"/><path d="m64 48h32v32h-32zm0 0" fill="#fff"/><path d="m128 48h32v32h-32zm0 0" fill="#fff"/><path d="m432 80h-224c-8.832031 0-16-7.167969-16-16s7.167969-16 16-16h224c8.832031 0 16 7.167969 16 16s-7.167969 16-16 16zm0 0" fill="#62808c"/><g fill="#81c784"><path d="m96 400c-8.832031 0-16-7.167969-16-16v-144h38.382812c26.722657 0 51.042969 18.0625 56.402344 44.238281 7.375 35.984375-20.066406 67.761719-54.785156 67.761719h-8v32c0 8.832031-7.167969 16-16 16zm16-80h8c13.230469 0 24-10.769531 24-24s-10.769531-24-24-24h-8zm0 0"/><path d="m352 400c-8.832031 0-16-7.167969-16-16v-144h38.382812c26.722657 0 51.042969 18.0625 56.402344 44.238281 7.375 35.984375-20.066406 67.761719-54.785156 67.761719h-8v32c0 8.832031-7.167969 16-16 16zm16-80h8c13.230469 0 24-10.769531 24-24s-10.769531-24-24-24h-8zm0 0"/><path d="m272 256v48h-32v-48c0-8.832031-7.167969-16-16-16s-16 7.167969-16 16v128c0 8.832031 7.167969 16 16 16s16-7.167969 16-16v-48h32v48c0 8.832031 7.167969 16 16 16s16-7.167969 16-16v-128c0-8.832031-7.167969-16-16-16s-16 7.167969-16 16zm0 0"/></g></svg>