<svg height="522.94925pt" viewBox="0 0 522.94925 522.94925" width="522.94925pt" xmlns="http://www.w3.org/2000/svg"><path d="m457.582031 522.949219h-392.214843c-36.097657 0-65.367188-29.269531-65.367188-65.367188v-392.214843c0-36.097657 29.269531-65.367188 65.367188-65.367188h392.214843c36.097657 0 65.367188 29.269531 65.367188 65.367188v392.214843c0 36.097657-29.269531 65.367188-65.367188 65.367188zm0 0" fill="#e76e54"/><g fill="#fff"><path d="m277.816406 98.886719v-17.175781c0-9.019532-7.320312-16.34375-16.339844-16.34375-9.023437 0-16.34375 7.324218-16.34375 16.34375v17.175781c-91.484374 8.285156-163.421874 85.320312-163.421874 178.929687 0 99.117188 80.648437 179.765625 179.765624 179.765625 99.113282 0 179.761719-80.648437 179.761719-179.765625 0-93.609375-71.9375-170.644531-163.421875-178.929687zm-16.339844 326.007812c-81.109374 0-147.082031-65.972656-147.082031-147.078125 0-75.582031 57.3125-137.960937 130.738281-146.113281v113.429687c0 9.019532 7.320313 16.34375 16.34375 16.34375 9.019532 0 16.339844-7.324218 16.339844-16.34375v-113.429687c73.425782 8.152344 130.738282 70.53125 130.738282 146.113281 0 81.105469-65.972657 147.078125-147.078126 147.078125zm0 0"/><path d="m245.132812 294.160156h32.683594v32.683594h-32.683594zm0 0"/></g></svg>