<svg height="512pt" viewBox="0 0 512 512" width="512pt" xmlns="http://www.w3.org/2000/svg"><path d="m0 96v384c0 17.679688 14.320312 32 32 32h448c17.679688 0 32-14.320312 32-32v-384zm0 0" fill="#e4edfb"/><path d="m0 0h512v128h-512zm0 0" fill="#77959e"/><path d="m64 48h32v32h-32zm0 0" fill="#fff"/><path d="m128 48h32v32h-32zm0 0" fill="#fff"/><path d="m432 80h-224c-8.832031 0-16-7.167969-16-16s7.167969-16 16-16h224c8.832031 0 16 7.167969 16 16s-7.167969 16-16 16zm0 0" fill="#62808c"/><path d="m480 512h-288v-60.222656c0-18.175782 10.273438-34.800782 26.527344-42.929688l69.472656-34.734375v-15.488281l-32-32v-51.058594c0-41.757812 30.449219-79.117187 72-83.183594 47.679688-4.65625 88 32.863282 88 79.617188v54.625l-32 32v15.488281l69.472656 34.734375c16.253906 8.128906 26.527344 24.753906 26.527344 42.929688zm0 0" fill="#48c8ef"/></svg>