<svg height="522pt" viewBox="-65 0 522 522.94925" width="522pt" xmlns="http://www.w3.org/2000/svg"><path d="m261.949219 98.054688h-32.683594v-65.371094h-65.371094v65.371094h-32.683593v-98.054688h130.738281zm0 0" fill="#62808c"/><path d="m343.660156 522.949219h-294.160156c-18.058594 0-32.683594-14.625-32.683594-32.683594v-359.527344h359.527344v359.527344c0 18.058594-14.625 32.683594-32.683594 32.683594zm0 0" fill="#d7dee2"/><path d="m392.6875 163.421875h-392.210938v-65.367187c0-18.058594 14.625-32.6875 32.683594-32.6875h326.84375c18.054688 0 32.683594 14.628906 32.683594 32.6875zm0 0" fill="#77959e"/><path d="m196.582031 473.921875c-12.535156 0-24.921875-1.746094-36.820312-5.230469l9.167969-31.375c8.921874 2.597656 18.222656 3.921875 27.652343 3.921875zm-70.714843-20.722656c-37.585938-24.167969-60.023438-65.300781-60.023438-110.015625 0-45.640625 24.398438-88.589844 63.683594-112.074219l16.769531 28.0625c-29.464844 17.617187-47.769531 49.792969-47.769531 84.011719 0 33.550781 16.832031 64.40625 45.023437 82.546875zm0 0" fill="#dd523c"/><path d="m263.632812 455.261719-16.765624-28.0625c29.464843-17.617188 47.765624-49.792969 47.765624-84.015625 0-33.546875-16.832031-64.402344-45.023437-82.542969l17.683594-27.488281c37.585937 24.1875 60.023437 65.320312 60.023437 110.03125 0 45.644531-24.398437 88.59375-63.683594 112.078125zm-39.402343-206.207031c-8.921875-2.597657-18.21875-3.921876-27.648438-3.921876v-32.683593c12.53125 0 24.921875 1.746093 36.816407 5.226562zm0 0" fill="#dd523c"/><g fill="#e76e54"><path d="m139.382812 326.84375c-9.019531 0-16.34375-7.320312-16.34375-16.34375v-49.023438h-49.023437c-9.023437 0-16.34375-7.324218-16.34375-16.34375 0-9.019531 7.320313-16.34375 16.34375-16.34375h81.710937v81.710938c0 9.023438-7.324218 16.34375-16.34375 16.34375zm0 0"/><path d="m319.148438 457.582031h-81.710938v-81.710937c0-9.023438 7.320312-16.34375 16.339844-16.34375 9.023437 0 16.34375 7.320312 16.34375 16.34375v49.023437h49.027344c9.019531 0 16.339843 7.324219 16.339843 16.34375s-7.320312 16.34375-16.339843 16.34375zm0 0"/></g></svg>