<svg height="512pt" viewBox="0 0 512 512" width="512pt" xmlns="http://www.w3.org/2000/svg"><path d="m512 96v384c0 17.679688-14.320312 32-32 32h-448c-17.679688 0-32-14.320312-32-32v-384zm0 0" fill="#e4edfb"/><path d="m0 0h512v128h-512zm0 0" fill="#77959e"/><path d="m64 48h32v32h-32zm0 0" fill="#fff"/><path d="m128 48h32v32h-32zm0 0" fill="#fff"/><path d="m432 80h-224c-8.832031 0-16-7.167969-16-16s7.167969-16 16-16h224c8.832031 0 16 7.167969 16 16s-7.167969 16-16 16zm0 0" fill="#62808c"/><g fill="#fba61f"><path d="m182.382812 240h-38.382812v144c0 8.832031 7.167969 16 16 16s16-7.167969 16-16v-32h8c34.71875 0 62.160156-31.777344 54.800781-67.761719-5.375-26.175781-29.695312-44.238281-56.417969-44.238281zm1.617188 80h-8v-48h8c13.230469 0 24 10.769531 24 24s-10.769531 24-24 24zm0 0"/><path d="m352 240c-8.832031 0-16 7.167969-16 16v41.375l-16 16-16-16v-41.375c0-8.832031-7.167969-16-16-16s-16 7.167969-16 16v54.625l32 32v41.375c0 8.832031 7.167969 16 16 16s16-7.167969 16-16v-41.375l32-32v-54.625c0-8.832031-7.167969-16-16-16zm0 0"/></g></svg>