<svg height="522.94925pt" viewBox="0 0 522.94925 522.94925" width="522.94925pt" xmlns="http://www.w3.org/2000/svg"><path d="m0 0h163.421875v163.421875h-163.421875zm0 0" fill="#57565c"/><path d="m98.054688 98.054688h32.683593v32.683593h-32.683593zm0 0" fill="#fff"/><path d="m359.527344 0h163.421875v163.421875h-163.421875zm0 0" fill="#57565c"/><path d="m457.582031 32.683594h32.683594v32.683594h-32.683594zm0 0" fill="#fff"/><g fill="#57565c"><path d="m163.421875 522.949219h-163.421875v-163.421875h163.421875zm-130.738281-32.683594h98.054687v-98.054687h-98.054687zm0 0"/><path d="m65.367188 424.894531h32.6875v32.6875h-32.6875zm0 0"/><path d="m261.476562 0h65.367188v32.683594h-65.367188zm0 0"/><path d="m326.84375 65.367188h-98.054688v-32.683594h-32.683593v65.371094h65.371093v32.683593h32.683594v-32.683593h32.683594zm0 0"/><path d="m196.105469 130.738281h32.683593v32.683594h-32.683593zm0 0"/><path d="m326.84375 228.789062h-130.738281v-32.683593h98.054687v-32.683594h32.683594zm0 0"/><path d="m65.367188 261.476562h-32.683594v-65.371093h-32.683594v130.738281h32.683594v-32.683594h32.683594zm0 0"/><path d="m65.367188 196.105469h32.6875v32.683593h-32.6875zm0 0"/><path d="m228.789062 294.160156v-32.683594h-65.367187v-65.371093h-32.683594v65.371093h-32.683593v65.367188h32.683593v-32.683594h65.367188v32.683594h65.371093v-32.683594zm0 0"/><path d="m294.160156 261.476562h32.683594v65.367188h-32.683594zm0 0"/><path d="m196.105469 424.894531h32.683593v32.6875h-32.683593zm0 0"/><path d="m359.527344 457.582031h-65.367188v-98.054687h-98.054687v32.683594h65.371093v98.054687h-65.371093v32.683594h98.054687v-32.683594h65.367188zm0 0"/><path d="m326.84375 359.527344h32.683594v65.367187h-32.683594zm0 0"/><path d="m424.894531 522.949219h-32.683593v-98.054688h98.054687v32.6875h-65.371094zm0 0"/><path d="m457.582031 490.265625h65.367188v32.683594h-65.367188zm0 0"/><path d="m490.265625 359.527344h32.683594v32.683594h-32.683594zm0 0"/><path d="m424.894531 392.210938h-32.683593v-65.367188h-32.683594v-32.683594h65.367187zm0 0"/><path d="m457.582031 196.105469v32.683593h-32.6875v-32.683593h-32.683593v32.683593h-32.683594v32.6875h130.738281v-32.6875h32.683594v-32.683593zm0 0"/><path d="m457.582031 294.160156h65.367188v32.683594h-65.367188zm0 0"/></g></svg>