<svg height="512pt" viewBox="0 -80 512 512" width="512pt" xmlns="http://www.w3.org/2000/svg"><path d="m176 352c-47.007812 0-91.199219-18.304688-124.449219-51.550781-33.246093-33.25-51.550781-77.441407-51.550781-124.449219s18.304688-91.199219 51.550781-124.449219c33.25-33.246093 77.441407-51.550781 124.449219-51.550781s91.199219 18.304688 124.449219 51.550781c33.246093 33.25 51.550781 77.441407 51.550781 124.449219s-18.304688 91.199219-51.550781 124.449219c-33.25 33.246093-77.441407 51.550781-124.449219 51.550781zm0 0" fill="#ceed5f"/><path d="m336 352c-47.007812 0-91.199219-18.304688-124.449219-51.550781-33.246093-33.25-51.550781-77.441407-51.550781-124.449219s18.304688-91.199219 51.550781-124.449219c33.25-33.246093 77.441407-51.550781 124.449219-51.550781s91.199219 18.304688 124.449219 51.550781c33.246093 33.25 51.550781 77.441407 51.550781 124.449219s-18.304688 91.199219-51.550781 124.449219c-33.25 33.246093-77.441407 51.550781-124.449219 51.550781zm0 0" fill="#80deea"/><g fill="#4dd0e1"><path d="m511.839844 168.800781-183.039063 183.039063c-13.441406-.480469-26.722656-2.558594-39.359375-6.078125l216.320313-216.320313c3.519531 12.636719 5.597656 25.917969 6.078125 39.359375zm0 0"/><path d="m397.761719 11.199219-226.5625 226.5625c-4.480469-11.523438-7.679688-23.683594-9.277344-36.160157l199.679687-199.679687c12.476563 1.597656 24.636719 4.796875 36.160157 9.277344zm0 0"/><path d="m454.078125 45.441406-248.636719 248.636719c-7.363281-8.15625-13.921875-16.796875-19.519531-25.917969l242.238281-242.238281c9.121094 5.597656 17.761719 12.15625 25.917969 19.519531zm0 0"/><path d="m490.878906 92.160156-238.71875 238.71875c-9.601562-5.277344-18.71875-11.359375-27.199218-18.238281l247.679687-247.679687c6.878906 8.480468 12.960937 17.597656 18.238281 27.199218zm0 0"/></g></svg>