<svg height="512pt" viewBox="0 -80 512 512" width="512pt" xmlns="http://www.w3.org/2000/svg"><path d="m176 352c-47.007812 0-91.199219-18.304688-124.449219-51.550781-33.246093-33.25-51.550781-77.441407-51.550781-124.449219s18.304688-91.199219 51.550781-124.449219c33.25-33.246093 77.441407-51.550781 124.449219-51.550781s91.199219 18.304688 124.449219 51.550781c33.246093 33.25 51.550781 77.441407 51.550781 124.449219s-18.304688 91.199219-51.550781 124.449219c-33.25 33.246093-77.441407 51.550781-124.449219 51.550781zm0 0" fill="#ceed5f"/><path d="m336 352c-47.007812 0-91.199219-18.304688-124.449219-51.550781-33.246093-33.25-51.550781-77.441407-51.550781-124.449219s18.304688-91.199219 51.550781-124.449219c33.25-33.246093 77.441407-51.550781 124.449219-51.550781s91.199219 18.304688 124.449219 51.550781c33.246093 33.25 51.550781 77.441407 51.550781 124.449219s-18.304688 91.199219-51.550781 124.449219c-33.25 33.246093-77.441407 51.550781-124.449219 51.550781zm0 0" fill="#80deea"/><path d="m352 176c0-47.007812-18.304688-91.199219-51.550781-124.449219-13.234375-13.230469-28.257813-23.984375-44.449219-32.269531-16.191406 8.285156-31.214844 19.039062-44.449219 32.269531-33.246093 33.25-51.550781 77.441407-51.550781 124.449219s18.304688 91.199219 51.550781 124.449219c13.234375 13.230469 28.257813 23.984375 44.449219 32.269531 16.191406-8.285156 31.214844-19.039062 44.449219-32.269531 33.246093-33.25 51.550781-77.441407 51.550781-124.449219zm0 0" fill="#9575cd"/><g fill="#7e57c2"><path d="m325.601562 83.199219-154.402343 154.402343c-4.480469-11.363281-7.519531-23.523437-9.277344-35.839843l144.316406-144.320313c7.203125 8 13.761719 16.636719 19.363281 25.757813zm0 0"/><path d="m350.078125 149.441406-144.636719 144.636719c-7.363281-8.15625-13.921875-16.796875-19.519531-25.917969l154.71875-154.71875c4.480469 11.519532 7.519531 23.519532 9.4375 36zm0 0"/></g></svg>