<svg height="512pt" viewBox="0 -80 512 512" width="512pt" xmlns="http://www.w3.org/2000/svg"><path d="m336 352c-47.007812 0-91.199219-18.304688-124.449219-51.550781-33.246093-33.25-51.550781-77.441407-51.550781-124.449219s18.304688-91.199219 51.550781-124.449219c33.25-33.246093 77.441407-51.550781 124.449219-51.550781s91.199219 18.304688 124.449219 51.550781c33.246093 33.25 51.550781 77.441407 51.550781 124.449219s-18.304688 91.199219-51.550781 124.449219c-33.25 33.246093-77.441407 51.550781-124.449219 51.550781zm0 0" fill="#80deea"/><path d="m176 352c-47.007812 0-91.199219-18.304688-124.449219-51.550781-33.246093-33.25-51.550781-77.441407-51.550781-124.449219s18.304688-91.199219 51.550781-124.449219c33.25-33.246093 77.441407-51.550781 124.449219-51.550781s91.199219 18.304688 124.449219 51.550781c33.246093 33.25 51.550781 77.441407 51.550781 124.449219s-18.304688 91.199219-51.550781 124.449219c-33.25 33.246093-77.441407 51.550781-124.449219 51.550781zm0 0" fill="#ceed5f"/><path d="m352 176c0-47.007812-18.304688-91.199219-51.550781-124.449219-13.234375-13.230469-28.257813-23.984375-44.449219-32.269531-16.191406 8.285156-31.214844 19.039062-44.449219 32.269531-33.246093 33.25-51.550781 77.441407-51.550781 124.449219s18.304688 91.199219 51.550781 124.449219c13.234375 13.230469 28.257813 23.984375 44.449219 32.269531 16.191406-8.285156 31.214844-19.039062 44.449219-32.269531 33.246093-33.25 51.550781-77.441407 51.550781-124.449219zm0 0" fill="#9575cd"/><g fill="#4dd0e1"><path d="m256 332.800781c.800781-.480469 1.761719-.960937 2.558594-1.441406l-1.757813 1.761719c-.320312 0-.480469-.160156-.800781-.320313zm0 0"/><path d="m493.121094 96.800781-161.441406 161.4375c10.558593-20 17.28125-41.757812 19.519531-64.636719l124.640625-124.640624c6.71875 8.800781 12.480468 18.078124 17.28125 27.839843zm0 0"/><path d="m511.839844 168.800781-183.039063 183.039063c-13.441406-.480469-26.5625-2.558594-39.199219-6.238282l216.160157-216.160156c3.519531 12.636719 5.597656 25.917969 6.078125 39.359375zm0 0"/><path d="m397.601562 11.199219-72 72c-5.601562-9.121094-12.160156-17.757813-19.363281-25.757813l55.523438-55.519531c12.316406 1.757813 24.476562 4.796875 35.839843 9.277344zm0 0"/><path d="m454.078125 45.441406-104 104c-1.917969-12.480468-4.957031-24.480468-9.4375-36l87.519531-87.519531c9.121094 5.597656 17.761719 12.15625 25.917969 19.519531zm0 0"/></g></svg>