<svg height="522.94925pt" viewBox="0 0 522.94925 522.94925" width="522.94925pt" xmlns="http://www.w3.org/2000/svg"><path d="m522.949219 98.054688v392.210937c0 18.058594-14.625 32.683594-32.683594 32.683594h-457.582031c-18.058594 0-32.683594-14.625-32.683594-32.683594v-392.210937zm0 0" fill="#e4edfb"/><path d="m0 0h522.949219v130.738281h-522.949219zm0 0" fill="#77959e"/><path d="m65.367188 49.027344h32.6875v32.683594h-32.6875zm0 0" fill="#fff"/><path d="m130.738281 49.027344h32.683594v32.683594h-32.683594zm0 0" fill="#fff"/><path d="m441.238281 81.710938h-228.789062c-9.023438 0-16.34375-7.320313-16.34375-16.34375 0-9.019532 7.320312-16.339844 16.34375-16.339844h228.789062c9.019531 0 16.34375 7.320312 16.34375 16.339844 0 9.023437-7.324219 16.34375-16.34375 16.34375zm0 0" fill="#62808c"/><path d="m522.949219 522.949219h-294.160157v-294.160157h251.898438l42.261719 42.261719zm0 0" fill="#a5d6a7"/><path d="m424.894531 326.84375h-98.050781c-18.058594 0-32.683594-14.625-32.683594-32.683594v-65.371094h163.421875v65.371094c0 18.058594-14.628906 32.683594-32.6875 32.683594zm0 0" fill="#77959e"/><path d="m457.582031 522.949219h-163.421875v-114.394531c0-18.058594 14.625-32.683594 32.683594-32.683594h98.050781c18.058594 0 32.6875 14.625 32.6875 32.683594zm0 0" fill="#81c784"/></svg>