<svg height="512pt" viewBox="0 0 512 512.004" width="512pt" xmlns="http://www.w3.org/2000/svg"><path d="m512.003906 96v384c0 17.679688-14.320312 32-32 32h-448c-17.683594 0-31.99999975-14.320312-31.99999975-32v-384zm0 0" fill="#e4edfb"/><path d="m.00390625 0h511.99999975v128h-511.99999975zm0 0" fill="#77959e"/><path d="m64.003906 48h32v32h-32zm0 0" fill="#fff"/><path d="m128.003906 48h32v32h-32zm0 0" fill="#fff"/><path d="m432.003906 80h-224c-8.832031 0-16-7.167969-16-16s7.167969-16 16-16h224c8.832032 0 16 7.167969 16 16s-7.167968 16-16 16zm0 0" fill="#62808c"/><path d="m484.691406 507.3125-68.6875-68.6875 22.621094-22.625 68.6875 68.6875c6.242188 6.242188 6.242188 16.382812 0 22.625-6.238281 6.253906-16.382812 6.253906-22.621094 0zm0 0" fill="#77959e"/><path d="m464.003906 384c0 44.183594-35.820312 80-80 80-44.183594 0-80-35.816406-80-80s35.816406-80 80-80c44.179688 0 80 35.816406 80 80zm0 0" fill="#e76e54"/><path d="m432.003906 384c0 26.507812-21.492187 48-48 48-26.511718 0-48-21.492188-48-48s21.488282-48 48-48c26.507813 0 48 21.492188 48 48zm0 0" fill="#80deea"/><g fill="#48c8ef"><path d="m105.378906 283.3125-48-48 48-48c6.238282-6.242188 16.382813-6.242188 22.625 0 6.238282 6.238281 6.238282 16.382812 0 22.625l-25.378906 25.375 25.378906 25.375c6.238282 6.242188 6.238282 16.382812 0 22.625-6.242187 6.253906-16.386718 6.253906-22.625 0zm0 0"/><path d="m272.003906 283.3125c-6.242187-6.242188-6.242187-16.382812 0-22.625l25.375-25.375-25.375-25.375c-6.242187-6.242188-6.242187-16.386719 0-22.625 6.238282-6.242188 16.382813-6.242188 22.621094 0l48 48-48 48c-6.238281 6.253906-16.382812 6.253906-22.621094 0zm0 0"/><path d="m176.003906 283.3125c-7.90625-3.953125-11.105468-13.570312-7.152344-21.472656l33.679688-67.375c3.949219-7.90625 13.566406-11.105469 21.472656-7.152344 7.902344 3.953125 11.101563 13.566406 7.148438 21.472656l-33.679688 67.375c-3.949218 7.902344-13.566406 11.105469-21.46875 7.152344zm0 0"/></g></svg>