<svg height="512pt" viewBox="0 0 512 512" width="512pt" xmlns="http://www.w3.org/2000/svg"><path d="m512 96v384c0 17.679688-14.320312 32-32 32h-448c-17.679688 0-32-14.320312-32-32v-384zm0 0" fill="#e4edfb"/><path d="m320 320h-128v-64c0-35.296875 28.703125-64 64-64s64 28.703125 64 64zm-96-32h64v-32c0-17.648438-14.351562-32-32-32s-32 14.351562-32 32zm0 0" fill="#bfc9d1"/><path d="m0 0h512v128h-512zm0 0" fill="#77959e"/><path d="m64 48h32v32h-32zm0 0" fill="#fff"/><path d="m128 48h32v32h-32zm0 0" fill="#fff"/><path d="m432 80h-224c-8.832031 0-16-7.167969-16-16s7.167969-16 16-16h224c8.832031 0 16 7.167969 16 16s-7.167969 16-16 16zm0 0" fill="#62808c"/><path d="m320 448h-128c-17.679688 0-32-14.320312-32-32v-128h192v128c0 17.679688-14.320312 32-32 32zm0 0" fill="#ffcb5a"/><path d="m240 352h32v32h-32zm0 0" fill="#fff"/></svg>