<svg height="512pt" viewBox="0 0 512 512" width="512pt" xmlns="http://www.w3.org/2000/svg"><path d="m256 0c-141.152344 0-256 114.847656-256 256s114.847656 256 256 256 256-114.847656 256-256-114.847656-256-256-256zm0 400c-79.40625 0-144-64.59375-144-144s64.59375-144 144-144 144 64.59375 144 144-64.59375 144-144 144zm0 0" fill="#e76e54"/><g fill="#e4edfb"><path d="m112 256c0-22.992188 5.550781-44.671875 15.183594-63.96875h-118.769532c-5.292968 20.480469-8.414062 41.839844-8.414062 63.96875s3.121094 43.488281 8.414062 63.96875h118.769532c-9.632813-19.296875-15.183594-40.976562-15.183594-63.96875zm0 0"/><path d="m400 256c0 22.992188-5.550781 44.671875-15.183594 63.96875h118.769532c5.292968-20.480469 8.414062-41.839844 8.414062-63.96875s-3.121094-43.488281-8.414062-63.96875h-118.769532c9.632813 19.296875 15.183594 40.976562 15.183594 63.96875zm0 0"/><path d="m192.03125 8.414062v118.769532c19.296875-9.632813 40.976562-15.183594 63.96875-15.183594s44.671875 5.550781 63.96875 15.183594v-118.769532c-20.480469-5.292968-41.839844-8.414062-63.96875-8.414062s-43.488281 3.121094-63.96875 8.414062zm0 0"/><path d="m319.96875 503.585938v-118.769532c-19.296875 9.632813-40.976562 15.183594-63.96875 15.183594s-44.671875-5.550781-63.96875-15.183594v118.769532c20.480469 5.292968 41.839844 8.414062 63.96875 8.414062s43.488281-3.121094 63.96875-8.414062zm0 0"/></g></svg>