<svg height="522.94925pt" viewBox="0 0 522.94925 522.94925" width="522.94925pt" xmlns="http://www.w3.org/2000/svg"><path d="m457.582031 522.949219h-392.214843c-36.097657 0-65.367188-29.269531-65.367188-65.367188v-392.214843c0-36.097657 29.269531-65.367188 65.367188-65.367188h392.214843c36.097657 0 65.367188 29.269531 65.367188 65.367188v392.214843c0 36.097657-29.269531 65.367188-65.367188 65.367188zm0 0" fill="#a5d6a7"/><g fill="#fff"><path d="m375.871094 245.132812h-173l25.917968-25.917968c6.375-6.375 6.375-16.734375 0-23.109375-6.371093-6.371094-16.734374-6.371094-23.105468 0l-65.371094 65.371093 65.371094 65.367188c6.371094 6.371094 16.734375 6.371094 23.105468 0 6.375-6.375 6.375-16.734375 0-23.109375l-25.917968-25.917969h173c9.019531 0 16.339844-7.320312 16.339844-16.339844 0-9.023437-7.320313-16.34375-16.339844-16.34375zm0 0"/><path d="m81.710938 375.871094c-9.019532 0-16.34375-7.324219-16.34375-16.34375v-196.105469c0-9.019531 7.324218-16.34375 16.34375-16.34375 9.019531 0 16.34375 7.324219 16.34375 16.34375v196.105469c0 9.019531-7.324219 16.34375-16.34375 16.34375zm0 0"/><path d="m424.894531 245.132812h32.6875v32.683594h-32.6875zm0 0"/></g></svg>