<svg height="528pt" viewBox="-8 0 528 528" width="528pt" xmlns="http://www.w3.org/2000/svg"><path d="m512 96v384c0 17.679688-14.320312 32-32 32h-448c-17.679688 0-32-14.320312-32-32v-384zm0 0" fill="#e4edfb"/><path d="m368 528h-208v-42.671875l-48-64v-149.328125h16c18 0 34.625 5.96875 48 16.03125v-80.03125c0-26.464844 21.535156-48 48-48s48 21.535156 48 48v68.910156l128 48v94.882813l-32 64zm0 0" fill="#ecce93"/><path d="m0 0h512v128h-512zm0 0" fill="#77959e"/><path d="m64 48h32v32h-32zm0 0" fill="#fff"/><path d="m128 48h32v32h-32zm0 0" fill="#fff"/><path d="m432 80h-224c-8.832031 0-16-7.167969-16-16s7.167969-16 16-16h224c8.832031 0 16 7.167969 16 16s-7.167969 16-16 16zm0 0" fill="#62808c"/><path d="m192 400v-73.390625c0-14.480469-5.761719-28.351563-16-38.578125-4.894531-3.679688-10.335938-6.589844-16-9.085938v89.054688c0 17.679688 14.320312 32 32 32zm0 0" fill="#e5bd76"/></svg>