<svg height="512pt" viewBox="-64 0 512 512" width="512pt" xmlns="http://www.w3.org/2000/svg"><path d="m256 96h-32v-64h-64v64h-32v-96h128zm0 0" fill="#62808c"/><path d="m336 512h-288c-17.679688 0-32-14.320312-32-32v-352h352v352c0 17.679688-14.320312 32-32 32zm0 0" fill="#d7dee2"/><g fill="#77959e"><path d="m112 448c8.832031 0 16-7.167969 16-16v-224c0-8.832031-7.167969-16-16-16s-16 7.167969-16 16v224c0 8.832031 7.167969 16 16 16zm0 0"/><path d="m192 448c8.832031 0 16-7.167969 16-16v-224c0-8.832031-7.167969-16-16-16s-16 7.167969-16 16v224c0 8.832031 7.167969 16 16 16zm0 0"/><path d="m256 208v224c0 8.832031 7.167969 16 16 16s16-7.167969 16-16v-224c0-8.832031-7.167969-16-16-16s-16 7.167969-16 16zm0 0"/><path d="m384 160h-384v-64c0-17.679688 14.320312-32 32-32h320c17.679688 0 32 14.320312 32 32zm0 0"/></g></svg>