<svg height="512pt" viewBox="0 0 512 512" width="512pt" xmlns="http://www.w3.org/2000/svg"><path d="m480 512h-384c-17.679688 0-32-14.320312-32-32v-416h448v416c0 17.679688-14.320312 32-32 32zm0 0" fill="#48c8ef"/><path d="m0 0h448v160h-448zm0 0" fill="#77959e"/><path d="m64 48h32v32h-32zm0 0" fill="#fff"/><path d="m128 48h32v32h-32zm0 0" fill="#fff"/><path d="m368 80h-160c-8.832031 0-16-7.167969-16-16s7.167969-16 16-16h160c8.832031 0 16 7.167969 16 16s-7.167969 16-16 16zm0 0" fill="#62808c"/><path d="m416 448h-384c-17.679688 0-32-14.320312-32-32v-288h448v288c0 17.679688-14.320312 32-32 32zm0 0" fill="#e4edfb"/></svg>