<svg height="512pt" viewBox="0 0 512 512" width="512pt" xmlns="http://www.w3.org/2000/svg"><path d="m512 96v384c0 17.679688-14.320312 32-32 32h-448c-17.679688 0-32-14.320312-32-32v-384zm0 0" fill="#e4edfb"/><path d="m256 214.625c-8.832031 0-16 7.167969-16 16v144c0 8.832031 7.167969 16 16 16s16-7.167969 16-16v-144c0-8.832031-7.167969-16-16-16zm0 0" fill="#9575cd"/><path d="m0 0h512v128h-512zm0 0" fill="#77959e"/><path d="m64 48h32v32h-32zm0 0" fill="#fff"/><path d="m128 48h32v32h-32zm0 0" fill="#fff"/><path d="m432 80h-224c-8.832031 0-16-7.167969-16-16s7.167969-16 16-16h224c8.832031 0 16 7.167969 16 16s-7.167969 16-16 16zm0 0" fill="#62808c"/><path d="m416 448h-320v-80c0-8.832031 7.167969-16 16-16s16 7.167969 16 16v48h256v-48c0-8.832031 7.167969-16 16-16s16 7.167969 16 16zm0 0" fill="#9575cd"/><path d="m256 192-64 64c-6.238281 6.238281-6.238281 16.382812 0 22.625 6.238281 6.238281 16.382812 6.238281 22.625 0l41.375-41.378906 41.375 41.378906c6.242188 6.238281 16.386719 6.238281 22.625 0 6.238281-6.242188 6.238281-16.386719 0-22.625zm0 0" fill="#7e57c2"/></svg>