<svg height="522pt" viewBox="0 -196 522.94925 522" width="522pt" xmlns="http://www.w3.org/2000/svg"><g fill="#aa854b"><path d="m130.738281 65.84375c0 36.101562-29.265625 65.367188-65.371093 65.367188-36.101563 0-65.367188-29.265626-65.367188-65.367188s29.265625-65.367188 65.367188-65.367188c36.105468 0 65.371093 29.265626 65.371093 65.367188zm0 0"/><path d="m326.84375 65.84375c0 36.101562-29.265625 65.367188-65.367188 65.367188-36.105468 0-65.371093-29.265626-65.371093-65.367188s29.265625-65.367188 65.371093-65.367188c36.101563 0 65.367188 29.265626 65.367188 65.367188zm0 0"/><path d="m522.949219 65.84375c0 36.101562-29.265625 65.367188-65.367188 65.367188-36.105469 0-65.371093-29.265626-65.371093-65.367188s29.265624-65.367188 65.371093-65.367188c36.101563 0 65.367188 29.265626 65.367188 65.367188zm0 0"/></g><path d="m245.132812 49.5h32.683594v32.683594h-32.683594zm0 0" fill="#fff"/><path d="m441.238281 49.5h32.683594v32.683594h-32.683594zm0 0" fill="#fff"/><path d="m49.027344 49.5h32.683594v32.683594h-32.683594zm0 0" fill="#fff"/></svg>